<svg xmlns="http://www.w3.org/2000/svg" viewBox="0 0 90.62 81.16"><defs><style>.cls-1{fill:#f30084;fill-rule:evenodd;}</style></defs><title>insta-label-minimalism2Asset 12</title><g id="Layer_2" data-name="Layer 2"><g id="Layer_1-2" data-name="Layer 1"><g id="Layer_2-2" data-name="Layer 2"><g id="Layer_1-2-2" data-name="Layer 1-2"><path class="cls-1" d="M90.59,42.17a10.29,10.29,0,0,0-.12-2.6c-.15-.7-.26-1.55-.37-2.34a11.87,11.87,0,0,1-.1-2.15,7.15,7.15,0,0,0-.22-1.53,4.61,4.61,0,0,0-.4-1.07c-.45.14-1.44-1.4-1.26.74,0,.63-.17,1-.61-.07-.59-1.32-.78-1-.71-.32C86.93,34,86.66,34,86.4,34s-.33-.33-.52-1.18c-.08-.35-.15-.72-.24-1.08l-.15-.52c-.07-.22-.14-.44-.2-.66A18,18,0,0,0,84.18,28c-.22-.45-.54-1-.7-1.34A34,34,0,0,0,78,18.46a14.83,14.83,0,0,0-2.14-2.05A13.41,13.41,0,0,0,73.57,15a9.08,9.08,0,0,1-1.06-.68,12.87,12.87,0,0,0-1.91-1c-.64-.26-1.27-.49-1.92-.81-.05,0-.23,0-.21,0,.58.66-1.51,0-1.68.33-.08.14-.21.17-.85-.23A3.37,3.37,0,0,0,64.43,12c-.32,0-.28.15-.37.25s0,.14.18.25.29.29.27.37l-.42-.11c0-.08-.11-.16-.1-.23s.18,0,.25,0a2.59,2.59,0,0,1-.85-.33c0-.17-.43-.34-1-.43-.28,0-.38.15-.55.11-.44-.09-.86-.26-1.33-.36a1,1,0,0,0-.54,0c-.09.11,0,.25-.1.36a1.55,1.55,0,0,1-.48.13,2.11,2.11,0,0,0-.19-.23,2.61,2.61,0,0,0-.23-.24h-.72c-.16,0-.29.15-.54.2A3.1,3.1,0,0,1,56,11.62c-.2-.06-1.09,0-1.3-.06a3.84,3.84,0,0,0-2.25.1,4.31,4.31,0,0,1-1.29.22H51c-.82-.37-1.37-.88-.93-1.86.07-.15-.16-.23-.35-.28a1.26,1.26,0,0,1-1-.91,1,1,0,0,1,.06-.25c.9-.32,1.47-1,2.4-1.2a12.7,12.7,0,0,0,2.25-.85c.06,0,0-.32,0-.52s.25-.26.4-.39.71-.55.51-.74a1.34,1.34,0,0,0-.54-.37,2.18,2.18,0,0,0-1.58.25L49.28,6c-.39.16-.8.26-1.17.44a7.15,7.15,0,0,0-1.21.67A12.58,12.58,0,0,1,44.61,8.4a3.92,3.92,0,0,1-2.29.6,5.17,5.17,0,0,0-1.47,0c-.52,0-1.17,0-1.17-.28s.91-.87,1.65-1.35a10.44,10.44,0,0,1,1.34-.85,4.43,4.43,0,0,0,1.7-1.2,5.82,5.82,0,0,1,.92-.64c.78-.64,2.05-1,2.78-1.6a4,4,0,0,1,1.4-.77A5.33,5.33,0,0,0,51.55,1c.4-.33.45-.54-.09-.51s-.84,0-.77-.25S50.2,0,49.76,0c-.62,0-.69.37-1.16.55a24.52,24.52,0,0,0-4.49,2.33,9.3,9.3,0,0,1-4.86,1.64,20.57,20.57,0,0,0-3.51,0c-.37,0-.82,0-.68-.23.28-.43-.06-.42-.45-.22-.76.39-.83.13-1.33.31s-1.19.55-1.11.15a.85.85,0,0,0-.31.09A5,5,0,0,1,30,5.39c-.39.15-1.18.68-1.25.64-.38-.21-1.26.47-1.94.79-.42.22-1.15.78-1.08.33,0,0-.37.17-.56.23A10.92,10.92,0,0,0,22.89,8.9c-.56.4-1.11.79-1.66,1.2s-1.09.72-1.62,1.11-1.22.95-1.79,1.33a9.27,9.27,0,0,0-1.76,1.23c-.52.49-1.12.68-1.68,1.6a9.6,9.6,0,0,1-1,.66c-.11.54-.63.74-1,1.13-.43.55-.92,1-1.36,1.61s-.78,1-1.15,1.48c-.51.67-.95,1.57-1.42,2.15s-.8,1.44-1.24,1.89c-.06.82-.7,1.31-1,2-.6,1.15-.89,2.3-1.46,3.62a11,11,0,0,0-.38,2.2,19.84,19.84,0,0,1-.44,2,3.85,3.85,0,0,1-.41.71c-.5,1-1,2-1.47,3A11.37,11.37,0,0,1,.81,40.13a4,4,0,0,0-.57,2c-.06.86-.19,1.6-.23,2.4a15,15,0,0,0,.15,2.76,12.15,12.15,0,0,1,.13,2A11.71,11.71,0,0,0,.49,52c.19,1,.43,2,.59,2.9a15.25,15.25,0,0,0,1.61,4c.54.9,1.1,1.77,1.66,2.65l.42.66c.13.21.34.48.51.72.35.49.71,1,1.07,1.47a53.83,53.83,0,0,0,4.81,5.42,20.59,20.59,0,0,0,1.63,1.47,8.73,8.73,0,0,0,1.35,1,12.1,12.1,0,0,1,1.79,1.1,8.66,8.66,0,0,1,1.24,1.18,2,2,0,0,0,.37.35,9.66,9.66,0,0,0,1.54,1c.92.39-.47-.48-.08-.42.07,0-.35-.31-.39-.41s0-.18.18-.13a3.36,3.36,0,0,1,.77.41A3.36,3.36,0,0,0,21,76.2a3.18,3.18,0,0,1,.61.31c.92.73,2,1.46,2.7,2a2.37,2.37,0,0,0,1.09.53,8.81,8.81,0,0,0,2.34.22c1.49.12,1.67,0,.7-.54-.65-.39-.59-.47.14-.46a12.68,12.68,0,0,1,2.45.42c.82.18,1.38.31,1.17.53s-.55.66-.86,1c-.06.07-.27.1-.41.15s-.21-.18-.19-.25a6.56,6.56,0,0,1,.2-1,2.39,2.39,0,0,0-.37-.15H30.4a.4.4,0,0,1-.08.29c-.23.33-.14.73-.47,1,.67.09,1.33.17,2,.24l2,.19a.45.45,0,0,1,.07-.34c.23-.24.5-.48.74-.72s0-.29.28-.31a13.07,13.07,0,0,1,1.77,0c.77,0,1.56.16,2.52.21a20.78,20.78,0,0,1,2.84.23,3,3,0,0,0,.73,0c.19-.18.42-.29,1.29-.28,1.38,0,2.83-.24,4.15-.18.7,0,1.38.07,2,.13.44,0,.47.19-.12.29a10.63,10.63,0,0,1-2.66.62,1.55,1.55,0,0,0-.42.12,3,3,0,0,1-1.76.18,8,8,0,0,0-1.47-.07,7.18,7.18,0,0,0-1.94.38L41.7,81c1.75,0,3.32.08,4.7.14l1.67-.45c.73-.2,1.58-.39,2.41-.58,1.26-.3,2.27-.33,2.47-.06s0,.3.12.44.22,0,.35,0a.66.66,0,0,0,.19-.09,2.37,2.37,0,0,0,.51-.49c.09-.16.22-.21.63-.2a3.64,3.64,0,0,0,.66,0,3.34,3.34,0,0,0,1-.1,3.24,3.24,0,0,0,.53-.45c.08-.12-.1-.19,0-.3a2.33,2.33,0,0,1,.66-.26,1,1,0,0,1,.42,0c.08.08,0,.19.11.28a1.11,1.11,0,0,0,.27.13,6,6,0,0,0,.56-.3c.29-.21.47-.39.81-.61L62,76.82c.42-.25.94-.61,1-.3a17.74,17.74,0,0,1,2.41-.16l2.15-1.1c-1,.1-1.89.19-2.86.26-.21,0-.19-.12-.31-.17s-.91.1-.06-.39a1.36,1.36,0,0,1,.47-.15c.16,0,.2.08.39,0,1-.29,1.45-.17,2.48-.49a4.74,4.74,0,0,1,1.68-.07h.12l.62-.34c.6-.32,1.21-.64,1.82-1-.93.18-1.86.31-3,.58-.1,0-.06-.08-.09-.12.19-.1.38-.23.56-.31a52.92,52.92,0,0,0,11-7.06,40.22,40.22,0,0,0,5.85-6.45,5.66,5.66,0,0,0,.73-1.2c.18-.38.35-.77.52-1.15L88,56c.33-.79.62-1.61,1-2.43a3.29,3.29,0,0,0,.2-.93c-.33,0,.21-1.64.32-2A7.34,7.34,0,0,0,90,48.8a2.53,2.53,0,0,0-.1-1.16A3,3,0,0,1,90,46,23.64,23.64,0,0,0,90.59,42.17ZM45.49,17.86a1.45,1.45,0,0,1-.41.1.18.18,0,0,1-.09-.2,1.93,1.93,0,0,1,.11-.34,3.84,3.84,0,0,1,.48,0,.71.71,0,0,1,.09.28A.46.46,0,0,1,45.49,17.86ZM41.82,47.1c.78.27,1.61.46,1.31.57a2.53,2.53,0,0,1-.55,0l-1-.22a10.63,10.63,0,0,1-1-.77C41,46.81,41.38,46.94,41.82,47.1ZM57.53,77.81l-.42-.15.3-.28a2.49,2.49,0,0,1,.77,0S57.76,77.68,57.53,77.81Zm7.8-4.76a21,21,0,0,0-2.9,2,8.32,8.32,0,0,1-.93.5c-.33.06-.66.13-.9.15a6.32,6.32,0,0,1-.87,0,2.54,2.54,0,0,0,0,.39.47.47,0,0,0,.09.28c.11.14-.14.28-.72.46l-1.1.33c-.89.28-1.35.22-1.5.06-.34-.38-.6-.79-.91-1.17a.5.5,0,0,0-.42-.14,24.28,24.28,0,0,1-3.51-.26c-1.11-.07-.92-.26.39-.69a15,15,0,0,1,1.72-.56,2.83,2.83,0,0,1,1,.16,6.67,6.67,0,0,0,1.84-.07c.55-.09,1.13-.17,1.68-.24a14.22,14.22,0,0,1,1.58-.2,29.74,29.74,0,0,0,5.29-1.17C65.78,72.61,65.9,72.74,65.33,73.05Zm1.29-29.73a.45.45,0,0,1-.25.32c-.05,0-.15-.19-.18-.32a5.37,5.37,0,0,1,0-.7l.08-.11s.22.12.31.29A.85.85,0,0,1,66.62,43.32Z"/><path class="cls-1" d="M51.19,53.35c.05,0,.1.11.16.16a2.83,2.83,0,0,0,.28-.2c.22-.19.54-.41.58-.58S52,52.4,52,52.24c-.21.15-.41.3-.63.44-.39.25-.19.41-.15.6A.09.09,0,0,0,51.19,53.35Z"/><path class="cls-1" d="M31.73,35.57a.8.8,0,0,0-.21-.15c-.13-.07-.2,0-.19.19s-.28.51,0,.57a2.43,2.43,0,0,1,.44.26.38.38,0,0,0,.15,0,.49.49,0,0,0,0-.17,1.85,1.85,0,0,0,0-.47C31.93,35.67,31.88,35.57,31.73,35.57Z"/><path class="cls-1" d="M34.18,31.72a3.17,3.17,0,0,0-.32.49l-.22-.06a.71.71,0,0,1-.09.24s.13.18.22.18a2.34,2.34,0,0,0,.45-.07,2.54,2.54,0,0,1,0-.39,1.57,1.57,0,0,1,.18-.44c.06-.15.12-.26.17-.39A5.13,5.13,0,0,1,34.18,31.72Z"/><path class="cls-1" d="M29.84,38.89,29.7,39c0,.13.09.25.14.37s.17.09.26,0,.19-.31.12-.3S30.1,38.64,29.84,38.89Z"/><path class="cls-1" d="M42.12,58c0,.06.27.14.42.15A9.67,9.67,0,0,0,43.62,58c-.58-.08-.74-.15-.91-.15S42.08,57.79,42.12,58Z"/><path class="cls-1" d="M57.26,55.35l.23.13c.07-.08.14-.15.13-.17,0-.18-.1-.35-.52-.26a1,1,0,0,0-.22.08C56.67,55.42,57.12,55.28,57.26,55.35Z"/><path class="cls-1" d="M63.27,36.74a2.08,2.08,0,0,0,.11-.48h-.17c-.2.08-.07.3-.07.45Z"/><path class="cls-1" d="M37.9,47.33a12.69,12.69,0,0,0,1.31,1.12c.11,0,.37.11.3,0s-.5-.42-.71-.63A8.12,8.12,0,0,1,37.9,47.33Z"/><path class="cls-1" d="M49.3,46.54c.14-.17.27-.33.43-.55-.25.09-.51.17-.76.24s-.42.35-.36.37A2,2,0,0,0,49.3,46.54Z"/><path class="cls-1" d="M55.59,55h-.35l-.24.2h.61S55.63,55,55.59,55Z"/><path class="cls-1" d="M82.18,65.4c.21-.19.44-.37.68-.62a4.67,4.67,0,0,0,.36-.51l-.83.62Z"/><path class="cls-1" d="M32.28,37.9c0,.13,0,.19-.05.24l.34-.12s0-.12-.06-.12Z"/><path class="cls-1" d="M51.19,40.87v.23l.25-.09c.1,0,0-.27,0-.27Z"/><path class="cls-1" d="M46.1,60.53l-.32.09.22.17a.38.38,0,0,0,.23-.15S46.14,60.57,46.1,60.53Z"/><path class="cls-1" d="M48.26,31.6h.23c.06,0,.1-.1.15-.15l-.15-.06A1.51,1.51,0,0,0,48.26,31.6Z"/><path class="cls-1" d="M26.31,42.71c.07,0,.12.1.15.09a.39.39,0,0,0,.17-.11s-.08-.09-.12-.08A.75.75,0,0,0,26.31,42.71Z"/><path class="cls-1" d="M35.48,42.58c.05.19.08.32.12.46s.27.22.35.21-.06-.24-.09-.37Z"/><path class="cls-1" d="M41,36c-.1.06-.31-.19-.29.38C40.83,36.32,41,36.55,41,36Z"/><path class="cls-1" d="M34.57,31.23s.12,0,.14-.05.17-.26.26-.39l-.24.15Z"/><path class="cls-1" d="M49.14,47.28l.41-.17a1.87,1.87,0,0,0,.26-.3l-.34.17A2.35,2.35,0,0,1,49.14,47.28Z"/><path class="cls-1" d="M49,48a3.15,3.15,0,0,0-.42.09,2.82,2.82,0,0,1-.42.23,4,4,0,0,0,.48-.09A1.69,1.69,0,0,0,49,48Z"/><path class="cls-1" d="M48,49.34l-.45.09a4.46,4.46,0,0,1-.5.22l.54-.07A2.75,2.75,0,0,0,48,49.34Z"/><path class="cls-1" d="M40.64,48.94c.15.1.3.2.45.28l.5.17a1.66,1.66,0,0,0-.3-.22S40.84,49,40.64,48.94Z"/><path class="cls-1" d="M36.19,45.29c0,.08.09.16.14.24l.4.33-.22-.33Z"/><path class="cls-1" d="M36.82,43.63l-.15-.31-.27-.23a1.47,1.47,0,0,0,.1.22Z"/><path class="cls-1" d="M49.39,60.54l.14.07.13-.08-.16-.06Z"/><path class="cls-1" d="M64,44.11A.21.21,0,0,0,64,44h-.09l.05.12Z"/><path class="cls-1" d="M43,57.68h.12l-.12-.1h-.11A.52.52,0,0,0,43,57.68Z"/><path class="cls-1" d="M35.13,58.21l.21.1h.12l-.2-.1Z"/><path class="cls-1" d="M31.16,57.3l.19.13h.12l-.18-.14Z"/><path class="cls-1" d="M28.14,39.05v.14h.06v-.14S28.14,39,28.14,39.05Z"/><path class="cls-1" d="M63.61,42.89v-.06l0,.12,0,.06A.24.24,0,0,0,63.61,42.89Z"/><path class="cls-1" d="M34.85,33v.14h.09V33Z"/><path class="cls-1" d="M55.9,53.31h-.2l-.08.1.21,0A.18.18,0,0,0,55.9,53.31Z"/><path class="cls-1" d="M41.92,49.63a8.12,8.12,0,0,0,.85.07,8.2,8.2,0,0,1-1.18-.31Z"/><path class="cls-1" d="M61.9,34.77l.14.07V34.7L62,34.63A.34.34,0,0,0,61.9,34.77Z"/><path class="cls-1" d="M52.82,51.54h-.2l-.08.09h.2A.51.51,0,0,1,52.82,51.54Z"/></g></g></g></g></svg>