<svg xmlns="http://www.w3.org/2000/svg" xmlns:xlink="http://www.w3.org/1999/xlink" viewBox="0 0 299.3 152.05"><defs><linearGradient id="linear-gradient" x1="178.58" y1="100.01" x2="263.4" y2="100.01" gradientUnits="userSpaceOnUse"><stop offset="0"/><stop offset=".18" stop-color="#242424"/><stop offset=".59" stop-color="#818181"/><stop offset="1" stop-color="#e4e4e4"/></linearGradient><linearGradient id="linear-gradient-2" x1="132.33" y1="101.87" x2="175.39" y2="101.87" xlink:href="#linear-gradient"/><style>.cls-2{fill:#009688}.cls-2,.cls-3{fill-rule:evenodd}.cls-7{fill:#007cac}</style></defs><g style="isolation:isolate"><g id="Layer_2" data-name="Layer 2"><g id="Layer_1-2" data-name="Layer 1"><g id="logo_-_curv" data-name="logo - curv"><path class="cls-2" d="M228.8 71.72c0-.1.09-.2.13-.31a3.37 3.37 0 01-.24.37s.04.08.11-.06zM228.93 71.41c.4-.6.83-1.27 1.29-2a19.84 19.84 0 001.56-3.41c.75-1.94 1.23-4.42 1.06-4.79s-.32.21-.61.8a33.57 33.57 0 01-.9 3.33 56.2 56.2 0 01-2.4 6.07z"/><path class="cls-2" d="M171.35 103.66c.9.06 1.75 0 2.6 0h1.06l1-.07 4.08-.31c1-.06 1.94-.17 2.85-.28s1.78-.21 2.64-.38l2.56-.44 2.65-.56c.77-.14 1.61-.37 2.47-.56l1.73-.42c-.12.42 0 .86-.13 1.27a.69.69 0 00.39.77 4.86 4.86 0 002.84-.4 6.19 6.19 0 001.26-.87c.42-.27.66-.84 1.33-.77a1.28 1.28 0 00.2-.36c.12-.34-.19-.09-.32-.11-.4-.06-.93 0-1.13-.27a1.09 1.09 0 00-.41-.31 6.22 6.22 0 012.11-.35c.19.07.07.24.18.34a6.48 6.48 0 00.76-.17 3.7 3.7 0 00.4-.2 11.39 11.39 0 001.16-.78 3.1 3.1 0 011.37-.63 13 13 0 001.37-.46c.7-.28 1.48-.61 2.23-.93a9.34 9.34 0 001.16-.93c.18-.18-.19-.08 0-.28s.88-.57 1.39-.88a5.76 5.76 0 01.88-.44c.17 0 .08.14.2.16a2.22 2.22 0 00.51-.14c.4-.32.89-.69 1.17-.94.6-.55 1-.92 1.65-1.56l2.1-2.1a14.22 14.22 0 001-1.14l1-1.19 1.11-1.34c.32-.4.57-.65.66-.55.48-.5.93-1 1.34-1.39s.83-.82 1.15-1.22l1.89-2.15c.62-.67 1.12-1.33 1.69-2 .28-.36.54-.76.83-1.18s.59-.85.86-1.35.23-.18.27-.09v.15c0 .08-.08.2-.14.33a6.53 6.53 0 01-.31.67c-.75 1.49-2.09 3.55-2.38 4.21-.19.5.21 0 .74-.84s1.11-1.88 1.44-2.48a23.49 23.49 0 001.2-2.17c.2-.4.4-.81.59-1.23s.34-.85.5-1.28c.26-.74.47-1.36.65-1.89a61.3 61.3 0 01-3.94 5.13c.09-.14.19-.28.28-.43a43.49 43.49 0 003.16-6c.27-.69.51-1.19.74-1.66a17.6 17.6 0 001-3.34 28.28 28.28 0 00.6-4.94s-.09-.18-.11 0a39.21 39.21 0 01-2.2 8.07l-.86 2c-.32.68-.64 1.37-1 2-.61 1.08-1 1.36-1.82 3a21.61 21.61 0 01-1.47 2.41l-.71 1-.35.51-.42.59c-1 1-2 1.86-3 2.73l-.3.45.3-.45c.08-.11.15-.23.22-.34s.3-.48.44-.75l1-1.75c.36-.63.76-1.31 1.14-2.07a.41.41 0 00.05-.09 19.93 19.93 0 001.56-1.7 20.4 20.4 0 001.62-2.06c.29-.51.65-1.08 1.08-1.74.17-.47.31-1 .45-1.4a38.85 38.85 0 001.32-5 1.84 1.84 0 01-.21.25c-.45.47-1.45 2.31-2.86 4.35-1.12 1.65-2.51 3.17-3.76 4.67 0 .06-.11.13-.16.19a.08.08 0 000-.06.63.63 0 00-.19 0 .92.92 0 000 .16h.1a27 27 0 01-2 2c-.47.42-1 .81-1.44 1.19a1.76 1.76 0 00-.62-.22c-.46 0-.86-.29-1.37-.32.89-.81 1.74-1.65 2.71-2.47 0-.12.17-.31.15-.37-.12-.39-.54-.45-1.65.08-.34.16-.74.32-.59.07a2.1 2.1 0 00.42-1.13.67.67 0 00.25.13c.14 0 .35-.14.53-.21q-.09-.17-.18-.3a2.61 2.61 0 00-1-1c-.19-.07-.14-.56.09-.73a6.08 6.08 0 01.64-.39 1.33 1.33 0 010 .39c0 .29.19.36.47.1a10.52 10.52 0 001.71-2.45 2.83 2.83 0 00.85-1.45 2 2 0 01.61-1.48 3.37 3.37 0 00.78-2.34 3.54 3.54 0 010-.73 2.74 2.74 0 01.2-.38 3.61 3.61 0 00.73-1.55v-.06c.06-.24.1-.48.15-.72.34-.05.7.13 1-.05s.31.7.26 1.31c-.1 1.17.09 1.46.77 1.14.21-.1.36-.28.51 0 .08.15.34.28.36.22a3 3 0 00.37-1.17c-.08-.67-.08-1 .37-.93v-.44c-.47 0-.28-.32-.07-.73a2.57 2.57 0 00.28-.91c-.41-.91.05-1 .3-1.19.1-.09.26.06.35 0a1.11 1.11 0 00.09-.6c0-.15-.18-.36-.25-.33s-.32.34-.5.46-.18-.12-.19-.21a1.65 1.65 0 010-.62c.07-.13.23-.07.33-.13a1.48 1.48 0 00.28-.28c-.07-.06-.13-.17-.2-.2-.29-.1-.49-.28-.47-1a6.28 6.28 0 01.09-1.42c.51-.09.15-1.21.38-1.64s.12-.67-.47-1.46c-.07-.09-.19-.22-.19-.27a12 12 0 010-2.24c.25-.73-.38-2-.07-2.54-.6-1.29-.12-1.78-.17-2.66a.54.54 0 00-.08-.21c-.85-1.27-.79-2.29-1.16-3.4-.31-.92 0-1.67-1-2.82a1.34 1.34 0 01-.24-.72l.13.24a43 43 0 013.16 7.31 48.74 48.74 0 012.29 13.16 41.11 41.11 0 01-.76 9.09 10.21 10.21 0 00.56-.87c.26-.47.51-1 .75-1.44l.49-1a33.24 33.24 0 00.54-3.48c.27-3 .46-4.73.47-7a7.35 7.35 0 010-1.26c.06-.28.4.87.52 2.26a44.2 44.2 0 01-.06 9.41c-.13 1-.26 2.18-.47 3.31-.07.37-.1.87-.18 1.31.06-.17.12-.29.18-.49.47-1.55.89-3.24 1.19-4.73.07-.36.14.06.21.12-.06.82-.2 1.89-.29 2.41-.2 1-.41 1.41-.64 2.4-.41 1.5-.69 2.23-.89 2.22s-.27.16-.52.81c-.16.4-.35 1-.64 1.84.11-.16.24-.33.34-.5 1.16-1.74 2.1-3.32 2.86-4.68.34-.59.63-1.14.93-1.68s.54-1.08.79-1.65a21.33 21.33 0 001.31-4c.21-.86.45-1.72.53-1.16.13 1.19.31.43.37-.71a15.1 15.1 0 01.17-2 6.54 6.54 0 00.15-1.34v-1.01-1c0-.54 0-.84.2-.52a4.17 4.17 0 000-.76c-.35-2.37-.37-3.26-.54-4.8a14.34 14.34 0 00-.43-2c-.16-.7-.31-1.29-.29-1.34a1.73 1.73 0 000-.75c-.06-.35-.19-.78-.32-1.25l-.47-1.46c-.07-.25-.15-.5-.23-.74s-.17-.46-.24-.68c-.39-1.07-1.29-3.11-.73-2.49a2.39 2.39 0 00-.17-.5l-.35-.84c-.16-.44-.36-.91-.59-1.4a16.57 16.57 0 00-.77-1.51c-.59-1-1.18-2.05-1.77-3-.9-1.37-1.75-2.74-2.72-4-.48-.63-.9-1.27-1.38-1.86l-1.42-1.77c-.52-.67-1.14-1.31-1.73-2s-1.11-1.2-1.68-1.74a30.3 30.3 0 00-3.43-3.35 26.08 26.08 0 00-4.08-3.18c-.2-.13-1.29-1-2-1.54a23.44 23.44 0 01-2.77-1.64c-1.29-.74-2.7-1.45-4.09-2.14-.58-.31-1.26-.57-1.92-.84s-1.33-.54-2-.79c-.91-.3-1.89-.57-2.83-.84-.47-.15-.94-.24-1.39-.35L197.67 1c-.39-.1-.81-.2-1.23-.27l-1.29-.17c-.84-.11-1.64-.26-2.29-.38a11.21 11.21 0 01-2.39 0c-.79-.13-1.57-.18-2.34-.18a52.5 52.5 0 00-7.94.8 19.34 19.34 0 00-1.91.52l-1.15.36-1.13.42-1.88.62-1.92.7c-.51.19-1 .19-1.46.34-1 .28-2 .55-2.94.86l-2.8.94c-1.71.67-3.24 1.2-4.25 1.51a12.48 12.48 0 00-3.19 1.69c-.62.44-1.22.81-1.77 1.21l-1.67 1.23c-.57.41-1.12.88-1.72 1.41l-.93.86a13 13 0 00-1 1c-.79.85-2 2-2.51 2.47a46.75 46.75 0 00-6.48 7.9 27.27 27.27 0 00-2 3.31c-.31.61-.63 1.24-.93 1.9s-.57 1.37-.85 2.09A59.3 59.3 0 00134.58 44c-.14 1-.33 2.07-.42 3.13s-.2 2.12-.26 3.19l-.09 3.25c0 1.14.06 2.3.1 3.46 0 .68.13 1.41.2 2.11 0 .37.09.68.14 1l.15 1a27.83 27.83 0 00.6 3 57 57 0 011.73 6.63 6.42 6.42 0 00.22.9 30.12 30.12 0 001.16 3.21c.81 1.66-.34-1.18 0-.58.07.1-.24-.82-.25-1s.06-.19.21.1.54 1.22.65 1.51c.17.48.31.92.5 1.39a13.64 13.64 0 00.8 1.54c.11.2.51 1 .6 1.17.83 2.06 1.9 4.24 2.77 5.9a10.55 10.55 0 001.37 2 26.41 26.41 0 003.45 3.38 12.58 12.58 0 002.14 1.71c.2.07-.13-.34-.89-1.27-1-1.26-.87-1.26.3-.26s2.57 2.27 4.24 3.53c.74.59 1.44 1 1.85 1.38s.6.51.38.5c-.61 0-1.13 0-1.76-.07a5.2 5.2 0 01-.82-.35c-.12-.17-.37-.43-.34-.48.13-.26.35-.47.48-.73a1.43 1.43 0 00-.24-.22l-.44-.38-.38-.26c-.09 0-.07.17-.19.17-.56 0-.17.91-1.66.17-1-.53-1.33-.37-1.67-.25s-.54.11-1.29-.29a18.87 18.87 0 00-2.14-1 17.2 17.2 0 001.25 1.33c.38.34.73.61 1.09.89a32.89 32.89 0 012.57 2.17c.8.53 1.59 1.07 2.44 1.56.42.25.83.49 1.25.72l1.28.67c.42.21.67.24.91.38.78.43 1.35.72 1.8.92s.78.29 1 .37c.57.17 1 .26 2 .64a14.05 14.05 0 002.92.87c.55.1.92.11 1.86.28s2.26.45 3.36.6 1.97.22 1.84.07zm12.37-51.8c.2.06.17.19 0 .39l-.17.18c0-.22-.05-.42-.08-.6a1 1 0 01.25.03zm-2.52 9.25zm33.52 21c-.59.44-1.16.88-1.75 1.31l-1.19.85a13.43 13.43 0 01-1.27-.6 2 2 0 00.37-.39c.2-.3.11-.56.22-.64l1.06-.79c.14 0 .28 0 .42.06.7.09 1.42.09 2.14.18zm8.28-3.18l-.74 1-1 1.3c-.35.42-.71.82-1.06 1.22s-.68.78-1 1.15c-.14.15-.29.29-.44.44l-.6.59-.65.6-.38.34c-.3.27-.6.53-.9.77-.78.42-1.61.88-1.41.51s-.49 0-1.44.51-.9.3 0-.49c.65-.61 1.26-1.19 2-1.85a2 2 0 00.42 0l.12-.36-.24.07c.54-.45 1.18-.94 2-1.51a26.9 26.9 0 002.2-1.78c.19-.08.39-.21.61-.31s.34-.46.44-.71l.28-.27h.11s0-.07.08-.15c.58-.54 1.23-1.11 1.88-1.7l.38-.36c-.17.36-.39.67-.66.99zm-5.4-5.43l-.38.12a6.29 6.29 0 01-1.71.26l.25-.21.2-.16a1.71 1.71 0 01.32 0c.15 0 .42-.32.51-.28a2.42 2.42 0 00.85.27zm-32.55-55.07c.16 0 .26-.15.2-.17A4.07 4.07 0 00184 18c-.69 0-1 0-1-.22h-.45c0 .24-.3.12-.71 0a3.32 3.32 0 00-.91-.18c-.88.22-.94 0-1.15-.14s.06-.14 0-.19a1.88 1.88 0 00-.57-.05c-.14 0-.34.09-.31.12a3.52 3.52 0 00.43.27s-.13.09-.21.09a2.6 2.6 0 01-.6 0c-.12 0 0-.11-.11-.17a1.37 1.37 0 00-.25-.15 1.83 1.83 0 00-.2.1c-.1.15-.3.24-.9.25a12.43 12.43 0 01-1.27 0c0-.28-1.05-.08-1.4-.22.66-.25 1.33-.48 2-.68 1.77-.53 2.61-.73 2.58-.91s.1-.51-2.32 0c-.65.17-1.14.26-1.11.16a5.39 5.39 0 012-.94c1.12-.39 1.55-.55 1.51-.65a2.29 2.29 0 00-1.16.06c-2.2.44-2.41.37-2.12 0s1.16-.78 1.08-1l.25-.1.62-.21c.48-.15 1.06-.3 1.43-.38.55-.13 1.19-.24 1.77-.32a11.86 11.86 0 011.37-.14c1.16 0 2.7-.11 4.29-.12h2.37c.77 0 1.53 0 2.21.09a23.67 23.67 0 014.79.77 34.08 34.08 0 016.36 2.37c.66.29 1.13.54 1.57.71a5.52 5.52 0 001.13.35A13 13 0 01209.6 19c.24.18 1 .66 1.61 1.08s1.24.78 1.25.63a13.52 13.52 0 011.31.88 72.28 72.28 0 016.35 5.84 19.6 19.6 0 011.51 1.84c.89 1.27 1.84 2.7 2.77 4.23-.08 0-.15-.06-.18 0s-.09.22-.13.36c.15 0 .3.12.34.07a.62.62 0 00.06-.26c.25.42.49.83.73 1.26-.43-.09.08.82.12 1.25s0 .79-.13.89-.43 0-.87-.32a5 5 0 00-.69-.35 13.32 13.32 0 00-2.69-.56c-.33-.09-.62-.57-1-.37-.84.46-1.66-.13-2.53-1.4a16.64 16.64 0 00-1.51-2.58 5.27 5.27 0 01-1.4-3.06 2.41 2.41 0 00-.83-1.64c-.7-.55-1.26-1-1.24-1.65a.56.56 0 00-.21-.39c-1.06-.41-1.37-1.5-2.33-1.9a.65.65 0 01-.27-.41 2.48 2.48 0 010-.82c.06-.23.29-.47-.25-.61-.15 0-.32.29-.42.48s.14.27.13.37c-.09.6-.37.65-1.28.51a3 3 0 00-1.28.09c-.18.05-.26.28-.38.43-.12-.35-.34-.37-.65-.27a.81.81 0 01-1-.35c-.27-.48-.66-.12-.9-.28a4.87 4.87 0 01-.75-.69h-.12c-.56-.54-1.32-.33-2-.61-.11-.05-.28.11-.43-.13a1.49 1.49 0 00-2-.67c-.47.15-.56.05-.48-.52a5.22 5.22 0 01-1-.34c-.54-.32-.41.42-.89.28a1.91 1.91 0 00-.94.19c-.43.13-1 .19-1.23.47a5.26 5.26 0 00-1.3-.24 2.69 2.69 0 01-.74-.23 2.06 2.06 0 00-.63-.27 11 11 0 00-.88-.16 10.79 10.79 0 00-1.08-.12H186.4l-.41-.53c-.18-.24-.2-.07-.31.06s-.26.34-.44.38h-.17a.71.71 0 01-.28-.21c.08-.16.11-.19.26-.22zm-3.36 31.68l-.27.08a.21.21 0 01.27-.08zm-.31.19l.41-.13-.37.08h-.06zm.27.08h.12v.09h-.13zm-.32.07l.23-.05v.08h-.21zm-4 2.88c0-.23-.12-.43 0-.66s-.16-.25-.22-.39a.47.47 0 010-.35s.16 0 .23-.07a4.15 4.15 0 01.92-.24 2.65 2.65 0 01.63 0l-.32.27-.25.21c-.08.08-.12.15-.19.23a3.78 3.78 0 00-.37.53l-.34.69c0 .06-.05.12-.07.17-.35-.13-.09-.27-.06-.39zm6.35-.19c0-.22 0-.43-.07-.62l.18-.12c.09-.08.11-.08.08 0a1.12 1.12 0 00-.05.13 1.1 1.1 0 000 .16l.23-.13.19-.15a.11.11 0 01.11 0v.08l-.19.15-.13.12h.12a2 2 0 01.29-.1 3.39 3.39 0 01.55 0c.11 0 .24 0 0 .15a4.68 4.68 0 01-1.24 1.09 2 2 0 00-.11-.76zm-.29.84a.27.27 0 01.17 0 .77.77 0 01-.16.07l-.05-.05zm-5.24 9.72l-.09-.06c-.09-.14-.19-.29-.28-.45l.12.09.06-.14v-.11l.41.19c.18.09.18-.33.4-.15a.17.17 0 00.19 0c-.11-.18-.24-.38 0-.5v-.12c-.29-.18-.24-.42-.31-.65s-.26-.37-.23-.42c.19-.28-.08-.51-.17-.76a1.15 1.15 0 01-.11-.31l.09-.12h.05v-.22a1.92 1.92 0 00-.36-.78l-.06-.13.09-.18a3.89 3.89 0 01.39-.28c.25-.18.48-.36.7-.55.53.07 1.21.1 1.75.2.31 0-.24.43.44.26.87-1.88 1.47-3 1.89-3.76a1 1 0 00.09-.18 3.91 3.91 0 00.58-.21c.25-.13.56-.27.84-.43a4 4 0 00.79-.56h.11a.15.15 0 010 .07 2 2 0 01-.85 1.38l-.18.15-.21.14a1 1 0 01-.44.2h-.09a.32.32 0 000 .09l-.13-.09h-.18c-.06 0 .16.2.23.27s0 .06.06.07l.15.11c-.25 0-.17.09 0 .21s.15.13 0 .15a2.55 2.55 0 00-.51.06c-.07 0-.12 0-.12.15s-.08.28-.37.2a.22.22 0 00-.2 0v.13c.32.23.52.65 1 .69.13 0 .35.12.36.31a.36.36 0 00.34.35.84.84 0 01.58.24c.15.11.11.17 0 .24s-.51.2-.65.43a.26.26 0 01-.16.15 5.45 5.45 0 01-1.58.34.74.74 0 00-.75.39.26.26 0 01-.17.09c-.24 0-.32.33-.54.41a.36.36 0 01.14.35h-.42a.53.53 0 00-.2-.1s-.06.07-.07.13h-.05l-1.45.38-.17.05a.1.1 0 00-.05 0l-.09.06c-.05 0-.07.07-.06.07H179.3l1.4-.13c.05.17.11.35.17.52h-.05c-.06-.13-.16-.13-.24 0s0 .2 0 .21-.18 0-.27 0a.2.2 0 000 .14 1.76 1.76 0 00.1.3.62.62 0 010 .18l-.1-.14-.1-.14s-.08.09-.09.15 0 .16 0 .23-.11.26-.31.14c0 0-.19.08-.24.05-.21-.12-.3 0-.38.14a.4.4 0 01-.1.12c.1.18-.06.34.16.57s.13.29-.12.34-.16.3-.12.47a1.57 1.57 0 01.05.3c-.18-.23-.48-.56-.84-1.08zm-1.19.79l-.16-.39s.07.06.08.08a.54.54 0 01.08.28zm1 2.43c-.16-.24-.3-.48-.4-.64a2.34 2.34 0 01-.24-.55v.06l-.05-.08v-.08a2.32 2.32 0 01-.34-.45l-.08-.31v-.17l-.2-.06s-.08-.05-.1-.05l-.24-.07a2.74 2.74 0 00.11-.57c0-.05.07-.09.11-.14a1.42 1.42 0 01.08.18v.12c0 .04 0 .2.05.21s.13 0 .16-.11a.07.07 0 000 .05v.22a.14.14 0 010 .06.59.59 0 000 .14.14.14 0 010-.06.19.19 0 000 .08h.16a.74.74 0 000 .26.11.11 0 00.2 0 .66.66 0 00.11.16 1 1 0 01-.1-.21.43.43 0 000-.07l.06-.07-.06.05a.32.32 0 01-.12-.1 13.59 13.59 0 001.44.29c0 .06-.09.1-.15.09a.26.26 0 000 .09 2.06 2.06 0 01.07.87l-.15-.14.14.18a2.9 2.9 0 000 .59c0 .25 0 .4-.09.14s-.16-.44-.23-.23a2.34 2.34 0 000 .55.19.19 0 000 .08h-.06l-.09-.12v-.05-.24l-.12-.17a1.81 1.81 0 00.04.27zm-13.93 12.6a.47.47 0 01.09-.06l-.09.14zm-.4.55l.33-.46a.88.88 0 00-.11.39l-.06.1v.1zM144.81 91.27c-.15-.1.06.22.17.53a6.48 6.48 0 00.74.52c.1.05.07 0 .09-.06-.36-.34-.87-.91-1-.99z"/><path class="cls-2" d="M225.33 77.08c-.08.21-.16.42-.27.73l.49-.61a3.28 3.28 0 00.21-.61 4.17 4.17 0 00-.43.49zM224.1 79.47c-.06.16-.13.31-.19.45l.29-.38a2.57 2.57 0 00.16-.41zM183.88 54.89h-.12.22zM177.17 65.19s-.08.09-.11.15 0 .06 0 .1a1.7 1.7 0 00.23-.17zM178.26 63.34a1.16 1.16 0 000 .18s.05.06.07.08l.13-.23zM178.2 65.27a1.15 1.15 0 000 .18h.1a1 1 0 000-.17s-.05.01-.1-.01zM177.73 65.39l-.06-.08a.35.35 0 00.05.08zM204.27 18.23a3.43 3.43 0 00.62-.44 3.86 3.86 0 00-.67-.52c-.14-.08-.38 0-.57 0-.65-.15-1.32-.3-1.94-.49s-1.25.22-2 .11a8.9 8.9 0 00-2.23-.11c-.4 0-.31-.24-.51-.28a.67.67 0 00-.87.51c0 .4.43.41.61.4.71-.08 1.52.42 2.2 0a.34.34 0 01.28 0 3.15 3.15 0 01.38.35 2.36 2.36 0 01.48-.35 1.43 1.43 0 01.55 0c.33 0 .9 0 1 .1.26.49.7.16 1 .36a1.24 1.24 0 001 .16c.16.48.46.3.67.2zM221.11 87c.11.26.47.33.73.49l.33-.89c.2-.56-.18-.65-.4-.86 0 0-.05-.06-.09-.08l-.33-.12c0 .14-.09.29-.12.41-.05.32-.23.76-.12 1.05zM222.82 74a9.14 9.14 0 00-.38 1.09 4.42 4.42 0 00.7-.71c.13-.23.39-.56.09-.66-.09-.02-.33.15-.41.28zM192.65 16.27a4.52 4.52 0 00-.53-.06v.24h.69c-.02-.04-.08-.15-.16-.18zM198.21 19.4a.73.73 0 00.32 0l-.28-.43-.38.19a1.36 1.36 0 00.34.24zM224.26 66.33l.15-.22a1.13 1.13 0 010-.15 1.3 1.3 0 00-.15.23s-.01.09 0 .14zM201.22 99.94h.23l.07-.13a1.6 1.6 0 00-.23 0s-.05.08-.07.13zM196.37 17.81l-.15.12.08.12c0-.05.1-.08.13-.13s-.04-.07-.06-.11zM221.39 88.85l.22-.12a1.1 1.1 0 000-.16l-.22.13v.15z"/><path class="cls-3" d="M279.78 129.36h-.1l.06.05zM282 130.71z"/><path class="cls-3" d="M288.09 133.66c-.7-.42-1.95-1.06-.8-.83.08 0-.13-.16-.33-.27-.49-.26-.22 0-.39-.09a4.67 4.67 0 00-.9-.28 4.68 4.68 0 01-.93-.39c-.2-.11-.57-.29-.59-.32s0-.12.15-.08c.34.08.8.24 1.16.34s.2-.16-.47-.49l-1.21-.58c-.38-.19-.51-.22-.5-.15s0 .06 0 0a3.72 3.72 0 01-.66-.28 4.57 4.57 0 01-.67-.41c-.29-.24-1.27-.75-.92-.74l.31.09a5.66 5.66 0 00.66.16c.12 0 .2 0 .18-.06s-.4-.23-.55-.33l-1-.69c.4.18.2-.07.88.3a4.17 4.17 0 00.75.26c.22.07.26 0-.13-.19s-.31-.23-.34-.3a1 1 0 00-.26-.22 4 4 0 01-1.2-.83 5.33 5.33 0 00-1.21-.88c-.47-.29-1.06-.58-1.42-.84a4.34 4.34 0 00-.86-.52c-.23-.11-.36-.11-.58-.23s-.73-.47-.92-.56a2.47 2.47 0 01-1.08-.77 4.77 4.77 0 00-.79-.72 8.86 8.86 0 01-1.27-1 3.94 3.94 0 00-.5-.33 4.56 4.56 0 01-1.38-1 3.89 3.89 0 00-1-.66 2.88 2.88 0 00-.93-.41c-.08 0-.29-.15-.45-.23 0 0-.06-.14 0-.15a.83.83 0 01.4.06 3.53 3.53 0 01.77.33c.34.19.11-.1.67.28s-.36-.36.23 0c.37.21.67.43 1 .64.16 0-.51-.42 0-.17s1 .45 1.72.84c.3.16.75.39.74.26s0-.12.7.28h-.14a.84.84 0 01-.2-.08 1 1 0 00.23.18l1.24.59c.31.15-.39-.36.11-.08h.08c-.56-.47-.08-.24.3-.06a2.9 2.9 0 00.84.37 8.24 8.24 0 00-.77-.62c-.71-.56-1.47-1.13-2.12-1.66a17.22 17.22 0 00-1.52-1.08.87.87 0 00-.27-.12s.07.12.17.19c.59.45 1.17.9 1.8 1.34.48.34.29.3.25.33s-.39-.2-.6-.34a4.39 4.39 0 01-.36-.28 10.51 10.51 0 00-1.88-1.16 4.5 4.5 0 01-.41-.25c-.38-.3-.55-.59-.2-.41.86.44.62.12.32-.2s-.08-.16.28.07a2.14 2.14 0 00.35.16c.1 0 .09 0-.21-.2l-.27-.26-.19-.17a1.67 1.67 0 01.19.12s0 .07.06.1h-.06a3.35 3.35 0 001.17.59c.49.19.11-.13.05-.28s-.44-.36-.69-.53c-.77-.53-1.42-1.08-2.26-1.6-.13-.09-.28-.24-.44-.37l-.68-.57c-.92-.72-2.07-1.49-2.94-2.22a9.35 9.35 0 00-.88-.55c-.75-.47-1.5-.86-2.3-1.37a5.61 5.61 0 00-.57-.33c-.28-.12-.6-.29-.93-.47l-1-.56c-.44-.22-.85-.45-1.31-.72s-.8-.39-1.22-.58a12.06 12.06 0 01-1.34-.65 2.46 2.46 0 01-.85-.77c0-.06-.11-.24.45.18a3.35 3.35 0 001 .51 1.1 1.1 0 00.24 0 3.54 3.54 0 00-.41-.26c-.19-.1-.4-.21-.57-.28a1.5 1.5 0 01-.59-.37l-.23-.24a2.29 2.29 0 00-.91-.62c-1.36-.57-3.07-1.46-4.39-2-.24-.11-.62-.32-.94-.49s-.56-.33-.68-.37a10 10 0 01-2.11-1.17c-.67-.41-.77-.51-.58-.54s.25.08.29.06c.23-.13 1.64.79 2.16.91a9.79 9.79 0 011.06.56c.87.47 1.5.7 1.6.57s-.32-.45-.73-.8c-2.73-1.34-5.39-2.84-8-4.4a164.3 164.3 0 01-15.56-10.88l-3.95-2.67c-.66-.44-1.22-.84-1.75-1.27l-.5-.36c-.09.1-1-.54-1.18-.49s-.39-.19-.58-.38l-.6-.61-.18-.17c.14.08.29.15.41.23a8.1 8.1 0 011.23.88l.41.25-.16-.18a13.7 13.7 0 00-1.39-1.18l-1.15-.85c-.44-.32.08-.12-.19-.31a10.72 10.72 0 01-1.17-.86l-.51-.44-.67-.51a1 1 0 01-.25-.27 6.07 6.07 0 00.88.27 5.24 5.24 0 01.86.28c-.8-.68-1.6-1.39-2.39-2.13h-.05c-2.8-1.94-5.45-4.07-8.06-6.26-3.19-2.69-6.35-5.44-9.66-8h-.08a15.6 15.6 0 01-1.48-1l-.67-.51-.67-.47c-.44-.31-.87-.62-1.25-.91l-1-.76c-.55-.35-1.1-.69-1.66-1a1.33 1.33 0 01-.19-.14l-.33-.13h-1.33l-1.53-.05h-1.63a8.68 8.68 0 00-.93.66 1.59 1.59 0 01-.31.49l-.23.3c-.08.1-.19.2-.27.3l-.23.25-.23.21-.09.16-.26.44a1.9 1.9 0 01-1.13 1.18 1.33 1.33 0 01-1.17-.23l-.33.18-.33.18h-.08-.09l-.24-.08h-.11a13.9 13.9 0 01-2.79.46h-.12l-.23.09h-.26l-.86.35h-.13l-.14.06-.29.1a3.7 3.7 0 00-.65.4 2.64 2.64 0 00-.37.31s.07 0 .38-.17c-.26.2-.51.43-.76.64l-.36.33c-.11.1-.25.23-.33.32a7.57 7.57 0 00-1 .74l-.69.49-.67.49c-.4.31-.69.61-.57.61.44 0-.13.83-.06 1.15 0 .13-.35.51-.92 1l-1.38 1.23a25 25 0 01-1.74 1.82 9.71 9.71 0 011.09-.77l.24-.19.63-.41a6.46 6.46 0 01-.57.66c-.72.63-1 1.12-1.58 1.62s-1.21 1.23-1.87 1.83l-2 1.89-3.56 3.54a12 12 0 00-.93 1 29.44 29.44 0 01-2.7 2.64 6.92 6.92 0 00-.78.59 7.17 7.17 0 01-1.06.87c-.39.27-.7.49-.35 0 .07-.1.08-.25-.36.16s-1.09.82-.91.52-.08-.12-.26 0a3.49 3.49 0 01-.92.71c-.09 0-.47.38-.66.51s-.37.21-.59.36a5.62 5.62 0 00-.47.38 4.69 4.69 0 01-.44.37 3.33 3.33 0 00-1 .82 16.48 16.48 0 00-1.34 1.24c-.42.54-.63.54-1 .87h-.15c-.59.58-1.21 1.13-1.74 1.74a6.32 6.32 0 01-1 1.07c-.17.14-.48.55-.75.82s-.65.58-1 .89-.37.39-.08.18c.07-.05.08 0 0 .13a10.35 10.35 0 01-1.25 1.5 5.8 5.8 0 00-.57.62.85.85 0 00-.16.39c0 .06.07 0 .08.09s-.21.32-.42.49a1.16 1.16 0 00-.36.38c-.05.11-.14.28-.05.23.36-.24.49-.19.28.13a7.18 7.18 0 01-1.14 1.13c-.54.51-1.06.93-1.58 1.39l-1 .89-.25.27a1 1 0 00-.15.19c.09.08-.62.86-.5.88s.63-.55 1-.86.52-.28 1-.73a4 4 0 01.78-.53c.14-.08.34-.18.28-.09a4 4 0 01-.66.88l-.71.69c-.9.91-1.58 1.37-2.38 2.08l-.3.26.32-.36.75-.78c.23-.23.43-.45.35-.47s0-.15-.33.18-.85.78-1.26 1.13L127 108c-.45.4-.83.82-1.21 1.14s-.66.43-1.05.82a22.63 22.63 0 01-1.89 1.65c-.27.22-.49.46-.73.65s-.15 0-.62.43a19.82 19.82 0 01-2.71 2.24 4.65 4.65 0 00-.57.44c-1 1-2 1.66-3 2.52-.45.39-.91.74-1.36 1.09l-1.35 1c-.78.57-1.52 1-2.27 1.54s-1.28.88-1.92 1.3-1.27.84-1.91 1.2-1.18.72-1.78 1.11c-.18.11-.38.29-.58.43a1.6 1.6 0 00.41-.13c.18-.09.49-.34.65-.42a10.54 10.54 0 001.71-1c.64-.47 1.11-.69 1.76-1.15.45-.32 1-.72 1.48-1s1-.74 1.44-1a32.22 32.22 0 002.82-2.05c.41-.3.83-.64 1.2-.91a3.37 3.37 0 01.91-.51s.09 0 0 .06a2.41 2.41 0 01-.32.32c-.53.39-1 .79-1.55 1.16a2.53 2.53 0 00-.26.22.2.2 0 00.16 0c.64-.44 1.26-.93 1.9-1.41.49-.37.95-.69 1.34-1a5.5 5.5 0 011-.53c.27-.1.89-.61 1-.54s.59-.3.9-.47a16.68 16.68 0 001.94-1.38.75.75 0 01.18-.09l-.22.23-.26.25c-.07.07-.12.14-.19.22a1.06 1.06 0 00.21-.16c.25-.24.53-.49.75-.72.73-.79 1.48-1.6 2.29-2.4a15.55 15.55 0 001.45-1.57 2.15 2.15 0 01.37-.37 12.14 12.14 0 011.14-1 8.28 8.28 0 001.25-1.09l-.56.41a7.17 7.17 0 01-.6.45c-.16.1-.37.19-.3.07a2.71 2.71 0 01.63-.59l.38-.39c1.41-1.35 2.77-2.6 4-3.57a3.93 3.93 0 01.66-.51 18.23 18.23 0 001.72-1.31c.82-.66 1.7-1.39 2.07-1.75.61-.57.79-.63.85-.52s.22-.09.53-.45c.64-.73.65-.74 1-.9l.4-.24c.41-.38.82-.77 1.23-1.13s.61-.41.54-.26a3.17 3.17 0 01-.64.68 29.61 29.61 0 01-2.27 2l-1.74 1.58-1.67 1.5c-.72.65-1.41 1.2-2.12 1.83L131 106.4l-1.72 1.51a4 4 0 00-.36.37c-.09.12-.14.25-.09.22a3.44 3.44 0 00.53-.42c.61-.62 1.07-.93 1.62-1.43s.93-.77 1.35-1.2c.83-.85 1.48-1.35 2.22-2 .27-.24.5-.38.76-.63.73-.71 1.43-1.32 2.1-1.9.34-.29.66-.58 1-.86l1.05-.86c.85-.72 1.62-1.28 2.48-2s1.81-1.54 2.71-2.3c1.07-.91 2.07-1.71 3.15-2.63.36-.31.74-.55 1-.84.86-.87 1.38-1.09 2.15-1.82a.13.13 0 01.14 0 1.57 1.57 0 01-.18.22l-.38.37c-.39.24-.88.84-1.22 1.08a9.81 9.81 0 00-1.12 1.11 10.89 10.89 0 00-1 1 14.08 14.08 0 01-1.51 1.47c-.3.27-.59.52-.86.8-1 1-2 1.75-3 2.73-.81.6-1.74 1.51-2.63 2.33a17.63 17.63 0 00-2.36 2.6c0 .2.49-.21.81-.5.87-.83 1.73-1.63 2.62-2.44l3-2.77c1.16-1.09 2.3-2.12 3.43-3.13 1.3-1.14 2.56-2.26 3.8-3.23a35.53 35.53 0 003.11-2.67 3.13 3.13 0 01.45-.34c.08-.06.17-.1.16-.05a2.27 2.27 0 01-.26.3c-.67.65-1.33 1.27-2 1.9s-1.33 1.22-2 1.78a8.35 8.35 0 00-1 1.06c-.07.15.28-.07.71-.44l.38-.35c.76-.76 1.48-1.34 2.19-1.95s1.2-1 1.85-1.65a44.3 44.3 0 013.92-3.37c.12-.09.57-.42.39-.08s-.23.67 0 .68c.05 0 .06.07.17 0 .82-.62 1-.44 1.9-1.15.07 0 .14-.06.12 0-.31.4 0 .17.27 0a4.17 4.17 0 00.79-.78 2.17 2.17 0 01.67-.7c.23-.14-.12.25-.24.43a6.61 6.61 0 01-.62.68c-.41.42-.74.84-1.16 1.26a13.06 13.06 0 01-1.23 1.38l-.06.07c.56-.39 0 .19-.13.37-.28.41-.19.43.33 0 .32-.27.7-.57 1-.85a17.48 17.48 0 001.33-1.47c.44-.58 1.23-1.44 1.1-1.61 0 0 .07-.1.1-.16s.14-.08.15-.07 0 .14.13.08.42-.31.57-.4a17.46 17.46 0 002.4-1.95c.58-.53 1.06-1.17 1.61-1.76s.1-.46.8-1.15c0 0 0-.07-.06 0l-.5.19c-.25.09-.21 0 .27-.41s1.11-1 1.66-1.44a2.68 2.68 0 00.28-.3 2.23 2.23 0 00-.24.19c-.72.68-1.31 1-2 1.6a8.14 8.14 0 01-1.48 1c-.33.21-.17-.11.25-.56s.88-.92 1.27-1.36a6.93 6.93 0 011.78-1.58 31.43 31.43 0 003.09-2.4 13.35 13.35 0 012.44-1.88 3.6 3.6 0 01.43-.32 2.49 2.49 0 01.31-.17c.18-.08.35-.13.55-.24.59-.27.47 0 .48.09s.07.18.2.19a1.63 1.63 0 00.62 0h.25a11 11 0 001.4-.37 8.46 8.46 0 002.12-1.15l.15-.07c.18-.11.32-.2.47-.31s.23-.19.33-.28a2.47 2.47 0 00.46-.56c.2-.35.26-.6.07-.61s-.18 0 .05-.27a5.76 5.76 0 00.35-.51 5.93 5.93 0 00.29-.56 3.62 3.62 0 00.2-.45c.06-.15.14-.29.19-.45s.09-.27.13-.44l.09-.53h.07l.12.08.26.15.51.31a3.71 3.71 0 01.88.64 3 3 0 001 .7 1.46 1.46 0 01.29.19 1 1 0 01.25.24 3.11 3.11 0 00.43.65.1.1 0 010 .14c-.17.15-.13.28.28.68s.77.73 1.17 1.1l.59.56.29.28.07.07.1.09.22.19a4.3 4.3 0 011.23 1.15 13.61 13.61 0 001.44 1.46c.56.49 1 1 1.57 1.43l.19.17c.05 0 .13.06.14 0a.25.25 0 000-.21c-.09-.23.55 0 1.09.51s1 .78 1.38 1.14a5.4 5.4 0 001.13.81 6.86 6.86 0 011.73 1.23 3 3 0 001 .65c.18-.07 1.09.48 1 .14 0-.1.21 0 .39.06a3.26 3.26 0 01.42.26c.26.21.49.42.73.62l.05-.07s-.56-.49 0-.1a8.61 8.61 0 001.19.85c.28 0-.93-.71-.93-.87l-.27-.22c-.47-.38-.13-.35-.8-.83a5.71 5.71 0 01.6.22c.29.14.79.47.94.5a7.16 7.16 0 011 .56c.55.3.89.5 1.23.73s.64.52 1.13 1c.18.16.42.35.65.52l1.2.89c.32.24.26.23.06.14s-.09 0-.17 0-.65-.36 0 .16l1 .72 1 .66a2.06 2.06 0 01.32.25c-.08.1-.06.28-.36.22-.62-.13-1.08-.15-1.17.09 0 .06 0 .16-.19.08-.45-.19-.67-.25-1-.36a1.46 1.46 0 01-.3-.16c-.56-.44-.87-.49-1.2-.74-.6-.46-.33-.06-.88-.48-.34-.27-.76-.52-1.12-.76l-.39-.26c-.25-.13-.51-.28-.24 0 .12.13.22.24.37.38.46.45.62.68.46.74s-.1.1 0 .24c.29.44.64.93 1 1.41.07.1.18.22.27.33s.16 0 .18-.05-.15-.19-.14-.23a.88.88 0 01.19-.4 1.43 1.43 0 01.47.25 1.58 1.58 0 01.37.36c0 .1 0 .22-.16.13s-.1 0 0 .17a2.09 2.09 0 00.22.2 8.82 8.82 0 011.08.9c.43.37.49.49 0 .3 0 0 0 .07.07.1 1 .74.32.36 0 .21l-.49-.21c-.23-.09 0 .13.35.41.82.64 1.74 1.22 2.64 1.82.66.43.65.42.28.34a.15.15 0 00-.16 0c-.09.06.17.33.44.6s.54.55.51.66-.12.09 0 .23.56.4.85.58c1 .6 1.79 1.26 2.72 1.88.56.37.59.41.3.33s-.51-.2-.47-.13a6.75 6.75 0 00.54.54 5.11 5.11 0 00.88.67c.46.3.92.6 1.37.91s1.06.84.74.75 0 .09.24.25.64.38 1 .58a21.39 21.39 0 002.73 1.54c.22.09.7.4 1.07.62 1.18.7 2.37 1.43 3.54 2.11.54.31 1.06.62 1.6 1 .89.58 1.75 1.17 2.62 1.77a47.42 47.42 0 004.32 2.67 5.58 5.58 0 011.22.84 2.36 2.36 0 001 .86c-.5-.21-.19 0 .17.22s.82.45.76.56a1.41 1.41 0 00.23.18l.4.26c.23.14.46.24.69.36l.69.36a.8.8 0 00.16.25 2.25 2.25 0 00.41.32l1.26.79.1.08a.09.09 0 01-.1 0c-.28-.15-.58-.29-.85-.46-1.13-.7-2.25-1.29-3.38-2l-.94-.59c-.28-.19-.53-.39-.81-.57s-.65-.36-.74-.44a5.83 5.83 0 00-1.36-.85c0 .1-.09.1-.61-.25a2.71 2.71 0 00-.42-.2c.09.09.26.22.26.25s-.09.14-.11.22l.26.19c1 .56 1.95 1.13 3 1.78a5.48 5.48 0 011.13.81 5.6 5.6 0 00.91.7 5.53 5.53 0 001.15.72c.37.3.74.61 1.11.9.12.09.19.18.32.27a3.39 3.39 0 00.41.23c.06 0-.41-.33 0-.12l.4.19.43.22a3.11 3.11 0 01.44.3c.26.21 0 .08-.2-.06l-.29-.14a1.14 1.14 0 00.16.14c.32.2.73.46 1 .57.74.35 1.58.82 2.35 1.21.41.21.87.48 1.31.72a7.44 7.44 0 001.11.48l.29.16a7.87 7.87 0 001 .49 3.8 3.8 0 01.91.58 3 3 0 00.36.18c.27.09 1 .62 1 .44.47.28.95.54 1.42.84a15.88 15.88 0 001.7 1l.91.49c.3.17.61.34.91.49.52.26 1.14.84 1.86 1.3a6.09 6.09 0 001.11.73l.34.26c-.12.07.33.34.64.55a9.41 9.41 0 011.41 1 10.74 10.74 0 011.73 1.17 9.83 9.83 0 001.31.81c.39.19.89.49 1.35.75l.36.19-.41-.29-.77-.59h-.17l-.75-.6.27.1c-.17-.12-.42-.3-.51-.35a8.11 8.11 0 01-1.46-1 2.25 2.25 0 00.26 0c.05 0 0 0-.08-.16a4.72 4.72 0 01-.42-.33l.38.23a1.54 1.54 0 01.19.17l-.15-.07c.34.23.54.37.75.5l.23.1.07.11c.27.18.67.41.6.49l.23.18c0-.19.79.41 1.14.61 1.1.62 2.05 1 3.17 1.65.1.06.11 0 .17 0l-.16-.1c-.84-.56-.83-.56-.7-.67s0-.1-.32-.24l-1.53-.75a32 32 0 01-3.94-2.35c-.11-.08-.32-.28-.29-.28.32.08 0-.33.7 0 .84.47 1.18.5 1.87.84a1 1 0 00.3.08l-.51-.38c-.19-.14-.47-.31-.57-.4a4.36 4.36 0 00-1.4-.89l-.83-.38c-.29-.15-.79-.4-.86-.46-.79-.71-.82-.44-1.23-.69l-.24-.11a4.17 4.17 0 01-.9-.6c-.11-.15.23 0 .47.15 1.4.8 2.4 1.21 3.53 1.74a.51.51 0 00.19 0c-.6-.51.36.06.23-.12.45.26.86.46 1.38.82.34.24.72.43 1 .6a22.07 22.07 0 013 2.06 10.57 10.57 0 001.89 1.12 2.85 2.85 0 01.58.29c.52.4 1.28.81 1.77 1.26a16.56 16.56 0 002.92 1.86l2.35 1.05c.39.16.76.33 1.13.47s.74.26 1.1.37c.2.07.46.13.43.08-.16-.27.49-.06 1.18.18.5.18.35 0 .42 0s1.2.43 1.22.33.66.05 1.55.43a1.5 1.5 0 00.32.1l-.31-.15c-.25-.12-.83-.34-.64-.33s.22-.18 1.08.12c.45-.05.36-.11-.08-.39zm-13.42-11.85c.14.06.2.11.19.11l-.16-.06-.12-.11c.07.03.13.06.09.06zM271.6 120c0 .05.13.12.12.13a.89.89 0 01-.19 0l-.14-.16zm0-1.88a.38.38 0 00.09.09l-.21-.12s-.06 0-.09-.08zm-1 .72l.09.1-.12-.05-.07-.1s.09-.01.12.01zm-1.22-.55l.32.26a1.46 1.46 0 01-.25-.13l-.36-.28zM145.66 93.65a.34.34 0 01-.11 0l.07-.09a.34.34 0 01.11 0zm4.4-4.91a1.5 1.5 0 01-.57.74 3 3 0 00-.26.25 13.33 13.33 0 01-2.06 1.7c-.12.08-.33.29-.46.39s-.41.35-.18 0a7.52 7.52 0 012.15-2.13c.31-.23.69-.54 1-.75s.53-.45.38-.2zm2.3-4a8.81 8.81 0 00-.74 1.22c-.06.09-.2.26-.18.27.21.1-.45.72-.94 1.19s-.58.56-.79.77l-.2.13c.49-.59.29-.62.48-1s.23-.42 1.13-1.21c.1-.09.22-.24.33-.36l-.17.11-.58.47c-.51.4-.51.34 0-.25.67-.78.68-.81.06-.43a2 2 0 01-.24.13s0-.07.05-.11a3.54 3.54 0 01.34-.34 6.18 6.18 0 00.65-.31c.18-.12.12.11.61-.42.06.04.31-.04.19.12zm1.28 2.19a4.51 4.51 0 01-.41.43c-.26.17-.47.29-.69.41v-.08l1.34-1.12c-.11.16-.15.24-.24.34zm.87-.55s-.16.11-.15.08.14-.3.22-.46l.68-.53c.05.05-.33.53-.75.89zm6.34-4.09c-.1.09-.24.18-.35.28l-.77.69c.18-.21.35-.42.55-.64a3.94 3.94 0 01.95-.8h.07zm9.5-17.12c-.24.29-.58.62-.86.94a2.81 2.81 0 01-.65.64c-.15.11-.18 0-.24 0a4 4 0 01.09-.57 3.91 3.91 0 01.44-.41c.22-.17.44-.31.69-.49.74-.51.93-.58.53-.13zm17.15.83h-.23a4.67 4.67 0 00-.36-.3 4.21 4.21 0 01.47.19l.12.11.1.08a.18.18 0 01-.1-.08zm51.78 37.58l.08.08h-.11a.39.39 0 01-.1-.08zm-3.91-4.26a2 2 0 00.48.23c.06-.16.59.18 1.23.6h.07l-.39-.3c.2.12.44.25.57.35a3.42 3.42 0 01.52.47c0 .11 0 .13.44.45.26.19.21.29-.18.09s-1-.51-1.2-.64c-1.94-1.12-2.09-1.19-2.24-1.25a1 1 0 01-.11-.19l.28.16c.11.07.2.15.33.24a5.8 5.8 0 001.25.62l-.25-.21-.39-.2-1.38-.74-.09-.08c.07-.16.51.08 1.06.36zm.63 1.57c-.69-.47-.88-.73-1-.92v-.06l.28.16c.16.13.3.27.45.37.88.54.63.52.59.6a6 6 0 00.57.52c.26.18.6.38.91.58l.25.19-.33-.16-.69-.39c-.72-.46-.88-.61-1.03-.93zm.55 1.06l-.42-.23-.09-.12.26.14a2.76 2.76 0 01.25.17zm-1.25-2h.14l.18.15h-.1zm1.26.83h.12l.09.08h-.12zm-1.85-.72h-.12l-.09-.08h.12zm-3.57-1.79a24.62 24.62 0 012 1.52c.37.28.64.54 1 .82s.82.47 1.25.76l.42.29c-.15-.08-.35-.2-.43-.23a5.27 5.27 0 01-1.38-.68c-.26-.16-.52-.27-.78-.4a14 14 0 01-2.17-1.35c-.19-.15-.46-.33-.7-.49s-.47-.32-.43-.38.24 0 .67.28a1.49 1.49 0 00.65.35c.16 0 0-.12-.35-.33-.11-.07-.19-.2-.3-.27-.61-.39-.45-.39-.38-.42s.4.22.63.36zM220.4 89.9c.07.07.2.17.3.25-.14-.08-.28-.16-.41-.25-.65-.37-1.07-.79-1.67-1.17a15.43 15.43 0 01-1.51-1.08l-.54-.39.69.42a7.44 7.44 0 01.69.47c.67.6 1.81 1.16 2.45 1.75zm-7.32-9l.5.37 2.17 1.69.63.47c.08.06.19.11.28.17a.36.36 0 00-.11-.15c-.86-.64-1.14-1.06-2.13-1.75-.41-.28-.48-.4-.14-.29.1 0 .05-.1-.08-.21-.5-.39-.29-.39-.46-.6s.1-.2.87.29l.61.4 2.11 1.46.25.19 1.42 1.24c.13.11.28.28.23.26-.78-.32.07.31.34.6.1.1.16.19.24.28-.47-.27.06.25-.57-.15-.22-.14-.41-.26-.2-.06a4.78 4.78 0 01.55.52c.08.11 0 .11-.06.15-.24-.15-.48-.31-.7-.47a2.81 2.81 0 01-.3-.26c-.23-.24-.34-.28-.39-.24s-.53-.11-1.1-.45c-.28-.16-.7-.46-.83-.51s-.11.07-.14.12 0 .15-.1.11-.55-.21-.83-.32-.27-.28-.4-.43a1.17 1.17 0 00-.16-.15c-.77-.54-.4-.37 0-.21a6.6 6.6 0 00.68.28c.1 0 0-.06.05-.1a4.05 4.05 0 01-.44-.25c-.57-.44-1.12-.87-1.65-1.3-.12-.09-.19-.2-.17-.23s.14-.16-.11-.48c-.09-.07.06-.01.14-.01zm-2.34 1.64l-1.33-1c-.28-.22-.6-.44-.86-.65-1.43-1.17-2-1.8-2-2.17h.13a8.63 8.63 0 01.77.52c.38.3.08.18.13.28a1.91 1.91 0 00.55.68 26.07 26.07 0 002.8 2.37 4.45 4.45 0 01.38.36c-.31-.21-.44-.31-.57-.41zm1.41.78a1.92 1.92 0 01-.44-.36 4.7 4.7 0 00-.35-.49 2 2 0 00-.73-.54c-.25-.12 0 .08 0 .13s-.07.09-.47-.22-.55-.45-.35-.45c0 0 .25 0-.24-.28s-.65-.49-.54-.54.54.31.8.51.63.42.6.2h.11l1.08.48a15.06 15.06 0 011.77 1.15s.06.09 0 .09-.16-.08-.23-.1c-.47-.17-.49-.11 0 .28s1.24 1 1.92 1.57c.41.32.3.28.08.2a19.16 19.16 0 01-3.01-1.65zm1.42 5.09c-.58-.31-.57-.11-.93-.31-.67-.36-1.06-.49-1.63-.77a5.35 5.35 0 01-1-.84 4.29 4.29 0 00-.24-.48c0-.06-.27-.26 0-.1s.63.31.23 0a1.54 1.54 0 01.52.19 22.63 22.63 0 013 2.13l.18.19s-.11-.02-.13-.03zm-1-1.3c-.22-.2-.26-.32-.49-.51s-.63-.46-.88-.66-.18-.23-.1-.21a7.72 7.72 0 012.48 1.43c.67.51 1.26 1 1.08 1.09 0 0 .27.27.43.42h-.1a15.41 15.41 0 01-2.46-1.58zm4.36 5.12l-1.48-.72a2.75 2.75 0 01-.41-.24c-.09-.07-.12-.14-.11-.17s.26-.06.92.34l.75.5c.1.07.21.13.3.2l.23.19a1.24 1.24 0 01-.24-.12zm.92-3c-.77-.45-1.54-.88-2.29-1.3l-2.3-1.27a.55.55 0 01-.14-.09l-.89-.59c.19.07.36.12.58.22s.43.23.66.36c-.08-.09-.23-.23-.21-.25s.14 0 .27 0 .35.13.46.16c.46.09.45.08 1.49.77a4.23 4.23 0 01.41.33 8.49 8.49 0 002 1.52c.13.09.25.19.37.29a2.84 2.84 0 01-.45-.14zm1.13.18c-.24-.13-.58-.36-.87-.55l-.54-.39.41.17c.43.2.1 0-.15-.19l-.11-.08h.06l1.53 1a14.91 14.91 0 011.49 1.05c.64.35 1.38.9 2 1.21s1.28.88 1.81 1.1a1.23 1.23 0 01.23.28s-.2-.07-.2 0A12.12 12.12 0 00226 94.4a1.72 1.72 0 00.55.4c.21.09.29.12.09-.07s-.1-.2-.14-.29 0-.08.24.1.6.4.63.31.23 0 .36.09c.74.46 1.37.79 2.06 1.18a8.87 8.87 0 011 .66c.28.28-.41-.14-.47-.11s-1.16-.45-1-.13c0 .11-.2-.05-.44-.18-1-.51-2-1.15-3.08-1.82a7 7 0 00-1.12-.67c-.86-.65-1.88-1.3-2.67-1.94-.17-.14-.33-.31-.31-.35s-.4-.46-.7-.74c-.08-.07-.2-.16-.29-.25l.42.25.11.06a.53.53 0 00-.13-.13c-.79-.46-1.46-.98-2.17-1.35zm7.02 5.68c-.74-.41-1.44-.75-2.23-1.21l-.82-.45c-.41-.31-.89-.55-.9-.71s-.36-.37.28 0a6.07 6.07 0 011.18.54 12.93 12.93 0 011.21.7c1.23.76 2.49 1.59 3.67 2.21l.29.2h-.13c-.83-.37-1.55-.72-2.55-1.28zm.1.84a10.61 10.61 0 01-1.76-1c-.4-.25-.56-.39-.36-.36s.28.06.32 0 .2-.08.68.18c.22.12.46.25.64.33.36.16.38.21.37.29l.14.14c.81.78.81.78-.03.42zm2.8 2.86l.38.29c-.18-.1-.37-.21-.55-.33s-.25-.18-.37-.27zM221 93l-.13-.05s-.06-.08-.07-.1.07 0 .11 0zm2.32 3.16a12.17 12.17 0 01-1.54-1l-.75-.5a.24.24 0 01-.08-.1h.11c.73.49 1.37.81 2.05 1.22.2.12.56.34.55.42s-.24.03-.37-.03zm2.26.92a13.46 13.46 0 01-2.26-1.35c-.25-.19-.8-.61-1.35-1s.21-.07-.52-.47a7.42 7.42 0 01-.79-.58c-.12-.1-.26-.25-.21-.24a2.07 2.07 0 01.47.22c.46.3 1 .62 1.36.91 1 .76 2.1 1.5 3.19 2.25a2.56 2.56 0 01.29.24s-.11.07-.21.03zm8.33 5.33s-.14-.17-.1-.15.3.16.46.25l.1.1zm1.33.66l-.09-.08a.27.27 0 01.12 0l.1.09zm1 .54s-.1-.07-.09-.08h.12l.1.09zm1 .55c-.18-.12-.33-.25-.51-.39l.26.09.67.55zm1.74.9l-.26-.13-.32-.2a1.43 1.43 0 01.29.08 2.84 2.84 0 01.38.24l.28.21zm1 .3l-.73-.31c-.06 0-.19-.13-.3-.2s-.1-.1-.08-.09l.86.38.27.19s0 .06-.09.04zm1.24.58l-.09-.08.21.11.1.09zm1 .38a10.84 10.84 0 00-1.67-.94c-.39-.13-1-.45-1.34-.59s-1.11-.56-1.14-.4a5.2 5.2 0 01-1.2-.66 4.61 4.61 0 00-1.31-.78l-.48-.21a19.09 19.09 0 01-1.8-.91 6.34 6.34 0 00-1.78-.88c-.07 0-.7-.39-1-.57a2.29 2.29 0 00-.53-.22c-.14 0 .19.2.42.36.07.06.11.14.09.15s.07.18.46.43a4.67 4.67 0 01.48.37c.21.17.29.28 0 .16a11.72 11.72 0 01-2-1.08l-.76-.51a5.6 5.6 0 01-.94-.67 2.85 2.85 0 01-.31-.46h.15c.27.15.56.3.82.47a1.8 1.8 0 00.61.29c.38.14.23 0-.18-.23l-1.21-.8.7.32-.4-.27a9 9 0 01-1.21-.65l-.71-.5c.27.15.55.26.83.44s.73.47 1.09.71l.41.2h-.06a2 2 0 01-.34-.29c0-.06-.1-.21.29 0s.61.26.82.54l.4.27 1.23.56a.37.37 0 01-.11-.1h.16c.08 0 .38.24.62.4l-.67-.32a.77.77 0 00.17.13 6.08 6.08 0 01.86.43s.09.08.08.08l-.16-.07c-.26-.14-.52-.28-.78-.44l-1.16-.54c.62.4 1.23.75 1.85 1.13h.09c-.33-.27-.05-.12.14 0l.91.44-1.18-.8a2.15 2.15 0 01-.24-.18l.22.09.66.36c.4.2.92.5.83.29h.18c.88.53 1.25.52 2 1s.51.12 1.05.46.67.24 1.16.49a7.56 7.56 0 001.07.41 6.58 6.58 0 011.69.9c.11.08.24.24.19.22a5.68 5.68 0 01-1.87-.79 3 3 0 00-.48-.22l.47.35a6 6 0 001.49.88 3.69 3.69 0 01.84.54l.75.55.76.55.24.18a1.33 1.33 0 01-.29-.06zm-5.29 1.37l.26.15a2.76 2.76 0 01.25.21l-.43-.24zm.68.7l-.43-.28.41.26s-.01.01-.01.03zm27.72 16.87l.2.15-.13-.06-.18-.15zm2.07.79c.26.16.54.3.79.47a4.14 4.14 0 01.38.35l-.4-.23-.46-.31-.29-.2-.39-.29zm-2.51-2.35c.09.07.16.15.24.22l-.72-.45-.08-.12zm-1.08-.65a1.64 1.64 0 01.14.22l-.24-.07c0-.06-.09-.15-.08-.18s.09-.02.15.04zm-.56-.1l.24.24h-.11l-.47-.4zm-.09.39s.07.08.13.14l-.44-.28-.09-.1c.11.09.24.16.37.25zm-.44-.07l.19.15-.12-.05-.18-.15zm-.27-.78l.08.08h-.11l-.1-.09zm-.86-.12l.2.15h-.12l-.19-.15a.38.38 0 01.08.01zm6.87-5s-.06-.05-.09-.08l.21.11.09.09a2.25 2.25 0 01-.24-.12zm0-.29l.32.26a1.83 1.83 0 01-.24-.13c-.13-.09-.24-.19-.36-.28zm-.31-.42a.38.38 0 01.09.09h-.13l-.08-.08zm-3.15-1.42c.35.14 1.13.65 1.05.42.15.08.29.17.56.34.07.09.21.22.21.26s-.35-.08-.76-.33c-.6-.36-.6-.35-.19 0l.16.15-.49-.16-.38-.34a2.2 2.2 0 01-.24-.31c-.03-.03 0-.06.08-.03zm1.79 1.21h.11l.07.09h-.11s-.06-.07-.07-.09zm0 5l-.22-.12-.09-.08.21.11zm-1.7-4.11c.21.07.51.22.74.31a1.92 1.92 0 01.78.53c.05.14 0 .24-.16.23a5.46 5.46 0 01-1.23-.74 5 5 0 01-.43-.34s.21.01.33.06zm-1.09-.2v.06c.25.08.08 0 0-.1s.41.08.62.24.57.49.54.52-.49-.3-.82-.49l-.37-.17-.36-.18-.19-.18zm-3.83-5.43c.09.06.16.13.25.2l-.43-.23-.08-.12zm-12.67 2.35l.26.13h.09-.07l.21.09h-.14c.15.06.2.09.19.09l-.16-.06h-.13a1.2 1.2 0 01-.22-.08s-.02-.13 0-.12zm-1.88-1.3l.49.33c-.16-.08-.32-.15-.48-.25l-.43-.27zm.59 1.35h-.13l-.22-.08s-.06-.07 0-.06l.26.13h.08-.06l.21.09h-.15c.16.05.21.09.2.09zm1 .51c-.14-.08-.27-.19-.4-.28l.58.3.41.3zm1.39.75l-.1-.09.22.11.11.09zm1.4.69s-.1-.07-.09-.07h.12l.09.08zm.92.52a.43.43 0 01-.1-.09l.41.2.13.13zm1.45-.24a1.55 1.55 0 00-.77-.15 3.52 3.52 0 01-.82-.21 3.72 3.72 0 01-.54-.21l-.3-.14-.33-.17a13.2 13.2 0 00-1.67-.78 7.92 7.92 0 01-1.18-.61c-.79-.46-1.59-.9-2.37-1.35v.08c0 .08.27.19.41.28l-.4-.2-.32-.2-.44-.29c-.16-.11-.37-.3-.34-.31a1.45 1.45 0 01.46.2c.22.12.46.27.68.42a3.93 3.93 0 00.66.32c1.66 1 3 1.57 4.42 2.29l.24.11.21.08.37.12a1 1 0 00.47 0 2.2 2.2 0 011.18.39 2.31 2.31 0 01.38.24c.1.13.07.17 0 .14zm.22-3.87c-.41-.23-.82-.45-1.28-.67a10.28 10.28 0 01-.94-.57c-.23-.15-.39-.29-.58-.44a2.82 2.82 0 01.48.19c.62.37.85.46 1 .41s.74.33 1.11.48l.72.28c.12.12.21.24.37.38a3 3 0 00.51.35c.32.18.65.33 1 .49a1 1 0 00-.15-.12l-.23-.15-.14-.09a2 2 0 01.61.21 7 7 0 01.76.42c.22.14.39.3.61.43.54.34 1.21.68 1.62 1s.86.52 1.27.8a6.22 6.22 0 001.33.72 6.2 6.2 0 011.24.73.25.25 0 010 .09c-.7-.47-.38-.11-.61-.21s-.61-.3-.91-.43c-.1 0-.15 0-.24-.08a15.51 15.51 0 00-2.12-1.13c-1.11-.73-2.13-1.1-3.26-1.84-.29-.18-.61-.35-1-.59zm1.57 5a2.8 2.8 0 01-.36 0 .93.93 0 01-.21-.1.27.27 0 01-.08-.07c-.07-.11.22-.07.48.06a.6.6 0 01.11.06s.09.13.06.13zm3.88 1a2.69 2.69 0 00.34.17 1 1 0 00.28.08c-.44-.36 0-.17.22 0a10.09 10.09 0 011.35.8l.32.24a12.16 12.16 0 01-2.27-1.12 1.84 1.84 0 01-.28-.06zm.61 1.93s-.06-.08-.09-.11l.4.24s.06.07.12.13zm2 1l-.19-.15h.11l.18.15zm3.27-.49a3.6 3.6 0 01-.36-.33c.14.08.27.14.41.23l.49.35a3.49 3.49 0 01-.59-.16zm3.48 1.14c-.62-.28-1.4-.8-2.67-1.58-.8-.5-1.54-1-2.3-1.49-.55-.35-.84-.41-.45-.06.54.47-.42-.08-.13.21l-.55-.32c-.36-.23-.44-.36-.26-.28s.21.07-.1-.19-.23-.35.21-.17c.19.08.12 0-.24-.28a6.87 6.87 0 00-1.42-.76l-.67-.36c-.23-.13-.51-.32-.68-.39a4.84 4.84 0 01-1.26-.74c-.26-.21-.83-.49-.9-.69a1.84 1.84 0 00-.87-.56c-.2-.08-.37-.12-.59-.23s-.56-.31-.83-.47c.06 0 0-.12.21-.06a4.84 4.84 0 011 .45c.8.48 1.59.9 2.38 1.33s1.58.92 2.38 1.47a19.24 19.24 0 012.09 1.43c.06 0 .34.19.52.3.48.3 1 .63 1.46 1s.89.65 1 .57l.12.08.4.26.67.44 1.3.91c.33.26.36.38.13.27zm-.35-5.92l-.37-.3c.18.11.36.21.54.33a4.5 4.5 0 01.37.28zm.81.65h.13s.09.09.08.09h-.11zm6 10l-.2-.15.12.05c.08 0 .14.11.21.16zm.13-.27a.38.38 0 01-.11-.11l.43.25a.6.6 0 01.14.14c-.25-.03-.4-.11-.53-.2zm12.51 6l.12.07-.25-.08-.11-.07zm-1.16-.24c.56.29.84.45.76.52h-.13l-.23-.13-.23-.14-.41-.35a1.33 1.33 0 01.17.17zm-.46-.15l-.53-.21c-.25-.13-.62-.27-.66-.37s.13 0 .2 0zm-1-.77l.29.18-.49-.21a1.75 1.75 0 01-.25-.16zm-.69-.2l.16.11-.21-.13h-.11l.08.05c.15.09.12.08.12.07l-.12-.07-.33-.18.21.06c-.22-.14-.22-.17-.22-.19h.09l.14.07a.27.27 0 01.05.11h-.06l.15.1zm-.37-.52c.11.06.19.12.28.18l-.47-.19-.1-.11zm-1.43-1l.1.1-.13-.05a.75.75 0 01-.09-.09zm-.87-.66l.12.15c-.15-.07-.31-.13-.48-.22l-.24-.16zm-.7-.46l.11.09h-.14l-.09-.07s.01.08.05.09zm-.47.07a.47.47 0 00.1.1h-.13l-.09-.1s.01.1.05.11zm0 .11l.65.38c.05 0 .11.07.1.07a.34.34 0 01-.15 0c-.16-.08-.33-.17-.49-.27l-.58-.37zm-3.35-1.16a.81.81 0 01.1.09h-.13l-.09-.08zm-.38-.94l.2.15h-.13l-.19-.15zm-.1.28s.07.08.07.1h-.1l-.09-.09s.07-.02.11-.01zm.72 1.72l-.08-.09.11.05.09.09s-.09-.03-.13-.05zm.66-.31l-.55-.25-.31-.2.35.16-.13-.07c-.59-.27-.42-.16-.26 0l-.52-.15-.71-.61.58.31.91.49.5.23-.37-.16.34.18.24.13s-.03-.04-.08-.06zm-.34-.58h.13l.2.14h-.12zm-.11-.18a.51.51 0 01-.08-.09l.64.29a3.26 3.26 0 01.29.19 1.6 1.6 0 01-.3-.11zm3.94 4.38a5.07 5.07 0 01-1.37-.55c-.42-.28-.85-.5-1.25-.75a.48.48 0 01-.11-.09l.15.05a8.8 8.8 0 001.83.88 6.88 6.88 0 01.65.36c.05.03.1.1.09.1zm-2-2h.28-.27l.08.07a1.67 1.67 0 01.56.21l-.52-.18h-.13a.68.68 0 01-.2-.06s-.06-.07 0-.06a1.79 1.79 0 01.24.12h.05zm1 1l.46.35-.51-.24-.42-.27zm.91 0l-.09-.08h.12l.11.09zm.41.66h-.23a2.16 2.16 0 01-.19-.16h.13zm0 .28l-.44-.26a.48.48 0 01.15 0l.48.28a1.08 1.08 0 01-.27-.03zm.21-.36s-.08-.07-.09-.1h.12l.09.1s-.16 0-.2-.01zm.31.38l.11.08a1.28 1.28 0 01-.24-.11l-.11-.07zm.83.83l-.69-.35-.33-.18a.81.81 0 01-.13-.11c.42.22.84.45 1.28.65a.3.3 0 01-.19-.02zm.81.18c-.49-.26-.87-.37-1.28-.56a1.38 1.38 0 01-.31-.21h.19c.44.24.93.45 1.38.69a.53.53 0 01.15.11.59.59 0 01-.21-.04zm-.48-.39h.13l.22.13h-.12zm4.14.89l-.12-.07h.14s.12.06.11.07zm0-.14c-.47-.22-1-.4-1.42-.63-.76-.37-.76-.37-.88-.22l.63.39a2.13 2.13 0 00.74.36c.08 0 .24.1.36.15s-1.09-.4-.48 0c-.36-.1-.72-.25-1-.35a2.18 2.18 0 01-.51-.25c-.18-.1-.39-.18-.58-.27l.26.23.38.26c-.18-.07-.36-.12-.54-.2a11.08 11.08 0 01-1.58-.85l.1.08.54.4-.32-.19-.07-.05c.12.13 0 .09-.06.05-.26-.12-.6-.29-.62-.38s0-.07 0-.08l.19.06c.05 0 .07.08.15.14a2.59 2.59 0 00.3.21l-.25-.24-.26-.2a1.27 1.27 0 01-.28-.25 5 5 0 00-1.54-1c-.58-.3-1.11-.66-1.65-1a.67.67 0 01-.15-.13h.12l.87.43c.2.11.43.22.65.32-.34-.23-.1-.27-.89-.66l-.44-.19-.22-.2-.48-.28-.43-.27.23.06a1.35 1.35 0 01.46.26 2.4 2.4 0 00.25.18c.22.1.46.21.69.33l-.71-.45c-.22-.17-.36-.3-.54-.45a3 3 0 01-.28-.21l.21.11a.3.3 0 01.07.1l.5.28c0-.05 0-.08-.1-.15-.43-.33-.29-.27.24 0 .11.06.14-.05.2-.07l-.33-.2a.55.55 0 01-.22-.06s-.06-.07 0-.06l.25.12s0-.05 0 0a1.28 1.28 0 01.23.08l.08.1v.06c.32.21.87.43 1 .63l.34.18h.08-.07l.21.08c.11 0 .14.06.13.06h-.17c-.08 0-.06.08 0 .16s.32.27.46.24.45.12.06-.15a2.47 2.47 0 01.36.11c.5.25 1 .53 1.49.8.08 0 .19.15.18.16s-.19-.05-.39-.18a4.49 4.49 0 00-.54-.3 2 2 0 00-.43-.07l.28.18c.23.11.45.24.67.35h.08-.07l.21.08h-.1c.16.06.21.09.2.09l-.17-.05h-.05c-.28-.06-.59-.17-.14.12s.59.35.69.3l.3.12.68.5c.78.33 1.36.74 2.1 1.07.51.23.79.33.76.2s.14 0 .22 0 .12.08.13.11-.1 0 0 .08c.24.18.1.17-.49-.1zm-1.61-.61l-.14-.05s-.08-.06-.09-.09h.12z"/><path class="cls-3" d="M229 99.54a1.74 1.74 0 00.27.14c-.07-.05-.13-.12-.21-.17l-.51-.34-.34-.15.49.32zM277.97 128.28h.01-.01z"/><path class="cls-3" d="M229.62 99.64l-.25-.16-1.11-.48.33.22zM140.65 102.18c.43-.4.91-1 1.14-1l.21-.18.14-.16c0-.06.06-.18.32-.44.57-.58 1.13-1.16 1.66-1.74.75-.8.8-1.08.18-.67a19.84 19.84 0 00-2.26 2c-.63.62-1.24 1.26-1.84 1.89s-1.2 1.3-1.84 1.94c-.48.48-.93 1-1.46 1.45-.38.35-.89 1-1.35 1.48a.8.8 0 01-.13.13c-.92.77-1.83 1.89-2.8 2.73-.55.49-.82.89-.77 1s.08 0 .5-.32a14.46 14.46 0 001.66-1.66 8.28 8.28 0 01.65-.7 7.3 7.3 0 00.85-.82c.66-.7 1.28-1.25 1.92-1.86 1.1-1.04 2.14-2 3.22-3.07zM153.66 90.74a3.8 3.8 0 01-.41.28c-.26.1-.45.24-1 .83-.94 1.06-1.29 1.33-1.67 1.37a3.7 3.7 0 00-1.14 1c-.22.29-.42.57-.6.83a14.76 14.76 0 01-1 1.29c-.66.76-1.43 1.49-2.18 2.24-.55.55-.7.75-.64.88s.09 0 .52-.33 1.08-1 1.62-1.52l4-3.94a9.55 9.55 0 011.11-1c.08-.05 1.42-1.5 1.51-1.61.46-.63.44-.69-.12-.32zM190.41 70.14c-.57-.4 0-.09 0-.16s0-.1-.09-.14a2.87 2.87 0 00-.9-.64c-.11 0-.3-.17-.28-.25s.13 0-.13-.21a1.2 1.2 0 00-.39-.17c-.14 0-.34 0-.28.07s-.15.17-.13.32a.81.81 0 00.3.49 7.18 7.18 0 01.49.55 2 2 0 01.36.61 1.39 1.39 0 00.3.4h.05l.18.16a1.83 1.83 0 01.28.28l.15.11s.07 0 0-.05-.35-.41-.44-.57c-.21-.37.94.21.37-.41l.21.1c.22.08.29 0 .15-.21a2.2 2.2 0 00-.2-.28zM122.46 114.29a8.82 8.82 0 00-1.19 1c-.8.77-1.73 1.69-2.57 2.62l-.41.46a3.75 3.75 0 00.58-.37l2.56-2.18c.34-.36.79-.81 1.12-1.2.64-.75.57-.76-.09-.33zM116.13 114.33a3.54 3.54 0 001.13-.76c.21-.17.43-.39.64-.58l.38-.36c.55-.53.66-.69.67-.87s-.51.16-.92.42a5.9 5.9 0 00-1.8 1.61c-.43.54-.23.53-.1.54zM142.2 102.79a10 10 0 001.06-1.08c.29-.34.76-.84.7-.95s-.07 0-.16 0l-.6.54c-1 1-1.81 1.92-2.66 2.92-.27.32-.66.83-.77.92a3.58 3.58 0 00-1 1.07c0 .06-.15.16-.21.24l-.19.24.1-.08c.32-.38.62-.56 1-1 .59-.65 1.12-1.31 1.79-2 .34-.07.55-.51.94-.82zM105.22 125.62a12.34 12.34 0 011.43-.91c.76-.44 1.47-.91 2.21-1.37a7.64 7.64 0 001-.83c0-.12-.28 0-.6.27a17 17 0 00-1.49 1 7.875 7.875 0 01-.99.69l-1 .61-.46.29c-.48.33-.71.5-.65.57s.26-.09.55-.32zM144.64 100.35c-.5.63-1.3 1.4-1.64 2-.09.14-.38.44-.56.66a5.59 5.59 0 00-.43.53c-.06.12 0 .11.05.16.22-.23.58-.54.66-.66a18.2 18.2 0 011.74-2 13.87 13.87 0 00.94-1.24c-.32.2-.67.45-.76.55zM132.47 107.29c.61-.65 1.19-1.16 1.78-1.68a1 1 0 00.14-.21h-.11c-.59.56-1.18 1.11-1.77 1.69-1.08 1.06-2.16 1.92-3.14 3l-1.12 1.13a.44.44 0 00-.1.15l.1-.07c.81-.82 1.62-1.48 2.39-2.27.63-.6 1.23-1.1 1.83-1.74zM110.35 117.54a5.83 5.83 0 01.65-.43 13 13 0 002-1.18c.09-.05.24-.19.36-.28a.45.45 0 00-.18 0c-.4.2-.76.34-1.23.6s-.94.63-1.45 1c-.11.15-.19.24-.22.29s.01.04.07 0zM119.49 113.57c.34-.25.73-.57.94-.74.61-.58.7-.76.4-.6a6.45 6.45 0 00-.69.41 3.5 3.5 0 00-.75.74c-.2.29-.2.41.1.19zM145.51 98.54c.57-.56.42-.6.63-.9s-.33.09-.71.48a.7.7 0 01-.06.17c-.21.44-.16.55.14.25zM137.26 106.06c-.23.25-.45.46-.64.68s-.22.26-.33.39a2.86 2.86 0 00.41-.32c.21-.19.43-.43.62-.64.33-.36 1-1 .93-1s-.66.59-.99.89zM173.54 73.13c-.26.22-.78.6-.75.71s.55-.43.91-.68c.11-.18.71-.53.68-.65s-.56.38-.84.62zM234.34 106.11l-.42-.15a1.23 1.23 0 00-.26 0c.21.12.43.23.63.36a4.23 4.23 0 001.26.66c-.25-.16-.56-.39-.72-.46-.65-.32-.54-.35-.49-.41zM205.33 81.09a2.29 2.29 0 00-.54-.32c-.28-.08.43.4.52.54l.83.53c-.36-.33-.55-.54-.81-.75zM129.49 107.2l1.57-1.23.11-.16h-.08l-1.38 1.14a2.71 2.71 0 00-.25.24s0 .03.03.01zM236.58 107.41c0-.07-.3-.28-.5-.4a18.47 18.47 0 00-1.74-.9c.56.38 1 .6 1.54.9zM147.72 94.65l.51-.73a3.2 3.2 0 00-.38.29c-.28.26-.51.5-.38.5zM117.41 114.73a.33.33 0 00.16 0 9.65 9.65 0 01.94-.78 2.08 2.08 0 00.2-.21v-.07l-1.23 1s-.09.06-.07.06zM207.29 81.08l-.89-.55a4.43 4.43 0 001 .71c.1 0 .27.17.41.25zM251.9 104.66a3.31 3.31 0 00-.38-.35c-.22-.12-.42-.19-.62-.28.18.14.34.29.55.44.04.03.25.1.45.19zM126.6 105.62a3 3 0 00.66-.59l.21-.25a4.93 4.93 0 00-.92.81s0 .06.05.03zM252.65 104.84c.17.06.49.21.49.17s-.24-.24-.37-.38h-.25zM150.6 92.7l.31-.46a3.89 3.89 0 00-.43.33c-.35.33-.24.31-.18.31a2.55 2.55 0 00.3-.18zM167.05 80.42s.14 0 .25-.1l.55-.61a1.8 1.8 0 00-.31.2c-.19.16-.49.41-.49.51zM151.52 82.87l.73-.73a1.69 1.69 0 00-.3.16c-.22.22-.58.5-.61.65s.13-.03.18-.08zM132.66 106l.24-.25.31-.38-.26.24-.34.35c-.12.15-.25.3-.34.43s0 0 .06 0 .21-.29.33-.39zM128.83 108.06s.11 0 .17-.06l.69-.81c-.22.19-.32.26-.4.34s-.45.47-.46.53zM136.37 103.67l-.5.56h.09l.92-1a.33.33 0 00-.12.06c-.11.09-.23.22-.39.38zM203.08 79.37c0 .11.33.31.54.47s.2.13.45.29c-.36-.32-.59-.51-.81-.72-.06-.01-.19-.07-.18-.04zM207.93 86.74c.12.15.3.32.46.48h.14a4.62 4.62 0 00-.32-.35c-.15-.08-.31-.16-.28-.13zM116.18 118.78a1.8 1.8 0 00-.18.2l.67-.48.28-.35zM171.82 74.63c0 .06-.15.16-.13.16l.46-.2c.07-.1.13-.16.14-.18s-.29.11-.47.22zM126 107.7l-.61.49s-.12.14-.19.21l.54-.39zM159.94 85.85a3.43 3.43 0 00-.38.27 2.2 2.2 0 00-.27.34s.16-.07.22-.14.23-.25.43-.47zM149.47 95.63a4.27 4.27 0 00.41-.29 5.33 5.33 0 00.33-.45l-.29.24zM267.93 126.7s-.06 0 0 .07.17.22.26.33.17 0 .21 0a.53.53 0 00-.14-.11zM153.54 81.56a3.12 3.12 0 00-.45.32 3 3 0 00-.31.4l.51-.44a3.74 3.74 0 00.25-.28zM152.94 83.1l.13-.12.38-.42-.45.44c-.13.12-.26.24-.38.37s-.11.14-.17.2l.15-.1zM266.05 127.25a4.76 4.76 0 00.36.33 6 6 0 00.57.28l-.39-.3zM139.25 98.88s-.11.07-.27.15a2.53 2.53 0 00-.22.35s.15-.09.23-.14a2.58 2.58 0 00.26-.36zM241.53 111.5l.38.35.24.08-.35-.29zM158 85.69c-.1.06-.23.16-.35.25s-.11.15-.09.15a1.7 1.7 0 00.32-.14c.12-.19.12-.27.12-.26zM127.69 106.43l.39-.34.06-.1-.39.28c-.03.06-.1.19-.06.16zM272.09 121.29l.21.06-.51-.39a.71.71 0 00-.15-.07zM115.19 121.25l-.52.34s-.08.12-.06.11a3.47 3.47 0 00.37-.23 2.45 2.45 0 00.21-.22zM136.28 97l-.43.33a1.14 1.14 0 00-.14.16 1 1 0 00.27-.15s.2-.27.3-.34zM205.28 80.75l.4.36.45.29c-.11-.1-.21-.2-.33-.29s-.34-.24-.52-.36zM206.43 81.75l.52.35a3.15 3.15 0 00-.28-.25l-.57-.4zM266.45 125.81l.28.18-.06-.12-.08-.11-.3-.21a2.05 2.05 0 00.16.26zM116 112.75l-.37.33a.37.37 0 00-.07.12l.35-.29a.69.69 0 00.09-.16zM124.72 107.08a.83.83 0 00-.15.09l-.32.34a.29.29 0 00.12-.07 4 4 0 00.35-.36zM134 103.37l-.29.34.25-.2a3.33 3.33 0 01.26-.32 1.92 1.92 0 00-.22.18zM271.66 120.87c0-.1-.35-.3-.58-.46-.02.09.35.29.58.46zM273.84 118.77h.1c.01 0-.12-.09-.18-.14s-.11 0-.13 0zM275.75 122.88l.42.28-.41-.26s-.03-.02-.01-.02zM256.81 107.43l-.45-.27a.7.7 0 00-.14 0l.41.25a.49.49 0 00.18.02zM261.09 110.35l-.26-.2-.37-.18c.07 0 .15.12.22.16zM271.91 128.65l.13.12.5.27-.28-.21zM212.85 90.86s.08.09.13.13l.21.07-.15-.17a.74.74 0 00-.19-.03zM272.13 128.39l-.37-.2.22.18.42.23zM238 108.1l-.41-.22.23.17c.13.09.27.16.44.26zM190.41 71.71c0 .05.08.12.11.19h.17l-.14-.17zM234.4 106.72s0 .07.06.1l.29.16-.13-.18a1.59 1.59 0 00-.22-.08zM136 101.86l-.18.21h.07zM264 111.83l-.09-.08h-.13l.1.08zM258.83 109l-.09-.1h-.11l.08.09zM128.19 112l.1-.06.16-.19a.59.59 0 00-.11.08 1.14 1.14 0 01-.15.17zM278.44 123.06l-.09-.1h-.11s.05.06.08.1zM284.34 126.68l-.1-.1h-.11s.06.06.08.09zM299.17 137.59h-.12l.11.07h.14zM154.31 89.71l.18-.15.08-.1-.19.16zM174 72.15l-.17.17.11-.07.17-.16zM172.33 74.45l.18-.12.07-.09-.15.08zM157.78 89.12L158 89a.39.39 0 01.08-.1l-.19.15zM131.58 98.75l-.09.07-.06.12.11-.08a.49.49 0 00.04-.11zM208.55 85.82l.2.17.11.06-.18-.16zM204.63 80l-.14-.08c0 .06.1.1.16.16a.3.3 0 00.1 0zM185.21 69.64a.56.56 0 010 .07v-.08.01zM297.3 135.92h-.34l.16.07zM297.08 138.93h.27l-.12-.05zM271.32 127.93h.12l-.19-.15-.13-.06zM296.72 135.87h.23l-.29-.06s.04.05.06.06zM273 129.06s.07.07.1.08l.23.12-.11-.09zM207.38 82.52l.13.06-.09-.1h-.12s.05.02.08.04zM134.37 99.37s-.07 0-.11.06-.08.1-.07.1l.11-.06s.08-.1.07-.1zM240.05 109.28l-.21-.11.09.08.23.12zM204.44 80.4l-.21-.14.09.1.2.12a.59.59 0 00-.08-.08zM267.74 126.84l.24.21.03-.05-.27-.16zM153.9 81h-.11s-.08.09-.07.09a.34.34 0 00.11-.05s.08-.04.07-.04zM135 102.6c-.06.06-.11.13-.16.19s.08-.05.1-.08l.15-.19s-.09.06-.09.08zM239.86 110.53l.19.15h.12l-.2-.15zM241 111.2h-.13l.1.08h.12zM136.49 101l-.13.17.14-.1.09-.14zM258.89 124.38l.07.09h.11l-.08-.1zM229.37 96.17c-.08-.06-.16-.13-.24-.18-.26-.17-.62-.45-.64-.34s.07.08.1.12zM222.06 91.4l-.39-.3-.5-.28.27.21zM223.33 92.18l-.09-.09L223 92l.09.08a2.25 2.25 0 00.24.1zM228.27 96l-.18-.15h-.13l.2.15s.08-.06.11 0zM280.3 130c-.25-.16-.42-.29-.48-.31l-.66-.24a6.21 6.21 0 00.61.34 5.32 5.32 0 00.53.21zM283.13 131.69c.53.25.33.08.41.06l-1-.45zM283.14 131.73l-.17-.12c-.31-.13-.61-.26-.9-.4v.06l.1.07c.31.14.63.26.97.39zM283.77 132.2l-.71-.3.46.26.58.23c-.1-.06-.22-.14-.33-.19zM284.06 132.56l.34.11a1.49 1.49 0 00-.24-.14l-.43-.19c.09.07.19.13.33.22zM280.32 130.25l-.43-.27h-.15l.26.17zM280.25 130.63a.5.5 0 00.11.1l.5.25a1.2 1.2 0 00-.15-.13zM284.54 132.9h.2l-.19-.16-.17-.05zM278 129v.05l.66.39c-.01-.1-.41-.29-.66-.44zM280.25 130.47l-.28-.13.1.11.47.22zM278.77 129l-.21-.11.14.12.14.09a.46.46 0 00-.07-.1zM278.83 129.1l.18.13h.12l-.14-.12zM280.92 130.48h-.11l.08.09h.12zM281.56 131.34l.23.14a.34.34 0 00.12 0l-.22-.13zM282.28 132h-.13l.22.13a.5.5 0 00.13 0zM282.44 132.2l.23.13h.13l-.22-.13zM279.05 129l.2.09a1.58 1.58 0 00-.25-.09zM252.12 112a.63.63 0 00.13.11l.47.22-.26-.18zM255.15 113.75l-.07-.09h-.11l.07.09s.11.01.11 0zM256.85 114.8h.11l-.07-.09h-.11s.05.06.07.09zM251.9 112l.19.08a1.79 1.79 0 00-.24-.12s.03.04.05.04zM256.78 114.58l-.19-.14h-.11l.18.14zM213 83.35a3.18 3.18 0 00.31.16c.05 0 0-.07 0-.16zM212.4 83.05a.49.49 0 000 .07l.62.39-.24-.21zM211.15 82.11l.08.09.22.13-.1-.09zM210.11 81.39l-.19-.11.11.12a.71.71 0 00.16.07zM213.57 86.52l.39.28a.54.54 0 00.18.06l-.43-.29a.34.34 0 00-.14-.05zM196.39 68.66c.54.19 1.05.69 1.61.66a.31.31 0 01.18.09 2.7 2.7 0 01.2.31 1.67 1.67 0 01.39-.06 1 1 0 01.38.14c.22.1.61.24.63.31.1.35.44.27.61.45a1.12 1.12 0 00.64.34c0 .29.26.26.41.25a1.86 1.86 0 00.49-.1 3 3 0 00-.36-.45c-.08-.08-.26-.07-.37-.14a12.75 12.75 0 01-1.21-.75c-.46-.32-.89-.22-1.34-.47a8.55 8.55 0 00-1.58-.7c-.3-.1-.2-.23-.33-.31-.3-.19-.65-.18-.73 0s.25.38.38.43zM232 95.45c.16-.07.18-.29.25-.44l-.62-.17c-.38-.11-.4.12-.53.25s0 0 0 .06l-.05.19.28.06a1.8 1.8 0 00.67.05zM207.55 73.38c.07-.14.22-.23.33-.35a.3.3 0 000-.14h-.15c-.31 0-.65-.15-.72.11-.07.08-.13.12-.17.18s0 .17.15.18.44.26.56.02zM200.84 67.42c.13-.11 0-.39-.27-.46a.42.42 0 00-.28 0c-.1.1-.16.15-.18.21a.8.8 0 000 .27c.13 0 .29.14.37.13a.8.8 0 00.36-.15zM204.24 71.27l-.07.18.21.06c.09-.1.17-.14.18-.2a2.43 2.43 0 000-.38h-.34a2.7 2.7 0 01-.39-.08l-.33-.08a3.17 3.17 0 00.36.28c.14.09.24.15.38.22zM210.05 75.72a3.81 3.81 0 01.47.07c.28.07.17-.1.14-.22s-.31-.33-.32-.26-.55-.13-.34.24c0 .02 0 .05.05.17zM224.37 94.68a3 3 0 00-.33-.4c-.11-.08-.26-.24-.35-.08s0 .19.11.24a3.55 3.55 0 00.57.24zM231.7 100.36c.12-.11.25-.23.08-.47a.37.37 0 00-.1-.11c-.28 0-.07.24-.09.36s0 .13-.06.22.14.02.17 0zM185.86 65.72s-.11-.19-.13-.19a.58.58 0 00-.3 0s.06.13.14.29c.14-.03.25-.04.29-.1zM247.55 110.46h-.15v.45a1 1 0 00.18 0c.14-.11-.01-.3-.03-.45zM193.55 66.71c-.12-.08-.26-.14-.39-.21s0 .12 0 .15l.51.25c-.04-.06-.06-.15-.12-.19zM231.32 98.93c.05 0 .13 0 .13-.05a.78.78 0 00-.07-.25l-.26-.07zM197.13 70.21a.88.88 0 00.23.07 2.15 2.15 0 00-.13-.32h-.3a.91.91 0 00.2.25zM221.27 120.24a1.28 1.28 0 00.11.24s.1 0 .16.07v-.34zM209.64 72.64h-.15a.78.78 0 000 .22l.26.12zM201.3 67.21l-.21-.22h-.17l.25.23a.32.32 0 00.13-.01zM199.68 67.31v-.15a2.64 2.64 0 00-.29-.15v.12zM223.74 97.59a.43.43 0 00.2 0v-.13l-.19-.06c-.01.1-.01.15-.01.19zM256.12 119.81a.38.38 0 00-.16 0v.14l.27.07a.54.54 0 00-.11-.21zM212 80.85a.58.58 0 000-.19h-.15a.54.54 0 00-.07.19c.09.01.22.03.22 0zM258.61 126.17c0-.11.22-.19-.06-.34-.02.11-.23.17.06.34zM203.42 70.83v-.11l-.32-.15.11.18zM225.46 98.93v-.12h-.09a.48.48 0 000 .12zM242.59 105h-.15a.56.56 0 00.16.07s-.02-.07-.01-.07zM224.33 94.13h-.08a.4.4 0 000 .11h.08zM219.91 93l-.07-.11h-.09a.44.44 0 00.08.11h.08zM217.5 91.74a1 1 0 00.08.11h.08l-.07-.11zM209.54 77.1a.59.59 0 00.14.06v-.07l-.14-.06s-.02.06 0 .07zM243.92 105.57l-.07-.13h-.09a.44.44 0 00.08.11s.06.01.08.02zM205.12 70.32v-.07H205v.09a.42.42 0 00.12-.02zM232.89 98.26l-.09-.13h-.1a1.13 1.13 0 00.1.13zM248.7 112.08v.12l.07.06a.25.25 0 000-.12s-.03-.04-.07-.06zM196.07 68.85v-.08h-.13v.09a.5.5 0 00.13-.01zM233.25 95.23l-.11-.13H233l.11.13zM136.85 111.73a5.67 5.67 0 00.68-.87.44.44 0 01.08-.1l.15-.08a2.44 2.44 0 01.1-.24 1.46 1.46 0 01.16-.21 1.86 1.86 0 01.28-.33c.13 0 .21-.23.31-.31a1 1 0 00.29-.33c.09 0 .16-.12.2-.21a2.23 2.23 0 00.12-.31 1.28 1.28 0 00-.23.15c-.05 0-.1.15-.16.21-.19.21-.38.42-.58.62s-.33.5-.54.73a9.37 9.37 0 00-.68.85c-.12.17-.13.09-.19.16s-.25.36-.22.44.18-.1.23-.17zM155.29 94.13v-.21l-.24.34a.42.42 0 00-.09.36v.06a1.4 1.4 0 00.1-.16 1.8 1.8 0 00.23-.39zM141.6 105.69a1 1 0 010-.24l-.06.09c-.11.18-.24.37-.19.44v.13c0 .07 0 0 .09-.06s.19-.25.16-.36zM137.87 108.88c0-.1-.12 0-.21.09a.62.62 0 00-.08.18v.14c0 .03 0 0 .07 0a2.08 2.08 0 00.15-.2 1 1 0 00.07-.21zM140 107.38v.07l.08-.12v-.14a.42.42 0 00-.12 0 2 2 0 01-.1.21l-.14.22-.12.19.19-.18zM143 104.52l.17-.27c.1-.15 0-.11 0-.11s-.19.13-.17.15-.21.32 0 .24zM152.73 98.63a1.77 1.77 0 00-.22.14s-.14.12-.13.2.07 0 .11 0 .09-.16.24-.34zM156.57 95c0-.09 0-.18-.11-.11h-.06c-.08.17 0 .08.07.11l.05.07a.8.8 0 00.05-.07zM164.26 87v.08l.12.09a.41.41 0 000-.11c.03-.17-.07-.06-.12-.06zM135.43 113.16c-.06.06-.11.13-.17.2l.23-.27a.18.18 0 00-.06.07zM174.23 83.87l.2-.16v-.08l-.12.06zM174.91 81.72a.13.13 0 00.09 0v-.14h-.1s0 .14.01.14zM156.05 95.05v-.08a.27.27 0 00-.09 0l-.1.15zM137.51 111.51s.06-.09.1-.13a.5.5 0 00-.13 0 1.15 1.15 0 00-.1.18zM158.94 104.14h.1l.07-.08H159s0 .02-.06.08zM142 104.33v.09c0 .01 0 0 .06 0l.11-.13zM175.34 80.23v.09h.07c.07 0 0-.1 0-.11s-.04.02-.07.02zM138 108.57l-.12.1-.05.1.14-.12a.34.34 0 00.03-.08zM137.48 109.56l-.13.16zM153.35 99.42a.38.38 0 00.05-.12l-.07.11zM171.41 88.09h.07v-.11h-.07zM169.51 83.13l-.06.09.11-.15zM145.05 104.11v-.06a.31.31 0 000 .09.11.11 0 000 .08v-.11zM173.47 84.23h.07a1.11 1.11 0 000-.13h-.06a.93.93 0 00-.01.13zM172.06 82.55s0-.17-.11 0-.02.14.11 0zM139.62 107.81h-.05a1.15 1.15 0 01-.14.17h.09zM175.07 81.89v0c0-.02.01-.01 0 0zM175 82.29h.05v-.06zM175.09 82.65v.08a.25.25 0 000-.07s.01-.02 0-.01zM174.54 83.45h.06l.05-.06h-.05c-.05 0-.04.03-.06.06zM173.9 84.16l.1-.16h-.06zM173.61 83.77h-.05v.09zM154.25 98.58v.05zM161.21 89.15l-.05.08a.27.27 0 00.07-.08s-.02.01-.02 0zM152.56 98.57a.17.17 0 000 .05zM150.89 101.07h-.06v.06h.05s0-.05.01-.06zM149.8 102.34zM143.25 105l.06-.08s0 .05-.06.07 0 .01 0 .01zM161.78 88.43h-.06v.06h.06zM140 106.72v.08zM156.34 94h-.06a.33.33 0 010 .06h.06zM174.7 83.35l.05-.13-.1.14zM165.07 86.49zM136.81 112v.08zM171.6 88.54l.07-.1zM155.61 93.37h-.07v.06h.07z"/><path d="M263.4 131.53s0-.08-.07-.13a.74.74 0 01-.17.12h-.27a1.77 1.77 0 01-.17-.24 1.14 1.14 0 01-.06-.25l-.16.14c-.05 0-.08.11-.13.17s-.05-.15-.12-.21-.19-.39-.55-.34-.77-.13-.7.22a.28.28 0 01-.1.25.34.34 0 01-.25 0c-.18-.05-.19-.08-.08-.18.47-.4.42-.55-.11-1.08-.13-.12-.28-.37-.32-.37-.5 0-.35-.29-.54-.41s-.18-.19-.29-.24a2 2 0 01-1-.9 5.06 5.06 0 00-.53-.63c-.41-.42-.42-.41.11-.54a1.43 1.43 0 00.44-.16c.24-.15.53-.29.26-.65l-.18.19c-.06-.08-.17-.16-.19-.23s-.07-.38.31-.3c.17-.24-.08-.55 0-.81 0-.07.12-.13.21-.17a.77.77 0 01.23.15c.34.29.35.28.49 0a.38.38 0 000-.48 2.15 2.15 0 00-.29-.32c-.27-.22.28-.07.11-.25a4.87 4.87 0 01-.46-.69c-.32-.53-1-1-1.27-1.59a.53.53 0 00-.44-.31 1.59 1.59 0 01-1.07-.7 2 2 0 00-.89-.89.82.82 0 01-.33-.38c-.22-.39-.4-.79-.6-1.18l-.54-1.14c0-.06-.16-.18-.19-.17-.26 0-.27-.11-.35-.26a1.87 1.87 0 00-.36-.39c-.11-.12-.24-.33-.34-.35a.71.71 0 01-.55-.31 6.19 6.19 0 01-.76-1.08 3.06 3.06 0 00-.73-1c-.48-.45-1-.9-1.56-1.34h-.3c-.24.23-.43 0-.56-.21s-.2-.37-.14-.47c.14-.26-.23-.46-.29-.69-.1.09-.14.29-.4 0a1 1 0 01-.26-.36c-.14-.38-.23-.76-.35-1.14-.05-.18 0-.41-.33-.18s-.5.09-.7-.3a.47.47 0 01-.07-.24c0-.08.12-.19.14-.18.68.39.93-.07 1.37-.14a.4.4 0 00.29-.41c-.11-.51-.63-.91-1.06-1.33a6.73 6.73 0 00-.85-.44c-.27-.16-.66-.15-.81-.53a1.34 1.34 0 00-.26 0c-.23 0 0 .12 0 .19.08.23.23.51.16.67a.48.48 0 00.13.64c.08.08.14.25.1.31s-.19.11-.3.13-.2-.09-.22-.2-.1-.34 0-.45c.12-.29-.35-.12-.29-.27.17-.38-.27-.6-.54-.64s-.17-.37-.48-.33c-.13 0-.46-.29-.67-.48s0-.21.06-.31c-.28-.14-.48-.13-.62 0a1.09 1.09 0 01-.43.25c-.05 0-.33 0-.24-.12s-.27-.4-.21-.6c0 0-.1-.16-.16-.25-.07.06-.18.1-.2.19s0 .21.06.31c0 .51-.38.67-1 .38a4.68 4.68 0 01-.45-.19c-.12-.07-.2-.28-.28-.31a1.07 1.07 0 01-.84-.86 2.54 2.54 0 00-.17-.51 4.74 4.74 0 00-.26-.5c-.1.12-.27.22-.28.38 0 .35-.28.62-.06 1.06.09.2-.1.1-.19.12s-.16.19-.37 0-.39-.29-.43-.42c-.18-.5-.32-1-.47-1.5 0-.13 0-.32-.06-.37-.53-.34-.31-.66-.46-1s-.27-.74-.41-1.11a.34.34 0 00-.16-.13h-.22c-.11.21-.32.42-.28.68.15.88-.93.52-1.37.81l-.28-.11c-.5-.2-.42-.57-.68-.83-.06.11-.19.21-.18.35 0 .71-.34 1.26-.35 2 0 .11-.12.19-.21.27s-.27 0-.56-.18a1.2 1.2 0 01-.53-.77c-.08-.46-.13-.91-.17-1.36-.1-1.07-.34-2.16-.42-3.22a.93.93 0 00-.56-.8s-.14-.12-.13-.15c.1-.22-.15-.42-.3-.66s-.66-.15-.73-.49a2.55 2.55 0 00-1-.14c-.12.15-.38.3-.3.46.17.39-.14.57-.15.87s-.21.57-.12 1a4.12 4.12 0 01.05.92 1.31 1.31 0 010 .28l-.29 1.72c-.07.31-.45.43-.87.28a1.92 1.92 0 01-.48-.29c-.22-.2.07-.24.06-.38a.41.41 0 000-.08l-.12-.24c-.07 0-.16 0-.2.08l-.72 1s-.13 0-.19.08a.65.65 0 010-.2l.28-.61c.27-.55-.24-1.27-.22-1.88 0-.09-.21-.27-.18-.32a1.7 1.7 0 00.21-1c0-.13.17-.22.21-.35s-.07-.21-.11-.32l-.19.09a1.57 1.57 0 00-.64.52c-.05.11-.35 0-.44-.11a5.2 5.2 0 01-.26-.53 1.37 1.37 0 00-.23-.45 2.82 2.82 0 01-.63-.82c-.14-.24-.45-.6-.66-.64a.92.92 0 01-.69-.53 2.07 2.07 0 00-1-.84 4 4 0 01-1-.63.83.83 0 01-.28-.34c-.18-.45.3-.56.37-.88 0-.14.4 0 .65.18.47.31.66.27.74-.12 0-.13 0-.23.18-.24s.22-.11.21-.13-.23-.37-.36-.42c-.3-.09-.43-.16-.24-.36l-.16-.11c-.19.21-.23.06-.3-.13s-.18-.34-.23-.34c-.48 0-.32-.25-.29-.42s.12-.1.12-.16a.32.32 0 00-.15-.2h-.21c-.02 0 0 .23-.05.33s-.11 0-.14 0-.18-.13-.19-.19.08-.11.1-.18a1 1 0 000-.18.66.66 0 00-.15 0 .33.33 0 01-.48-.07c-.14-.16-.39-.42-.36-.46.21-.22-.26-.42-.24-.67s-.1-.26-.55-.32a.88.88 0 01-.14 0c-.17-.28-.44-.59-.44-.82s-.52-.63-.43-1c-.47-.34-.28-.68-.39-1a.17.17 0 00-.06-.06c-.54-.32-.58-.76-.82-1.17s-.05-.73-.58-1.08c-.19-.12-.09-.57-.32-.58s0 .38 0 .59c.08.45 0 .6-.53.44a2 2 0 00-.37-.07 12.1 12.1 0 00-1.49.07c-.19 0-.36-.24-.57-.1-.47.3-1 .09-1.44-.6a11.23 11.23 0 00-.79-1.4 2.5 2.5 0 01-.63-1.74 1.28 1.28 0 00-.36-1c-.37-.35-.67-.66-.58-1a.33.33 0 00-.08-.24c-.61-.36-.65-1-1.19-1.36a.33.33 0 01-.11-.27 1.31 1.31 0 01.13-.45c.07-.12.25-.22-.07-.38-.08 0-.23.11-.32.2s0 .17 0 .23c-.14.32-.32.3-.87.07a2.55 2.55 0 00-.84-.19c-.14 0-.22.11-.32.17 0-.23-.17-.28-.39-.29a.67.67 0 01-.66-.43c-.11-.33-.42-.21-.56-.35a3.83 3.83 0 01-.4-.59h-.09c-.3-.45-.85-.52-1.23-.84-.07-.06-.22 0-.28-.19a1.36 1.36 0 00-1.23-.95c-.36-.05-.42-.13-.26-.42a5.12 5.12 0 01-.68-.48c-.34-.36-.37.1-.7-.12a2 2 0 00-.74-.19c-.35-.06-.82-.23-1-.13-.34.18-.78-.14-1.11-.11a1.7 1.7 0 01-1.18-.49c-.33-.26-1-.27-1-.8a.44.44 0 00-.24-.18c-.52 0-.66-.41-1-.59s-.37-.63-.87-.53l-.45-.83c-.12-.2-.16-.11-.27-.07a.54.54 0 01-.77-.24.33.33 0 00-.2 0c-.24.13-.11.43-.16.65a10.29 10.29 0 00-.33 1.3 1.74 1.74 0 01-1.09 1.62c-.11 0-.12.23-.11.36a1.52 1.52 0 01-.43 1.13c0 .05-.12.07-.18.11-.39-.34-1-.24-1.3-.64a3.58 3.58 0 00-1.08-.72s-.2.22-.34.31a1 1 0 01-.35 0c-.24 0-.52 0-.59.19a1.52 1.52 0 00-.11.53c0 .32.17.49.52.69s.95.54 1.42.83c.18.11.32.28.5.39a2 2 0 00.66.28 3.71 3.71 0 011.24.58c.5.28.78.7.72 1a3 3 0 00.11.9c0 .31.08.71-.11.85s-.68-.1-1.06-.3a4.5 4.5 0 01-.73-.3 1.19 1.19 0 00-1-.28c-.2 0-.41-.13-.55-.14-.54-.05-.95-.55-1.48-.56a1.17 1.17 0 01-.72-.27 1.49 1.49 0 00-1.19-.26c-.28 0-.42.12-.3.37s.16.42 0 .55-.06.39 0 .63.35.11.53.24a7.57 7.57 0 002.12 1 2 2 0 011.52 1.77 18.05 18.05 0 00.07 2.07c0 .2 0 .5-.15.52-.3 0-.29.24-.15.37s.08.42.2.63.34.42.07.57a.18.18 0 00.06.14c.38.18.33.46.46.7s.4.39.37.45c-.18.33.22.54.39.81s.41.36.11.51c0 0 .07.16.1.25.1.35.49.58.75.84l.55.6c.18.2.31.42.47.63a7.9 7.9 0 01.52.7c.14.25.1.49.4.75s.16.52.59.63c.05 0 .1.29.15.45.32-.08.27.24.42.35a5.73 5.73 0 01.56.54c.17.16.31.33.48.48a4.86 4.86 0 01.71.6c.15.22.48.33.52.59.42-.07.42.3.58.48s.75.42 1 .8c.1.13.51.12.78.24a2.1 2.1 0 01.6.38c.06.06 0 .22 0 .33a5.78 5.78 0 010 2.56.93.93 0 00.09.77c.28.44.31.92.83 1.33a.86.86 0 01.29.54c0 .55.56 1.08.84 1.63a2.27 2.27 0 001.07.94 17.57 17.57 0 013.72 2.36c.17.15.38.29.57.43a1.59 1.59 0 00.47.3 1 1 0 01.94.84.31.31 0 00.07.17c.13.16.29.4.43.45.34.13-.06-.26.13-.29 0 0-.06-.16 0-.23a.16.16 0 01.15-.12.52.52 0 01.26.17c.08.18.14.35.43.39a.4.4 0 01.19.15 10 10 0 01.42 1.28c0 .19.09.24.28.33.4.2.65.06 1 .12.61.1.73.06.58-.4-.09-.3 0-.36.3-.34a2 2 0 01.93.4c.29.19.48.34.27.49l-.9.68a1.07 1.07 0 01-.27.09v-.2l.62-.77s0-.09-.1-.14a.14.14 0 00-.09 0c-.07.07-.12.16-.19.22-.28.24-.44.55-.75.77.54.18 1.07.39 1.6.61a.78.78 0 01.2-.24l.71-.48c.1-.06.16-.22.28-.2a2.74 2.74 0 01.73.28c.3.16.57.37.92.59s.77.37.95.77a.54.54 0 00.28.16c.17-.08.32-.13.62.11.45.36 1.16.63 1.42 1a4.46 4.46 0 01.33.6c.06.14 0 .26-.19.19s-.57.13-.92-.22a.33.33 0 00-.2 0c-.31.07-.48-.13-.68-.37s-.31-.39-.47-.44a1.84 1.84 0 00-.91-.19.38.38 0 01-.1 0 8.67 8.67 0 011.55 1.31c.25 0 .55.12.76.14a3.72 3.72 0 01.79.17c.39.11.57.38.43.64s-.17.22-.24.34 0 .08 0 .11.06 0 .08 0a2.56 2.56 0 00.37-.2c.11-.09.16-.09.2 0a1.87 1.87 0 00.07.22l.18.27a1.89 1.89 0 00.33-.13c.07 0 .1-.16.18-.21s.15 0 .22.06.07.1.06.12a2 2 0 01-.17.23 1.06 1.06 0 00-.06.19.81.81 0 00.22 0c.15 0 .28-.09.44-.1h.96c.18 0 .42 0 .21.25a2.69 2.69 0 01.09 1 4.68 4.68 0 01.64.38c0-.4 0-.8-.07-1.2 0-.09.08-.16.11-.24s-.06-.36.26-.26a.18.18 0 01.09.13c0 .07-.05.14 0 .2.17.31.07.59.22.91s-.05.52-.08.79v.06l.16.13a5.55 5.55 0 01.42.42 5.58 5.58 0 000-1.22s0-.08.08-.11a1 1 0 01.16.12 16.32 16.32 0 012.28 3.17 21.87 21.87 0 011.2 2.08.6.6 0 00.22.28 2.93 2.93 0 011 .8.43.43 0 00.24.08c.2-.23.49.08.53.17.15.42.42.49.7.38s.3 0 .4.19a4.34 4.34 0 00.44 1 1.06 1.06 0 00.51.46 1.26 1.26 0 01.82.94.81.81 0 00.24.38.64.64 0 00.32.14c.3-.33 1-.34.84-1.05-.06-.21.07-.47.42-.35s.58-.1.5-.3c-.14-.38.05-.54.22-.72s.25-.08.42.15a4.09 4.09 0 001 1.1 1.32 1.32 0 01.33.28c.51.78 1.17 1.54 1.62 2.36a2.22 2.22 0 001.26 1.09.83.83 0 01.29.24c.31.37.79.42 1.15.73h.09c0-.43.74-.15 1-.38s.19-.16.29.11.07.38.35.44c.12 0 .2-.12.29-.19a.15.15 0 00.05-.19.34.34 0 01.06-.27l.14.07a.87.87 0 01-.07.17h-.13c.13.1.22.21.2.24s0 .26.2.34.23-.11.28-.07.2.23.33.33a.22.22 0 00.22 0c.1-.07.15-.18.24-.26a.66.66 0 01.22.16l-.06.19-.05.19a1 1 0 00.28.05c.11 0 .19-.07.3-.08s.43 0 .55.3c0 .07.33.19.36.27a.59.59 0 00.66.39.48.48 0 01.51.3c.14.4.54.12.73.39s.33.42.5.63h.38c.41.65.46.25.65.13s.53-.19.76-.32.34-.13.62.09c0 0 .19.09.2.07s.48-.24.15-.59c0 0-.06 0 0 0s-.15-.06-.14-.06h.15v.06c.28-.11.5.05.49.2s-.23.34-.33.52a.55.55 0 000 .34c0 .07.08.28.24.17a.28.28 0 01.41.05c.07.06 0 .17 0 .26s-.08.07-.07.12a1.12 1.12 0 00.1.27h.33c.21-.18.19-.51.67-.53.27 0 .68-.05.68-.19s-.09-.5.38-.45c-.36-.53.22-.54.48-.71a4.05 4.05 0 012 .25l-.27.22v.06c0 .06.1.18.15.27a.74.74 0 00.26 0 2.64 2.64 0 00.29-.15c.08.08.11.27.28.18a5.45 5.45 0 00.9-.61c.05 0-.08-.19-.12-.28h-.22a1.71 1.71 0 01-.66 0c-.29-.17 0-.24 0-.35s.27-.31.1-.59c.4 0 .42-.25.38-.55s.33-.44.27-.69.22-.2.31-.17a2.28 2.28 0 01.53.34c.49.39.65.49 1.14.48a1.48 1.48 0 011.1.41.4.4 0 00.21.08.59.59 0 00.19-.11.67.67 0 01.05.19v.48a1 1 0 00.07.15c.05 0 .13 0 .15-.06l.24-.43h.16a.17.17 0 01.06.08.56.56 0 000 .12c0 .17-.36.29-.05.47.12.07.07-.35.5-.3.05 0 .05-.12.1-.18l.26-.32V131.63c.28.12.47.22.06.24s.4.85.34 1.26 0 .08 0 0v.09l-.11-.11h.08c-.17-.14.37.85.44.76s.12-.06.19-.09.19.17.19.23c0 .29.72 1.11.6.79 0 0-.14-.1-.13-.14s.06-.11.1-.16a2.07 2.07 0 00.25.15c.11 0 .34-.53.67-.68s.17-.32-.09-.51-.28-.14-.39-.22 0-.1 0-.13a.28.28 0 01.17 0c.33 0 .38 0 .41-.05s-.47-.39 0-.41.55.17.66.11-.54-.49 0-.48 1.48-.4 1.65-.75zm-67-60.83c-.12.1-.15.17-.23.18a.94.94 0 01-.38 0 5.57 5.57 0 01-.44-.72s.09-.09.16-.11a.35.35 0 01.2 0c.16.07.34-.12.5.18s.55.43.22.47zm20 43h-.3v-.25l.21-.07a.68.68 0 01.11.33zm3.08.35a2.37 2.37 0 00-1.28-.22 1.5 1.5 0 01-.35-.09 2.34 2.34 0 01-.14-.27 2.2 2.2 0 010-.36l-.25.24a1.24 1.24 0 00-.18.22c-.08.13-.19.13-.33 0l-.3-.2a.36.36 0 01-.18-.51l.62-1.12a.28.28 0 000-.25c-.29-.44-.22-.89-.44-1.33s0-.48.49-.37a1.74 1.74 0 01.67.18c.1.07 0 .3.06.47a1.33 1.33 0 00.3.64 4.43 4.43 0 01.58 1 14 14 0 00.9 1.7c.13.22.04.38-.15.28zm22-6.68a.43.43 0 01-.07-.35h.34a2.93 2.93 0 01.49.38v.11c0 .04-.58.07-.71-.13zm2 24.68l-.21-.22h.41s.06.13 0 .15a1.69 1.69 0 01-.14.08zm.91.52l-.33-.61h.1c.09.06.24.13.26.18a1.74 1.74 0 01.09.43zm2.6-.86a1.27 1.27 0 01-.28 0l-.17-.21.46.06s.08.15.05.16zm-.17-1.94v-.24c0-.03.12-.17.17-.22s.08 0 .1 0 .1.1.09.12a.41.41 0 01-.12.17c-.06.07-.06.12-.18.18zm.75 3.27s-.11-.08-.15-.13h.42a1.65 1.65 0 01.07.21c-.04-.04-.16-.04-.28-.07zm1.41-1l-.26-.07v-.2a3.44 3.44 0 01.5-.09s.07.13 0 .15a2.28 2.28 0 01-.22.27zm10.76.91l-.25-.35h.39c.12 0 .41.15.29.28s-.17.12-.37.12z" style="mix-blend-mode:multiply" fill="url(#linear-gradient)" opacity=".3" fill-rule="evenodd"/><path d="M175 80.43h-.06a.32.32 0 010 .13.71.71 0 01-.07.16.37.37 0 01-.12.07h-.09a.48.48 0 000 .12V81h-.09c-.03 0-.17.06-.27.28s-.27.45-.15.45 0 0 0 .1a.52.52 0 01-.07.16c-.07.09-.08.1-.07 0 0-.34 0-.33-.34-.09-.07.06-.19.12-.2.14-.15.3-.19.17-.28.27a.7.7 0 00-.16.14 1.49 1.49 0 01-.55.46 1.94 1.94 0 00-.34.22c-.25.19-.24.2-.12-.14a1.35 1.35 0 00.09-.29c0-.16.08-.36-.1-.24v.13s-.1.08-.13.08-.13 0 0-.23c0-.13-.18 0-.24-.1a.3.3 0 010-.15s.07-.08.11-.12c.19-.16.19-.17.17-.28s-.06-.1-.15 0a.94.94 0 00-.18.12c-.15.14.06-.17 0-.1a1.84 1.84 0 01-.33.18c-.25.11-.59.44-.84.54 0 0-.11 0-.22.22a1.5 1.5 0 01-.52.54 1.32 1.32 0 00-.53.41.46.46 0 01-.21.14 5.27 5.27 0 01-.51.19l-.48.17a.52.52 0 00-.11.08c-.07.17-.11.15-.18.18a.93.93 0 00-.22.16.86.86 0 00-.2.15.68.68 0 01-.26.29 3.21 3.21 0 01-.53.3 1.53 1.53 0 00-.5.3l-.85.75a.71.71 0 00-.08.19.36.36 0 01-.23.3c-.07 0-.16.07-.18 0s-.19.07-.28.08 0 .12-.11.24a.51.51 0 01-.18.11h-.43c-.06 0-.12 0-.15.18a.44.44 0 01-.3.38h-.09a.45.45 0 010-.11c.32-.35.27-.57.39-.84v-.23s-.44.24-.7.44-.25.31-.38.45-.25.38-.39.41a.52.52 0 00-.09.16c-.07.14 0 0 .06 0s.21-.06.23 0 .07.13.22 0 .11 0 .12 0a.49.49 0 01-.06.2c0 .11-.08.11-.12.1s-.13 0-.14 0-.14.19-.16.13-.26.08-.35.24-.15 0-.24.24a1.79 1.79 0 01-.34.33c-.11.1 0 0-.07-.08a.59.59 0 00-.18.38 1.25 1.25 0 01-.06.29s-.11.2-.11.13-.2.1-.23 0-.08 0-.12.06 0 .12 0 .15.07 0 .11 0 .07.32-.19.63l-.19.24c-.06.06-.14.08-.18.13-.21.3-.36.37-.5.38h-.19L159 92v.22c0 .03.09.26.28.19s0 .07 0 .13 0 .12-.11.22a1 1 0 01-.25.21l-.56.06h-.13c-.25.27-.27.08-.41.13a3.82 3.82 0 01-.44.09.25.25 0 00-.08.07s-.07.12-.06.14 0 .26.1.27c.3 0-.14.63-.19.94a1 1 0 01-.12.15c-.21.27-.28.17-.44.29v.16c.2.1.25.38.44.49v.17c0 .07-.08.16-.22.3s-.3.23-.39.22a3 3 0 01-.43-.1c-.33-.09-.71-.1-1-.2-.07 0-.19 0-.39.21 0 0-.08.07-.08.06s-.17 0-.28.09-.25.38-.37.37a3.79 3.79 0 00-.35.6v.25c0-.02.11.16.2.21s.09.21.23.2.18.07.27.11h.07l.39.43c.07.08 0 .33-.19.56a1.28 1.28 0 01-.22.24c-.13.11 0-.07-.09-.09h-.11v.13l.05.57v.13c0 .05 0 0 0 0l-.09-.25c-.07-.24-.43 0-.59-.14s-.14.09-.15.06a.32.32 0 00-.21-.27v-.17c0-.04-.08 0-.12 0v.13a1.29 1.29 0 000 .46.47.47 0 01-.17.25 1 1 0 01-.23.07.39.39 0 00-.19.08 1.36 1.36 0 01-.43.26 1 1 0 00-.38.31.64.64 0 01-.36.33 1.74 1.74 0 00-.54.49 4 4 0 01-.49.51.32.32 0 01-.18.12c-.18 0-.06-.25-.13-.34s.13-.24.25-.37.28-.36.19-.46-.06 0 0-.14a.26.26 0 000-.15.6.6 0 00-.23.16c-.12.16-.18.23-.18.09l-.08.08c0 .14-.05.15-.12.16a.39.39 0 00-.17.09c-.15.28-.17.16-.21.12s0-.09 0-.1-.08 0-.11.06-.06.12-.05.13.06 0 .08.08a.36.36 0 010 .09s-.09.09-.11.08 0-.06 0-.08v.1a.39.39 0 01-.17.28c-.08.06-.23.18-.24.15s-.19.09-.26.05-.1 0-.26.28a.36.36 0 010 .09c-.12.05-.29.17-.36.14s-.33.22-.4.13c-.24.23-.27.07-.4.09-.25.28-.39.24-.58.33s-.22-.08-.48.19c-.09.1-.19 0-.26.11s.11 0 .18.06.16.11 0 .38a1.27 1.27 0 00-.13.22c-.2.32-.27.59-.44.9-.06.11-.18.18-.2.33a1.16 1.16 0 01-.62.78 3.81 3.81 0 00-.63.28.62.62 0 01-.68.12.33.33 0 00-.38.08c-.21.17-.39.31-.47.2a.08.08 0 00-.09 0c-.29.31-.47.25-.75.52a.13.13 0 01-.11 0 .28.28 0 01-.08-.15c0-.06 0-.18-.13 0s0 .16-.05.22.07 0 .07 0 0 .24-.24.53a3.56 3.56 0 00-.31.48.47.47 0 00-.05.22c-.08 0-.14.06-.21.19s-.21.32-.32.33-.19.23-.27.29a1.64 1.64 0 01-.28.16c-.21.12-.4.44-.61.62 0 0-.07.13-.14.14s-.42.24-.64.61c-.13.21-.16.23-.2.09a3.63 3.63 0 01-.34.34c-.21.16-.09.24-.25.41a2.25 2.25 0 00-.28.41 3.84 3.84 0 00-.35.59c0 .23-.28.45-.37.66a1.94 1.94 0 01-.5.63c-.17.16-.36.53-.52.48 0 0-.11.09-.13.12-.15.32-.31.33-.46.51s-.29.12-.42.44l-.37.15c-.09 0-.08.08-.1.15a.65.65 0 01-.3.43.52.52 0 00-.08.11c0 .17.09.13.14.19s.14.3.26.39.27.38.12.89c0 .07 0 .1.06.12s.19.2.19.41a.61.61 0 010 .13c-.21.18-.36.55-.58.69a3.89 3.89 0 00-.53.54v.26a1.65 1.65 0 01-.09.21c-.07.15-.17.31-.13.38a.28.28 0 00.12.14c.09 0 .18 0 .34-.21l.67-.73c.09-.1.18-.16.27-.26a2.39 2.39 0 00.28-.35 4.66 4.66 0 01.54-.66c.23-.26.44-.37.5-.29s.19 0 .29.06.22 0 .2.19a1.91 1.91 0 01-.41.59 3.9 3.9 0 01-.31.4 1.57 1.57 0 00-.39.57 1.66 1.66 0 01-.21.31c-.18.32-.44.5-.61.81a1.71 1.71 0 01-.29.4 1.85 1.85 0 00-.44.67c-.09.18-.1.27 0 .24s.16 0 .15.08.09.1.18.09.13-.19.23-.28a9.13 9.13 0 00.92-1.14c.39-.54.71-.74 1-.66s.36.23.6.25a.12.12 0 01.1.17c-.08.19 0 .21.06.14s.14 0 .24 0 .22-.14.18 0c.17-.21.24-.14.34-.18s.23-.19.24-.16.22-.05.35-.12.23-.19.18 0h.1c.04 0 .31-.21.46-.33l.34-.25a2.69 2.69 0 01.32-.19c.12-.07.25-.17.36-.22s.17 0 .33-.13.19 0 .36-.26h.17c.07-.21.15-.13.23-.2a2.6 2.6 0 01.32-.26l.28-.22a3.62 3.62 0 01.39-.34c.1-.06.23-.24.32-.23.11-.26.21-.21.31-.28s.35-.39.54-.5a4.18 4.18 0 00.31-.44 2.07 2.07 0 01.29-.3h.1c.28.08.57.13.7.4 0 .08.13.11.24.06s.35-.06.63-.31a.29.29 0 01.24-.1c.16.06.47-.18.71-.27a1.7 1.7 0 00.6-.51 17.24 17.24 0 011.8-1.9l.29-.28a1.67 1.67 0 00.23-.24c.22-.37.38-.45.52-.44a.13.13 0 00.08 0 1.22 1.22 0 00.25-.2c.14-.18-.09 0 0-.12s-.06 0-.07 0a.09.09 0 010-.11.51.51 0 01.12-.13.4.4 0 00.25-.21.21.21 0 01.1-.09 2.22 2.22 0 01.48-.07c.07 0 .1 0 .18-.12a3.23 3.23 0 00.34-.58c.22-.35.24-.43.07-.41s-.11 0 0-.23a2.32 2.32 0 01.4-.49c.14-.15.24-.24.22-.1l-.09.64a.55.55 0 01-.05.17v-.48h-.07v.76q.32-.45.66-.87a.42.42 0 010-.16l.09-.5v-.19a2.78 2.78 0 01.3-.4 6.32 6.32 0 01.45-.47c.14-.12.34-.41.5-.46a.61.61 0 00.13-.15.63.63 0 01.23-.35 5.91 5.91 0 01.72-.71 1 1 0 01.27-.11c.06 0 .07 0 0 .14s-.14.36-.34.52a.27.27 0 00-.07.12.72.72 0 01-.31.35 1.18 1.18 0 00-.27.22 2.39 2.39 0 00-.33.52v.07a8.47 8.47 0 01.85-.75l.27-.43c.09-.16.19-.31.29-.46s.28-.28.31-.16a1.11 1.11 0 010 .19h.05a2.27 2.27 0 00.06-.25c0-.08 0-.11.07-.11h.09l.13-.07c0-.07 0-.15.06-.21s0-.09 0-.14 0-.09.08-.13.05 0 .06 0 0 .1 0 .14v.06l.07-.13c0-.09.06-.19.11-.28s.19-.38.29-.57.13-.25.13-.09a.48.48 0 01.3.08l.3-.33-.35-.13v-.1c0-.03-.12 0 0-.19a.13.13 0 01.07 0h.37c.14 0 .13.11.2.16l.09-.08.24-.19a.79.79 0 00-.35-.15v-.06l.08-.08a8.07 8.07 0 011.59-.92 9.85 9.85 0 011-.43.29.29 0 00.14-.09 2.28 2.28 0 01.54-.5.57.57 0 00.1-.13c0-.15.17-.28.2-.29a.44.44 0 00.32-.37c.05-.14.09-.18.18-.21a1.43 1.43 0 00.4-.13.73.73 0 00.29-.24c.16-.21.39-.4.52-.36s.11 0 .18-.09a.59.59 0 00.13-.17c0-.23.23-.67 0-.66-.08 0-.11-.1 0-.3s.15-.36.07-.34-.14-.11-.14-.24a.29.29 0 01.17-.23 2.55 2.55 0 00.63-.46 1.22 1.22 0 01.18-.16c.37-.19.79-.48 1.15-.63a1.72 1.72 0 00.7-.6.75.75 0 01.16-.15 6.36 6.36 0 00.55-.59s.19-.47.19-.63 0-.14.12-.16.13 0 .23-.15a.51.51 0 000-.2v-.06c0 .01-.05 0-.06-.08l.06-.07a.15.15 0 010 .07v.08c0 .08.13-.1.13-.09s.07 0 .15-.07.05-.15.07-.18a2.31 2.31 0 01.19-.14.37.37 0 00.07-.14 1.08 1.08 0 000-.18 1.66 1.66 0 01.06-.16v.12a1.4 1.4 0 00.1-.16 1.46 1.46 0 01.07-.19c.06-.13.13-.26.25-.29s.15-.17.19-.18.22-.16.31-.34.14-.24.24-.26.2-.31.33-.39.22-.14.33-.2a.49.49 0 010-.11l.06-.13c.31-.16.21-.24.24-.38s.11-.34.14-.5a.65.65 0 01.22-.36l.08-.11c0-.11.08-.32-.12-.17s-.06.08-.06.08v-.09c.06-.19.17-.3.21-.27s0 .19 0 .27a.09.09 0 00.09.07.13.13 0 00.12-.12.36.36 0 01.14-.24h.07c.02 0 0 .06 0 .06a.22.22 0 00.11 0 .73.73 0 00.1-.2c0-.15-.08-.19.06-.48s.19-.41.15-.43-.16 0 0-.3c-.25.14-.08-.21-.05-.39s.11-.33.39-.54v-.09c0 .02-.09 0 0-.15s.22-.27.33-.41v.2l.13-.06s.06-.11.07-.15 0-.13.05-.2.11 0 .14-.14a5.8 5.8 0 00.1-.63h-.12l-.07.13a2.75 2.75 0 01-.21.39c-.13.14-.07 0-.09-.08s0-.2-.13-.14c.11-.25.06-.29 0-.31s0-.26-.11-.26 0-.16.05-.21a2.23 2.23 0 01.26-.27 1.58 1.58 0 00.48-.62 1.92 1.92 0 01.45-.6.34.34 0 00.09-.12.61.61 0 000-.13h.07l.14.06h.06V83.93s0 .26.12.1-.08-.1.07-.35v-.28l.1.06h.06c.06 0 .21-.25.09 0s-.06.31.07.26c.28-.37.29-.38.38-.28h-.07l-.19.17v.15c0-.01.17.1.21.21L174 84l.07-.25h.08l.13-.08a1.3 1.3 0 00.06-.19v-.13a.38.38 0 010-.13s.1-.09.12-.08.25-.06.26.1c.11-.17.27-.37.15-.35s-.08.07-.09.06a.17.17 0 010-.08l.12-.13a1 1 0 00.13-.2v-.1c-.18.13-.19 0-.13-.2s0-.15-.17 0l-.18.2a.3.3 0 010-.11c.12-.19.13-.22.11-.25s-.25.22-.11-.06.13 0 .28-.26c0 0-.06 0 0-.12s-.3.25-.13-.08.18-.06.35-.28c0 0 .07 0 .12.05h.08a.26.26 0 010-.12 1.44 1.44 0 01.09-.24c.07-.2.07-.27-.12 0 .01-.38-.14-.39-.22-.54zM137.44 112v.16a1.81 1.81 0 01-.12.22 3.59 3.59 0 01-.34.17v-.12a.34.34 0 01.07-.11c.07-.09.07-.22.2-.28s.28-.25.19-.04zm18.18-5.87a1.46 1.46 0 01-.09.18l-.05-.07v-.13c0-.04.12-.01.14.02zm1-1.8a3.13 3.13 0 00-.45.73c0 .06-.08.12-.13.2a.41.41 0 01-.12 0 .25.25 0 01-.12 0v.32c0 .04 0 .13-.1.21s-.1.1-.15.15-.17.11-.19 0l-.13-.53s0-.07-.06-.06c-.21.11-.31 0-.5.07s-.15 0 0-.35a2.37 2.37 0 01.26-.37h.15a.37.37 0 00.27-.09 1.54 1.54 0 01.47-.2 5.32 5.32 0 00.75-.3c.17.04.18.12.09.22zm4.89-14.2h-.12a.65.65 0 01.12-.2 2.77 2.77 0 01.25-.24.9.9 0 01-.21.44zm7.53 2.32l-.12.09.12-.25s.06 0 0 0a.49.49 0 01.04.16zm.43-.48l-.27.12a.33.33 0 010-.06s.11-.13.13-.13a.38.38 0 01.15 0zm.56-1.68a1.4 1.4 0 01-.09.17l-.11.07.16-.26s.08 0 .08.02zm-.6-.18h-.07a.78.78 0 010-.13v-.06s.06-.05.06 0a.28.28 0 010 .1.89.89 0 01.05.09zm1.15 0a.31.31 0 01-.09.07l.12-.26h.09zm.16-1l-.1.14h-.05c.01 0 .09-.21.13-.31s.06 0 .06 0a2.07 2.07 0 010 .21zm3.56-6.34l-.17.09a2.53 2.53 0 01.13-.22c.08-.12.17-.23.16-.13a1.51 1.51 0 01-.08.3z" style="mix-blend-mode:multiply" fill="url(#linear-gradient-2)" opacity=".3" fill-rule="evenodd"/><path d="M132.8 117.64h-.1a.83.83 0 00-.08.18h.12a1.18 1.18 0 00.06-.18z" opacity=".2" fill-rule="evenodd"/><path class="cls-7" d="M12.6 71.39V90c0 5.32 1.61 6.79 4.2 7.35H0c2.59-.56 4.2-2 4.2-7.35V57.11c0-5.32-1.61-6.79-4.2-7.35h12.6c13.16 0 19.67 1.89 19.67 10.36S23.94 71.39 12.6 71.39zm0-19.53V70c4.69 0 11.4-1.55 11.4-9.88 0-8.12-5.87-8.26-11.4-8.26zM34.37 73.77c0-9.1 6.44-12.11 14.49-12.11s14.5 3 14.5 12.11v.77l-20.59 7.28v12c0 1.33.7 2.24 2.1 2.17C50.33 95.89 55 93.93 55 86v-.7h8.4c0 9.17-6.44 12.81-14.5 12.81s-14.53-3.69-14.53-12.86zm8.4 5.23L55 74.54v-8.61a1.94 1.94 0 00-2.11-2.17c-6 0-10.08 2.8-10.08 10.08zM90.87 62.22a25.63 25.63 0 00-3.57 5 1 1 0 01-1 .49 12.25 12.25 0 00-5.46-1.12v24.19c0 3.29 3.64 4.55 6.16 2.31-.77 3.36-5 5-7.14 5-3.29 0-7.43-2.45-7.43-8.89V66.77l-5.74-.14c-1.61-.07-1.54-1.75-.14-2.17 6-1.82 8.75-.49 13-11.13.28-.77 1.26-.56 1.26.42v9.66a27.18 27.18 0 009.8-1.82c.39-.21.68.21.26.63zM119.85 64.32l-5.11 6.86c-.07-3-1.75-4.55-3.71-4.55-1.4 0-3 .07-6 3.92V90c0 5.32 1.61 6.79 4.2 7.35H92.48c2.59-.56 4.2-2 4.2-7.35V70A7.06 7.06 0 0093 63.69a36.21 36.21 0 006-.49 21.06 21.06 0 005.6-2c1-.56 1.54-.42 1.26.56a16 16 0 00-.7 4.34v1.68c2.8-3.78 5.46-6.16 8.61-6.16a9.3 9.3 0 016.08 2.7zM55 151.35H42.35c2.59-.56 4.2-2 4.2-7.35v-32.91c0-5.32-1.61-6.79-4.2-7.35H55c11.62 0 19.67 1.89 19.67 10.36 0 5.4-3.22 8.41-8.4 10 6.93 1 12.53 4.34 12.53 13-.05 10.75-10.13 14.18-23.8 14.25zm0-45.51V124c4.69 0 11.41-1.54 11.41-9.88-.05-8.21-5.72-8.28-11.41-8.28zm0 43.41c7.21-.07 15.54-1.47 15.54-12.18s-9.59-11.69-13.23-11.69l.07-.07c-.77.07-1.54.07-2.38.07zM112.57 144c0 5.32 1.61 6.79 4.2 7.35h-12.6v-4.13c-3.64 3-7.29 4.83-10.43 4.83S86 149 86 140.5v-16.45a7.08 7.08 0 00-3.71-6.38 36 36 0 006-.48 20.88 20.88 0 005.6-2c1-.55 1.54-.42 1.27.57a15.91 15.91 0 00-.7 4.34V142c0 3.85 1.46 6.37 3.63 6.37 1.9 0 3.65-1.26 6.17-3.64v-20.68a7.08 7.08 0 00-3.71-6.38 36 36 0 006-.48 21 21 0 005.6-2c1-.55 1.54-.42 1.26.57a15.91 15.91 0 00-.7 4.34V144zM150 144.7c2.31 4.83 4.76 6.09 7.35 6.65h-16.8c2.59-.56 3.36-1.82 1.19-6.72l-6.37-14.35-3.22 2.45V144c0 5.32 1 6.79 2.52 7.35h-15.1c2.59-.56 4.2-2 4.2-7.35v-38.3a7.06 7.06 0 00-3.71-6.37 36.21 36.21 0 006-.49 21.06 21.06 0 005.6-2c1-.56 1.54-.42 1.26.56a16 16 0 00-.7 4.34v27l9.17-7.21c1.75-1.61.56-3.92-1.61-5.19h14.42a47.06 47.06 0 00-7.07 4.56l-9.38 7.28c1.05 1.33 3.43 2 6.23 1 0 0-.77 1 .21 3zM186.49 133.71c0 11.83-6.65 18.34-14.91 18.34-11.62 0-14.91-6.51-14.91-18.34 0-12.32 6.65-18.07 14.91-18.07 10.57 0 14.91 5.75 14.91 18.07zm-9.59-15.26a1.54 1.54 0 00-1.47-.91c-10.57.63-10.36 10.57-10.36 16.17 0 5.39 0 12.53 1.68 15.61a1.59 1.59 0 001.33.77c10.08-.49 10-10.5 10-16.38.01-5.32.08-11.83-1.18-15.26zM215.19 123.42l-8 27.93h-4.9l-9.31-28c-1.68-5-3.92-6.44-6.51-7h17.08c-2.59.57-3.5 1.9-1.75 6.94l5.74 16.52 4.69-16.38c1.47-5.12.42-6.51-2.17-7.08h11.34c-2.57.56-4.74 1.95-6.21 7.07z"/></g></g></g></g></svg>