<svg xmlns="http://www.w3.org/2000/svg" viewBox="0 0 111.83 61.37"><defs><style>.cls-1{fill:#3f3f3f;}</style></defs><title>roundAsset 1stamp</title><g id="Layer_2" data-name="Layer 2"><g id="Layer_1-2" data-name="Layer 1"><path class="cls-1" d="M7.16,13.34a1.31,1.31,0,0,0,.41.06Z"/><path class="cls-1" d="M83.14,2.2l.63-.06.55-.09c.33-.07.73-.13,1.16-.18h0l.1-.18.3.14a15.91,15.91,0,0,1,2.06,0l.39,0a13.2,13.2,0,0,1,3.21.15A5.81,5.81,0,0,0,92.32.09C91.18.85,90.19.87,88.63,0L88,0h-.14c.08.28.13.54,0,.71-.3.32-1.76.07-1.61.68-1.1-.72-.2-.68-.1-1a1.43,1.43,0,0,0,0-.22A24.77,24.77,0,0,1,83.24.3l-.35,0L82.2.42C82,1,81.39,1.33,82,2.34Z"/><path class="cls-1" d="M4.87,13.86a7,7,0,0,0-.65.77c.83.18,1.67.34,2.5.49C6.27,14.58,5.31,14.46,4.87,13.86Z"/><path class="cls-1" d="M10.17,15.61a67.59,67.59,0,0,0,14.71-.06l.59-.06c4.66-1.09,8.71-1.41,13.41-2.46l.31-.07.32-.08.61-.15c1.59-.27,3.54-1.45,4.86-1.27l.32-.08,1.82-.51.33-.09a8.13,8.13,0,0,1,4.21-1.2l.33-.1,2.73-.79.61-.18c1.39.2,2.83-.93,4.24-1.2l.63-.19A150.54,150.54,0,0,1,81.49,2.4s.06-.07.14-.06l.05,0,.27,0A2.92,2.92,0,0,1,81.36.53c-10.08,1.3-20,4.33-30,7.21l-.6.17c-1.29-.15-2.22.94-3,.87l-.61.16-2.42.67-.6.16a20.51,20.51,0,0,1-3.63,1l-.6.15-1.82.43-.61.16c-.89.9-2,.47-3,.65l-.61.13-.62.14c-2.77-.05-5.69,1.72-8.06,1.2l-.53.1-.62.07a65.91,65.91,0,0,1-16.11-.29c-.06.13-.23.36-.29.49C8.79,14.2,10,14.23,10.17,15.61Z"/><path class="cls-1" d="M103.12,2.65a2,2,0,0,0-.37-1.14c.24,0,.31-.05.33-.16C101.49,1,99.9.69,98.29.41c-1,.16-1.93.37-1.89,1.16-.92-.24-1.82-.47-2.7-.67a4.48,4.48,0,0,1-.18.85h.24C96.85,2.68,100,2,103.12,2.65Z"/><path class="cls-1" d="M7.21,15.2c.75.13,1.5.23,2.24.32-.54-.31-.95-.8-1.63-.84A2.61,2.61,0,0,0,7.21,15.2Z"/><path class="cls-1" d="M110,15.57c-.35-.3-.57-.15-.82,0l.79.24C109.93,15.73,109.94,15.65,110,15.57Z"/><path class="cls-1" d="M2.11,23.38l-.19-.05-.13.16c.12,0,0,.18,0,.27S1.92,23.68,2.11,23.38Z"/><path class="cls-1" d="M9.16,26.71c4.66.73,8.67-.1,13.56.43l.6,0c2.16-.16,4.31-.42,6.46-.75a5.44,5.44,0,0,0,.63-.13c7.16-1.71,13.71-2.75,20.58-4.88l.3-.1.31-.11c.9-1.39,1.95-1,3.6-1l.6-.18c7-2,14.08-4.06,21.17-5.38l.61-.11c1.43-1.43,3-1.05,4.9-.76l.6-.07a73.79,73.79,0,0,1,7.86-.56l.34,0c1.81-.58,3.76.51,5.81.34a3.25,3.25,0,0,0,.58-.08c1.87,1.15,3.81,0,5.27.72l.59.11c.6.11,1.2.24,1.8.38a.93.93,0,0,1,.22-.29.49.49,0,0,1,.22.4l1.39.34c-.07-.55-.45-.91-.2-1.38.32-.31.06.69.28.62a.6.6,0,0,0,.28-.32h0l.18-.61c-1.57-.44-3.14-.8-4.7-1.09l-.58-.1a2.2,2.2,0,0,1-.44.17,2,2,0,0,1,.37.18c0,.13-.39-.07-.3.11a2.68,2.68,0,0,1-.4-.21l-.23,0c-.06.14.07.33,0,.47a3.4,3.4,0,0,0-.53-.29c.9.68-.82.26-.57,1a1,1,0,0,1-.08-1.34c-.58-.19-1.15-.48-1.79-.64l-.56-.06-.57-.05-.6,0c-2-.1-4.57.1-6.42-.17H90c-2.44.07-4.87.27-7.3.57l-.4.06c-1.76.56-3.24,1.19-5.13.8l-.61.11c-7.06,1.34-14.07,3.35-21.08,5.39l-.37.11A126.27,126.27,0,0,1,28.93,24.6l-.63.09c-1.36.19-2.72.34-4.09.47l-.63.05c-4.81.31-9.34,1.18-13.48-.19a1.33,1.33,0,0,1-.34-.09c-1-.13-2-.29-3-.48a.46.46,0,0,0,0,.14c-.25.17-.27,0-.3-.19L6,24.3c-.28.18-.38,0-.6.05a.94.94,0,0,1,.16-.14C4.4,24,3.28,23.7,2.16,23.39c-.29.61.51-.18.11.55,1.45-.74,1,1,2.58.2a2.82,2.82,0,0,1-2.7.24c-.16-.06-.35.53-.54.6s.09-.76-.06-.88-.67.37-1,.46S.2,24.4,0,24.34l0,.25a55.62,55.62,0,0,0,8.75,2.06Zm96.71-13c.4.23-.08.27,0,.43C105.63,13.94,105.44,13.62,105.87,13.7ZM4.64,24.5c.23-.21.37-.23.45-.13C4.77,24.76,4.55,24.71,4.64,24.5Z"/><path class="cls-1" d="M36.43,36.67l.62-.14a29.76,29.76,0,0,0,4.86-1.11l.32-.08L45,34.63l.61-.16a7.69,7.69,0,0,0,2.69-.77l.55-.2c1.6-1.32,3.66-1,5.2-1.4l.59-.17c4.93-1.43,9.86-2.88,14.8-4.12.2,0,.39-.1.59-.17,7.71-1.56,15.8-3.46,23.53-3.31.27-.35,1.12-.1.37,0l0,0,.72,0c.12-.37.74-.31,1-.39a.71.71,0,0,1-.43.42c.73.05,1.46.1,2.18.19l.56,0a56.22,56.22,0,0,1,10.4,1.79c.11-.11.22-.14.35.09l.46.12c.16-.27.28-.07.56,0,0-.35-.07-.54-.19-.63.63-.06.93-.1,1.31-.12,0-.19,0-.38,0-.56-.79-.26-1.56-.48-2.34-.69a.93.93,0,0,1-.2.1c-.11,0-.17-.1-.24-.22l-.41-.11c-.19.16-.38.48-.52.48s-.36-.36-.64-.43c-1-.26-2,1-3,.9-.76-.11-1.49-1.53-2.35-1.12.31-1.3.94-.49,1.52-.55a5.44,5.44,0,0,0,.86-.17,60.36,60.36,0,0,0-6.2-.78l-.58,0c-2.19-.64-5.16.62-7.45,0l-.38,0-.35,0a15.81,15.81,0,0,0-3.11.11l-.5.05-.47.05L84,23c-1.19-.51-1.57,1.05-2.65.51l-.61.08-.6.09-.32.06a2.54,2.54,0,0,0-.47-.07,4,4,0,0,0-.49,0c-3.53.94-7,1.73-10.43,2.5l-.31.08c-4.77,1.23-9.53,2.63-14.29,4l-.6.18a4.44,4.44,0,0,1-4.47,1.29l-.36.08c-2.41.67-4.82,1.31-7.24,1.9l-.61.16a21.28,21.28,0,0,0-4.87,1.06l-.33.08C24,37.24,12.58,37.85.77,34.05l.15,1.88C13.05,39.83,24.81,39.08,36.43,36.67Zm63.78-12.91c0,.53,0,.87-.26.8a2.45,2.45,0,0,1-.1-.82Z"/><path class="cls-1" d="M101.69,34.39l-.63-.08c-1.47.07-2.6-1.37-4.3-.37h-.63c-9.63-.35-19.09,1.51-28.5,4L67.3,38c-1.6.09-3,1.23-4.83,1.33l-.32.09-.61.18c-2.51.7-5.25,1.48-8,2.28l-.6.17a17,17,0,0,1-4.16,1.2l-.59.18-.58.17-.63.16-2.1.56-.36.09c-4.72,1.36-9.28,1.73-13.82,2.88l-.61.08-1.75.22-.58.07c-2.62-.21-5.5,2.07-8.15.51-.19,0-.44,0-.63,0A57.72,57.72,0,0,1,1.68,45.39l.15,1.88A57.53,57.53,0,0,0,18.32,50h.3a54.25,54.25,0,0,1,8-.21c.21,0,.42,0,.62,0,6.21-.47,11.84-2.92,17.44-3.49l.62-.14,1.8-.48.61-.17.58-.25.59-.23a22.5,22.5,0,0,1,4.69-1.46l.37-.09c4.71-1.16,9.47-1.76,13.84-3.64l.61-.16c14.21-3.72,28.55-5.93,43.44-1.15l-.15-1.87A56.16,56.16,0,0,0,101.69,34.39Z"/><path class="cls-1" d="M13,60.3A4,4,0,0,0,13,59l-1.78-.25c.28.71.68,1.46.48,1.87l.19.09,1,.13.63.08h.27a.59.59,0,0,0,0-.32C13.61,60.46,13.21,60.49,13,60.3Z"/><path class="cls-1" d="M7.47,58.06c0,.18-.22.37.2.6a1.2,1.2,0,0,1-.49.06c0,.13.62.45,0,.36-.83-.58,0-.71,0-1.08-.69-.16-1.38-.33-2.07-.52a2.17,2.17,0,0,1-.37,1c.65.36,2.12.94,2.2.62.42.26.16.21.06.32a1.46,1.46,0,0,0,.61.15c0,.13,0,.23-.06.32.66.15,1.31.28,2,.4l0,0c.09-.18-.49-.55-.52-.75s.4.06.48,0-.45-.42-.42-.5.39,0,.51-.1.11-.25,0-.42C8.92,58.37,8.19,58.22,7.47,58.06Z"/><path class="cls-1" d="M2.58,56.74l0,.39,1,.18a1.22,1.22,0,0,1,0-.27Z"/><path class="cls-1" d="M95.55,46.15c-.2-.34-.19.21-.65.49.71-1-.71-.38-.24-1.21a2.56,2.56,0,0,1-.51-.1c-2.36.05-4.76.23-7.23.5l-.32,0a23.73,23.73,0,0,1-6,1.75l.12.13a2.34,2.34,0,0,1,.91.5c1.87-.3,3.71-.55,5.53-.73l.33,0a61.73,61.73,0,0,1,7.75-.58,3.84,3.84,0,0,1,.43-.3C95.46,46.49,95.59,46.29,95.55,46.15Z"/><path class="cls-1" d="M80.86,48.23a1.53,1.53,0,0,1-.46-.59c-2.87.47-5.76.63-8.56,1.07l-.59.13-2.63.58-.53.11c-1.5-.27-3.45.91-5,1.25l-.53.15-1.9.54-.61.18-3,.72-.61.19c-.81.13-2.25,1.26-3.54.91l-.59.17c-5.35,1.47-10.71,3.06-16,4.2L36,57.9l-.62.11-.33.06a17.83,17.83,0,0,1-4.24.67l-.34,0L28.88,59l-.62.07a14.44,14.44,0,0,0-3.08.27l-.62,0-.62,0-.63,0c-2.56-.31-5.18.63-7.72.08a3.58,3.58,0,0,1,.56.53c.2.32-.22.45,0,.8a1.73,1.73,0,0,0,.27.28c4.47.27,8.74.53,13.21-.33l.61-.07.62-.08.62-.09c.7-.88,2.27-.5,3.06-.49l.62-.1L37,59.6l.61-.13c5.17-.57,10-2.2,14.69-3.73l.57-.19c2.4-.8,4.93-1,7.29-2.06l.56-.13.33-.1.31-.09,2.29-.67.59-.2a4.34,4.34,0,0,1,3.43-.94l.57-.15c1.16-.31,2.31-.62,3.47-.9l.32-.09q4.76-1.19,9.3-1.93s0-.09,0-.13C81.18,48.18,80.94,48.41,80.86,48.23Z"/><path class="cls-1" d="M107.19,46.53a53.22,53.22,0,0,0-11.51-1.22,1,1,0,0,0,.17.56c.37.4,1,.06,1.54.23s.69.58,1.06.86c1,.06,2,.16,3,.29a1,1,0,0,1,.63-.12c.56-.43.46-1.12,1.06-1.26.46,0-.46.52-.26.64s.87-.18,1.33-.34c.11,1,.88,1.31,1.66,1.71l.3,0c.16-.16.11-.67.54-.71a.78.78,0,0,0,.46.77,16,16,0,0,0,2.84-.11,1,1,0,0,0,.7-.46c-1-.27-1.94-.52-2.91-.74Z"/></g></g></svg>