<svg xmlns="http://www.w3.org/2000/svg" viewBox="0 0 85.59 85.43"><defs><style>.cls-1{fill:#3f3f3f;}</style></defs><title>roundAsset 2stamp</title><g id="Layer_2" data-name="Layer 2"><g id="Layer_1-2" data-name="Layer 1"><path class="cls-1" d="M33.8,75.61l.14-.11c.57-.34,1.6-.22,1.21-1.42V74a1.21,1.21,0,0,0-.19-.75,2,2,0,0,0-1.14-.77l-1.1-.34-.07,0c-.49.13-.49.13-.71-.23l-.08,0-.1,0c-.16,0-.26,0-.3.14l-1.41,4.46c0,.15,0,.24.17.29l.24.08a.3.3,0,0,0,.19,0,.26.26,0,0,0,.11-.15l.17-.55L31,76c-.06-.61.3-1.09.76-1l.06,0,1.1.34.28,2.1a.22.22,0,0,0,0,.13l.12.06.41.13c.08,0,.12,0,.14,0s0,0,0-.07l0-.28,0-.1C33.66,76.75,33.12,76,33.8,75.61Zm-.95-.79-1.38-.44.25-.8,0-.07c.06-.8.06-.8.72-.9l.06,0L33.6,73a1.33,1.33,0,0,1,.74.48,1,1,0,0,1,0,.81.92.92,0,0,1-.52.63A1.71,1.71,0,0,1,32.85,74.82Z"/><path class="cls-1" d="M37,76.7a1.66,1.66,0,0,0,.2,1,1.92,1.92,0,0,0,.77.75,3.42,3.42,0,0,0,1.22.35,3.05,3.05,0,0,0,1.26-.11,1.87,1.87,0,0,0,.91-.57,1.76,1.76,0,0,0,.4-1l0-.21v-.08a4.94,4.94,0,0,0,.07-.76v-.07l.2-2c0-.15-.06-.23-.23-.25l-.24,0a.22.22,0,0,0-.19,0,.2.2,0,0,0-.07.16s0,.4-.1.92V75A2.79,2.79,0,0,1,41,76.75v.1l0,.28a1.21,1.21,0,0,1-.53.94,1.76,1.76,0,0,1-1.25.24A1.86,1.86,0,0,1,38,77.83a1.21,1.21,0,0,1-.33-1l0-.38v-.1a4.14,4.14,0,0,0,.1-1v-.08L38,73.68a.23.23,0,0,0,0-.17.24.24,0,0,0-.18-.08l-.25,0c-.16,0-.25,0-.26.2l-.07.65v.07c.1.61-.68,1.15-.18,1.83v.06C37,76.51,37,76.7,37,76.7Z"/><path class="cls-1" d="M47.42,77.6a.66.66,0,0,1-.25.43,1.83,1.83,0,0,1-.94.29,3.44,3.44,0,0,1-.85,0,2.1,2.1,0,0,1-.72-.2l-.09,0a.07.07,0,0,0-.06.06l-.16.3,0,.07s0,.07.09.09a2.6,2.6,0,0,0,.87.23,5.26,5.26,0,0,0,1.05,0,2.4,2.4,0,0,0,1.4-.5,1.11,1.11,0,0,0,.39-.64s0-.06,0-.1c-.15.12-.21-.3,0-.5a.29.29,0,0,1,0-.09.88.88,0,0,0-.11-.24.43.43,0,0,0,0-.07c-.19-.67-1.45-.49-1.88-.85l-.23-.06-.47-.15a.81.81,0,0,1-.35-.22.73.73,0,0,1-.16-.42.77.77,0,0,1,.25-.68A1.52,1.52,0,0,1,46,74a2.52,2.52,0,0,1,1.39.19l.08,0s0,0,.07-.07l.16-.3s0,0,0-.07,0-.06-.09-.09a3.21,3.21,0,0,0-1.67-.22,2.33,2.33,0,0,0-1.32.5,1.18,1.18,0,0,0-.43,1.06,1.15,1.15,0,0,0,.3.7,1.73,1.73,0,0,0,.6.39,7.78,7.78,0,0,0,.88.25c.41.1.71.18.9.25l.17.07.07,0c-.45.3.81.12.36.76C47.43,77.55,47.42,77.58,47.42,77.6Z"/><path class="cls-1" d="M52.31,77.21a3.49,3.49,0,0,1-.84.13,2.14,2.14,0,0,1-.74-.07h-.09a.14.14,0,0,0-.06.07l-.1.33a.08.08,0,0,0,0,.07.12.12,0,0,0,.1.07,2.65,2.65,0,0,0,.89.08,5,5,0,0,0,1-.18,2.48,2.48,0,0,0,1.3-.72l.06-.09a.22.22,0,0,0,.05-.08c.65-1.31-.25-1.62-1.28-1.93l-.17,0-.38,0-.36,0c-.33,0-.57,0-.72-.08a.89.89,0,0,1-.38-.17.68.68,0,0,1-.22-.38.71.71,0,0,1,.13-.71,1.46,1.46,0,0,1,.77-.43,2.51,2.51,0,0,1,1.4,0s.07,0,.09,0,0,0,.05-.07l.11-.33a.08.08,0,0,0,0-.07s0,0-.1-.07a3.09,3.09,0,0,0-1.69.07,2.3,2.3,0,0,0-1.22.71,1.2,1.2,0,0,0-.24,1.12,1.09,1.09,0,0,0,.41.63,1.49,1.49,0,0,0,.66.28,6.27,6.27,0,0,0,.92.11,8.51,8.51,0,0,1,.92.09,1,1,0,0,1,.33.1l.07,0c.29.07.29.07.31.45a.29.29,0,0,0,0,.09.7.7,0,0,1-.16.63A2,2,0,0,1,52.31,77.21Z"/><path class="cls-1" d="M56.8,74.14c-.72-.15,0-1.54-.81-1.89l0-.06-.39-.89a.2.2,0,0,0-.31-.11l-.23.1a.2.2,0,0,0-.13.3l1.84,4.3a.2.2,0,0,0,.31.11l.23-.1a.24.24,0,0,0,.15-.12.23.23,0,0,0,0-.18l-.6-1.39Z"/><path class="cls-1" d="M60.88,72.56c.57-.19.57-.19.7-.44L61.7,72l.82-.51,1.12.75a.16.16,0,0,0,.1,0,.36.36,0,0,0,.13,0l.36-.23a.1.1,0,0,0,0-.15l0,0-3.35-2.22-.06,0-.25-.17-.74-.49a.3.3,0,0,0-.14-.06s-.07,0-.12,0l-.25.16a.15.15,0,0,0-.09.09.36.36,0,0,0,0,.16l.72,5.22s0,.06,0,.07a.11.11,0,0,0,.16,0l.36-.23a.48.48,0,0,0,.1-.09.2.2,0,0,0,0-.11l-.19-1.34.38-.24Zm-.59-.26-.36-2.52.08,0,.06,0c.29.93,1.44-.09,1.22.82l.06,0,.7.46-.48.3,0,0c-.19,0-.56.47-.7.44l0,0Z"/><path class="cls-1" d="M11.19,44.43a.13.13,0,0,0,0,.08s0,.05.05.07l.29.19.06,0s.07,0,.1-.08a2.54,2.54,0,0,0,.32-.84,5.35,5.35,0,0,0,.11-1.05c0-.12,0-.23,0-.33a.45.45,0,0,1,0-.11,3.17,3.17,0,0,1-.21-.8.25.25,0,0,1,0-.07l-.08-.13a1.16,1.16,0,0,0-1-.52h-.2l-.18,0c-.3,0-.73.08-.62.42l-.05.07-.1.15a6.63,6.63,0,0,0-.39.91l-.13.33a6.37,6.37,0,0,1-.27.67.85.85,0,0,1-.26.32.71.71,0,0,1-.43.11.72.72,0,0,1-.65-.32,1.46,1.46,0,0,1-.2-.86,2.49,2.49,0,0,1,.33-1.36s0-.06,0-.08a.1.1,0,0,0-.06-.07L7.3,41l-.07,0s-.06,0-.1.08a3.1,3.1,0,0,0-.39,1.65,2.23,2.23,0,0,0,.36,1.36,1.13,1.13,0,0,0,1,.54,1.12,1.12,0,0,0,.72-.22,1.64,1.64,0,0,0,.45-.56A8.71,8.71,0,0,0,9.63,43a8.94,8.94,0,0,1,.33-.87,1.25,1.25,0,0,1,.3-.39l.06,0c.29,0,1.49-.56,1.2.65l0,.17c0,.12,0,.25,0,.39a3.86,3.86,0,0,1-.11.84A2.22,2.22,0,0,1,11.19,44.43Z"/><path class="cls-1" d="M12.86,35.14a.38.38,0,0,0,.11,0A.44.44,0,0,0,13,35l.08-.42c0-.08,0-.13-.07-.14H13l-1.36.31-.07,0a2,2,0,0,0-.92.2l-.07,0-.95.21-.07,0c-.28-.15-.59.75-1,.23l-.1,0-.6.13-.14.06a.23.23,0,0,0,0,.12L7.56,36a.19.19,0,0,0,0,.13l.11.11,4.26,3.1.07,0c.07,0,.11,0,.12-.1l.09-.42a.32.32,0,0,0,0-.14.23.23,0,0,0-.07-.08L11,37.87l.51-2.44Zm-2.3,2.42L8.49,36.08,11,35.53Z"/><path class="cls-1" d="M14,32.31l.08-.24a.22.22,0,0,0,0-.19.24.24,0,0,0-.14-.12l-1.22-.46-.07,0-.26-.11-1.83-.69-.06,0c-.22-.31-.22-.31-.85-.33l-.06,0h0a.23.23,0,0,0-.18,0,.26.26,0,0,0-.12.16l-.09.23a.21.21,0,0,0,.12.31l2.48.94.07,0c.3-.58.48.69.8.31l.06,0,1,.37C13.79,32.51,13.89,32.46,14,32.31Z"/><path class="cls-1" d="M16.84,26.4a.35.35,0,0,0,.09-.11l.13-.22a.29.29,0,0,0,0-.19.29.29,0,0,0-.12-.13l-4.06-2.32a.26.26,0,0,0-.18,0,.27.27,0,0,0-.14.14l-.12.21a.21.21,0,0,0,.07.33L15.88,26,11,26.68a.3.3,0,0,0-.15,0,.31.31,0,0,0-.09.12l-.12.21a.21.21,0,0,0,.07.33l2,1.16c.24.09.4.17.53.23.65-.43.89,1.26,1.81.76t.06,0c-.2,0,.23-.07.23-.07-.91-.3-1-1.15-1.84-1.28l-.3-.18-1.42-.81,4.94-.72A.26.26,0,0,0,16.84,26.4Z"/><path class="cls-1" d="M15.22,20.37l-.53.28-.16.19a.26.26,0,0,0-.08.17.3.3,0,0,0,.09.15l.1.09a.18.18,0,0,0,.15.06A.29.29,0,0,0,15,21.2l1-1.12.6.52,0,0c.19.83,1.94,1,2.16,1.88l0,0,.43.37c.11.1.22.09.34,0l.15-.18c.06-.07.09-.12.08-.18a.2.2,0,0,0-.09-.15l-3.28-2.87,1-1.12a.47.47,0,0,0,.09-.17.2.2,0,0,0-.09-.15L17.31,18c-.06-.05-.11-.08-.16-.07A.26.26,0,0,0,17,18L14.83,20.5Z"/><path class="cls-1" d="M23.34,16.24c-.48-.36-.78.54-1.26.76l0,0L20.8,18a.14.14,0,0,0,0,.23l.15.18c.06.08.14.08.23,0l1.65-1.33,0,0C22.56,16.78,23.82,16.6,23.34,16.24Z"/><path class="cls-1" d="M28.45,13.26a1.59,1.59,0,0,0-.19-1.3,1.61,1.61,0,0,0-1-.85,1.87,1.87,0,0,0-1.41.28l-1.86,1a.21.21,0,0,0-.1.32l.35.64,0,.05c.46.47,1,1.25.93,1.69l0,.06.91,1.65a.21.21,0,0,0,.32.09l.22-.13a.24.24,0,0,0,.14-.14.27.27,0,0,0,0-.17L26,15.09l1.42-.78A2,2,0,0,0,28.45,13.26Zm-2.68,1.35-1.08-1.95,1.42-.78a1.13,1.13,0,0,1,.87-.17,1.14,1.14,0,0,1,.64.6,1.17,1.17,0,0,1,.17.87,1.17,1.17,0,0,1-.61.64Z"/><path class="cls-1" d="M33.8,8.74a.27.27,0,0,0,0-.18l0-.12a.22.22,0,0,0-.1-.14.34.34,0,0,0-.19,0l-3.2,1a.21.21,0,0,0-.16.29l.56,1.72,0,.08c.67.65-.06,1.61.67,2.06l0,.05.18.54c0,.15.14.19.3.15l1.52-.5.08,0a2.34,2.34,0,0,1,1.24-.41l.09,0,.26-.08c.09,0,.14-.06.16-.1a.19.19,0,0,0,0-.17l0-.12c0-.08-.06-.12-.11-.14a.27.27,0,0,0-.18,0l-.38.13h0c-.39.18-.81.24-1.23.4l-.07,0-1,.33-.53-1.66,1.5-.49.06,0a1.38,1.38,0,0,0,.59-.2.17.17,0,0,0,.06-.06.19.19,0,0,0,0-.18l0-.11a.19.19,0,0,0,0-.09.1.1,0,0,0-.06-.05c-.4-.18-.7.72-1.35.39l-.07,0-.82.27-.54-1.65,2.73-.89C33.73,8.81,33.78,8.78,33.8,8.74Z"/><path class="cls-1" d="M39.56,7.8c.24.07.24.07.72-.1l.07,0a.19.19,0,0,0,0-.16V7.37l0-.1-.05-.06c-.25-.66-.55.24-.89.06h-.06l-2.94.37a.25.25,0,0,0-.17.07.23.23,0,0,0,0,.17V8a.21.21,0,0,0,.07.15.28.28,0,0,0,.19,0h.14l.09,0A1.73,1.73,0,0,0,37.89,8H38l.13,1s0,.1,0,.16a6.64,6.64,0,0,1,.34,2.65l0,.23,0,.32c0,.15.11.21.27.19l.24,0a.25.25,0,0,0,.18-.08.23.23,0,0,0,0-.17l0-.15,0-.18a12.65,12.65,0,0,1-.4-3.18l0-.14-.09-.68.75-.09Z"/><path class="cls-1" d="M43,8.39C43,9.77,42.83,12,42.83,12s.07.23.23.24l3.36.18a.25.25,0,0,0,.18,0,.18.18,0,0,0,.06-.16v-.12a.3.3,0,0,0,0-.18.38.38,0,0,0-.18-.06h-.16c-.77,0-2,.57-2.68-.6v-.14l.07-1.15,2.15.12A.26.26,0,0,0,46,10a.24.24,0,0,0,.07-.16V9.73A.19.19,0,0,0,46,9.56a.26.26,0,0,0-.18-.05l-2.15-.12V9a7.85,7.85,0,0,1,.06-1.07V7.65l2.87.16a.24.24,0,0,0,.18,0,.19.19,0,0,0,.06-.17V7.48a.22.22,0,0,0,0-.16.3.3,0,0,0-.18-.06l-3.36-.18a.28.28,0,0,0-.19,0l0,0A2,2,0,0,1,43,8.33Z"/><path class="cls-1" d="M53.34,9.07,53.29,9a2,2,0,0,0-1.18-.7L50,7.77a.21.21,0,0,0-.29.16l-.5,2,0,.08c.06.85-.67,1.82-.63,2.48a.15.15,0,0,1,0,.07,3.33,3.33,0,0,0,.44.28.3.3,0,0,0,.19,0,.24.24,0,0,0,.1-.16l.44-1.77,1.6.41.4,2.08a.19.19,0,0,0,0,.12l.13.06.41.1c.08,0,.13,0,.14-.05v-.07L52,11.37A1.74,1.74,0,0,0,53,11a1.24,1.24,0,0,0,.42-.56.11.11,0,0,0,0-.08c0-.59-.06-1,0-1.25C53.37,9.12,53.35,9.1,53.34,9.07Zm-.53.71c0,.08,0,.18-.05.28a.91.91,0,0,1-.48.66,1.62,1.62,0,0,1-1,0l-1.19-.3-.16,0a1.49,1.49,0,0,1,0-.43l.38-1.51.92.24.25.06c.87-.05,1.35.31,1.29,1Z"/><path class="cls-1" d="M57.16,15H57c-.17.34-.72-.45-1.2-.48l-.07,0-.21-.15a2.89,2.89,0,0,1-.52-.54.13.13,0,0,0-.06-.07.09.09,0,0,0-.08,0l-.3.18-.05.05a.13.13,0,0,0,0,.12,1.75,1.75,0,0,0,.25.32l.07.06c.09-.16.15.26.31.26l.07.06c-.17.36,1.09.19.83.49l.05,0a2.3,2.3,0,0,0,1.4.26,1.16,1.16,0,0,0,.89-.68,1.24,1.24,0,0,0,.13-.71,1.61,1.61,0,0,0-.27-.62l-.08-.1,0-.06c-.43-.76-1.33-1.07-1.46-1.94a.19.19,0,0,1,0-.07.52.52,0,0,1,.06-.16.69.69,0,0,1,.56-.45,1.55,1.55,0,0,1,.87.17,2.48,2.48,0,0,1,1.09.88l.06.07s0,0,.09,0l.29-.18a.08.08,0,0,0,0,0s0-.07,0-.12a3.11,3.11,0,0,0-1.33-1A2.31,2.31,0,0,0,57,10.24a1.26,1.26,0,0,0-1,.92v0l-.24,0c.12.84.18,1.26,1,1.64l.07.08.08.07c.3.3.52.52.64.67a1,1,0,0,1,.23.44.75.75,0,0,1-.08.47A.72.72,0,0,1,57.16,15Z"/><path class="cls-1" d="M63.91,14.32a2.5,2.5,0,0,1,0-.42l-1.15-.85a.21.21,0,0,0-.33,0L59.7,16.85a.21.21,0,0,0,.06.33l1.89,1.39a2.06,2.06,0,0,0,.89.42,1.35,1.35,0,0,0,.78-.07,1.4,1.4,0,0,0,.6-.48,1.19,1.19,0,0,0-.05-1.55,1.29,1.29,0,0,0,.73,0l.16-.07.08-.05c.32,0,.68-.5.59-1.07v-.09a1.1,1.1,0,0,0,0-.18,1.51,1.51,0,0,0-.25-.53l-.06-.07-.06,0a2.25,2.25,0,0,0,0,.22.33.33,0,0,1-.1-.23l-.06,0a4,4,0,0,0-.44.07c0,.06.08.17.16.34l0,.06a.44.44,0,0,1,.08.17.76.76,0,0,1-.18.64.8.8,0,0,1-.54.34v.06l0-.06h0a1.14,1.14,0,0,1-.71-.25l-1.4-1,1-1.33.68.5a3.23,3.23,0,0,0-.08-.49C63.64,14.08,63.74,14,63.91,14.32Zm-2,1.5.1.08.92.67.24.2.06.07c-.14.63.76.93.14,1.1l0,.07a.88.88,0,0,1-.59.38,1.1,1.1,0,0,1-.78-.26L60.48,17l.23-.32,0-.05C61.3,16.87,61.06,15.18,61.93,15.82Z"/><path class="cls-1" d="M71.32,21.22c.12-.1.12-.21,0-.34l-.16-.18a.28.28,0,0,0-.17-.1.23.23,0,0,0-.16.07l-.58.51a.77.77,0,0,0,.64-.46,2.53,2.53,0,0,1,0,.86Z"/><path class="cls-1" d="M66.27,19.3l0,0-.41.36a1.8,1.8,0,0,0-.56.9,1.88,1.88,0,0,0,.07,1.07A3,3,0,0,0,66,22.76a3.13,3.13,0,0,0,1,.78,2.12,2.12,0,0,0,.4.14l.08,0c.41,0,.41,0,.87-.07l.08,0a1.18,1.18,0,0,0,.51-.26l.08-.06L70.42,22a1.35,1.35,0,0,1-.6-.45l0,0c0,.21.19.61.07.55-.15.23-.81-.13-.35-.24a.29.29,0,0,0,0-.09l-.37.33a2.05,2.05,0,0,1-.08.76c-.09-.22-.15-.39-.19-.52l-.2.18-.06.06c-.53-.26-.35,1-1,.48h-.16a2.19,2.19,0,0,1-1.62-1.83,1,1,0,0,1,.07-.44l0-.09c.6-.29,1-.35,1.09-1.11l0,0,.26-.23c0-.21.06-.17.16-.14l1.14-1a.2.2,0,0,0,0-.33l-.17-.19a.21.21,0,0,0-.33,0l-1.33,1.17,0,.05C66.79,19.1,66.79,19.1,66.27,19.3Z"/><path class="cls-1" d="M70.55,29a.21.21,0,0,0,0,.12.3.3,0,0,0,0,.13l.21.37c0,.07.09.09.14.06a.23.23,0,0,0,0,0l1.26-1.79a1.69,1.69,0,0,0,.88.45,1.28,1.28,0,0,0,.55,0l.07,0c.31-.67.85.12.84-.57a.18.18,0,0,1,0-.07,1.24,1.24,0,0,0,.19-.48,2.06,2.06,0,0,0-.3-1.34l-1.07-1.88c-.08-.14-.18-.18-.32-.1L70.6,25.18l-.07,0c.23.63-.31-.15-.82.46l0,0-.64.36a.22.22,0,0,0-.08.33l.13.21a.27.27,0,0,0,.14.14.23.23,0,0,0,.17,0l1.2-.67,0,0c.55-.22.55-.22.55.17l.07.11,0,.11,0,.05a.78.78,0,0,1,.44.79l0,0Zm1.15-3,0-.05-.22-.4,1.72-1L74,26a1.34,1.34,0,0,1,.22.7v.08c.66.66-.72,0-.45.62l-.09.06a.87.87,0,0,1-.81.1,1.62,1.62,0,0,1-.68-.73l0,0,0-.06C72.14,26.52,71.66,26.15,71.7,26Z"/><path class="cls-1" d="M76.9,31.42l-.06-.07a2.41,2.41,0,0,0-.65-.55,2.67,2.67,0,0,0-2.11-.1A2.61,2.61,0,0,0,72.42,32a2.87,2.87,0,0,0,0,2.19,4.3,4.3,0,0,0,1,1.76.19.19,0,0,0,.1,0,.42.42,0,0,0,.14,0l2-.63a.24.24,0,0,0,.17-.11.31.31,0,0,0,0-.21s-.08-.28-.19-.61l0-.06a2,2,0,0,1-.23-.74l0-.09,0-.12a.28.28,0,0,0-.1-.16.21.21,0,0,0-.16,0l-.12,0a.21.21,0,0,0-.15.1.25.25,0,0,0,0,.19l0,.06c.19.23.19.23.26.84l0,.06.07.23-.19.06-.1,0c-.65-.46-.47.81-1.07.33l-.08,0-.12,0a3.13,3.13,0,0,1-.34-.52,5.24,5.24,0,0,1-.28-.69l0-.11a.3.3,0,0,1,0-.1c-.28-1.37.51-1.91,1.46-2.46l.11,0a2,2,0,0,1,1.61.09,2.51,2.51,0,0,1,.41.32l.06.07c.71,0-.07.52.44.75v0l.06.15a3.44,3.44,0,0,1,.15.78,2.16,2.16,0,0,1,0,.64.14.14,0,0,0,0,.09s0,0,.08.05l.3.08h.08s0,0,.06-.09a2.34,2.34,0,0,0,0-.81,5,5,0,0,0-.2-1,2.83,2.83,0,0,0-.11-.31.36.36,0,0,0,0-.09C76.78,31.88,77.56,31.34,76.9,31.42Z"/><path class="cls-1" d="M31.44,41.45v0a1.59,1.59,0,0,0,.88-1.6c-.11-.76-.85-1.42-2.13-1.24s-2,1-1.81,1.93a1.54,1.54,0,0,0,1.24,1.23l0,0a1.8,1.8,0,0,0-1.08,1.83c.13.9,1.07,1.55,2.45,1.36l.29-.06h.05a2.61,2.61,0,0,0,1.25-.72l.06-.08A1.64,1.64,0,0,0,33,42.85,1.74,1.74,0,0,0,31.44,41.45ZM29.59,41l-.06-.05s-.05,0-.06,0a3,3,0,0,1-.22-.35c0-.06,0-.12,0-.18a1,1,0,0,1,0-.17v-.09c0-.57,0-.57.4-.66l.09,0a1.33,1.33,0,0,1,.52-.17,1,1,0,0,1,1.26.84A1.07,1.07,0,0,1,31,41l-.07.06C30.85,41.85,29.89,41.13,29.59,41Zm2.21,3-.07.06a1.63,1.63,0,0,1-.79.32,1.19,1.19,0,0,1-1.48-1,1.38,1.38,0,0,1,1-1.44,1.86,1.86,0,0,1,1.49.7s0,.05,0,.08c-.12.3-.12.3.11.37a.28.28,0,0,0,0,.09C31.52,43.48,32.42,43.78,31.8,44Z"/><polygon class="cls-1" points="40.16 39.91 39.85 37.79 42.65 37.39 42.55 36.7 38.87 37.22 39.78 43.6 40.66 43.48 40.25 40.59 42.84 40.22 42.74 39.54 40.16 39.91"/><polygon class="cls-1" points="47.13 41.85 46.8 39.55 49.46 39.17 49.36 38.49 46.7 38.87 46.42 36.85 49.23 36.45 49.13 35.76 45.44 36.29 46.34 42.67 50.19 42.12 50.09 41.43 47.13 41.85"/><path class="cls-1" d="M54.33,41.59a3.62,3.62,0,0,0,2.28-.93A1.68,1.68,0,0,0,57,39.3a1.71,1.71,0,0,0-1.64-1.4v0a1.57,1.57,0,0,0,1-1.56,1.33,1.33,0,0,0-.73-1,3,3,0,0,0-1.94-.2,9.69,9.69,0,0,0-1.6.36L53,41.71A9.78,9.78,0,0,0,54.33,41.59Zm1.74-2.17c.14.93-.66,1.36-1.57,1.49a5,5,0,0,1-.75.07l-.35-2.43.73-.11C55.1,38.31,56,38.55,56.07,39.42ZM53.8,35.7c.89-.13,1.54.08,1.65.83s-.4,1.15-1.33,1.28l-.8.11L53,35.87A4.18,4.18,0,0,1,53.8,35.7Z"/><path class="cls-1" d="M31.89,51.89a2.11,2.11,0,0,1-.11-.64l0-.1c-.12-.78-.21-1.48-.3-2.31l0-.08-.34-2.39-.76.11L29,47.41l.26.61.59-.41.05,0c.46,0,.46,0,.44-.3v0a10.85,10.85,0,0,0,.17,1.19v.06l.4,2.77v.06a5.88,5.88,0,0,0,.12.85v.08l.05.34.86-.12L31.9,52Z"/><path class="cls-1" d="M37.78,51.62a1.9,1.9,0,0,0-.12-.82v-.06c-.07-.42-.14-1-.22-1.5v-.08a5.1,5.1,0,0,0-.18-1.3v-.07L37,45.92v-.07c-.38-.08-.38-.08-.8-.19l0,0-1.29.89.26.61,1.06-.74h0s.2,1.39.4,2.76v.08a11.29,11.29,0,0,1,.31,2.19v.08l0,.26.86-.12v-.08Z"/><path class="cls-1" d="M42.75,48.07l-1.25.18h-.08c-.2-.13-.63-.07-.48.07h-.07l-.63.09.09.61.51-.07h.06c.8-.47,1.76.25,1.88-.7l0-.09Z"/><path class="cls-1" d="M49.63,49.26c-.1-.16-.16-.58-.37-.68l0-.06-2.47-4.6-1.06.15s-.28,1.34-.6,2.82V47a3.15,3.15,0,0,1-.21,1l0,.08c-.3,1.45-.58,2.75-.58,2.75l.92-.13.42-2.11.32,0H46c.4-.24.4-.24.91-.13H47l1.07-.15,1,1.9L50,50l-.32-.62Zm-3-1.52h-.07c-.61.14-.61.14-.73-.3v-.06c.12-.58.31-1.46.31-1.46.08-.41.13-.81.18-1.2h0c.15.36.31.72.52,1.12l.93,1.74Z"/><path class="cls-1" d="M58.3,48.42c-.87-1.31-.63-2.63-.82-3.86v-.07l-.43-2-.08,0c-.19,0-.62.06-.48.07l-.27,0-.3,0s-.56,2.38-.73,3.07v.07c-.09,0,0,.4-.08.33l0,.11c-.16.72-.28,1.35-.35,1.94h0c-.11-.26-.23-.54-.37-.82l0-.08A6.08,6.08,0,0,1,53,44.88l0-.07-.91-1.65L51,43.32s.07,1,.15,2.15v.07c.65,1.09-.07,2.05.24,3.5v.1l0,.63.85-.12L52,46.89c-.08-1-.18-2-.27-2.84h0c.3.73.69,1.52,1.14,2.37l1.54,2.88.67-.09s.43-1.84.65-2.76v0c1-.48-.47-2,.74-2.47V44c.11.68.27,1.44.4,2.1l.57,2.78.86-.12-.06-.29Z"/><path class="cls-1" d="M84.92,43.94A4,4,0,0,1,83,45.83a20.88,20.88,0,0,1-1.35,6.41,4.94,4.94,0,0,0-.13.48c-1.66,4.11-2.75,8.57-5.4,12.18l-.28.42a40.05,40.05,0,0,1-3.54,4.46.64.64,0,0,0,.15-.12,3.4,3.4,0,0,1-.35.34c-.51.55-1,1.1-1.58,1.62l-.26.18a3.4,3.4,0,0,0-1.46.72c.24.26.26.83,1,.44-2.08,2.4-.11-1.23-2,.84h0l-.2.22c.06-.17.18-.25.2-.22h0a.33.33,0,0,1-.13-.15,8.56,8.56,0,0,1-3.19,2.77l-.26.17A39.68,39.68,0,0,1,50.1,82.13l-.28.06a3.11,3.11,0,0,0-1.2.39l-.25.12c-7.42-.1-15.07.55-21.14-3.11l-.48-.2a38.13,38.13,0,0,1-9.06-5.53l-.3-.24a39.8,39.8,0,0,1-4.86-4.77l-.33-.39c-1.43-1.37-3.06-.71-2.48-3.29l-.29-.43A38.92,38.92,0,0,1,7.28,61l-.13-.26c-2-3.21-3.9-7.25-3.62-10.94,0-.12,0-.22,0-.3-.06-.35-.12-.71-.17-1.06a40.17,40.17,0,0,1-.2-9.66c0-.18,0-.38,0-.56-.43-3.59,1.74-6.48,2.34-9.55.07-.16.13-.32.19-.48s.12-.32.19-.48.11-.26.17-.39c.6-1.42,1.33-2.39,1.76-3.54L8,23.42c.21-.39.42-.78.62-1.17l.27-.43.27-.44a4.72,4.72,0,0,0,1.49-3L9.73,19s0-.08,0-.12c.44-.26.78-.46.95-.53a3.4,3.4,0,0,0,0-.7c.31-.9,1.69-.24,2.15-1.12a1.36,1.36,0,0,1,.25-.2,41.93,41.93,0,0,1,3.05-3.06c-.18-.41-.87-.59-.84-1.13-1,.5-3,1.74-2.84,1.91-.65.32-.34.09-.31,0a4.34,4.34,0,0,0-.77.54,3,3,0,0,1-.33-.27c-.08.1-.18.2-.26.29a1,1,0,0,1-.16.27c-.28.49-.58,1-.87,1.45a1.93,1.93,0,0,1,.51-.17c.05.06-.41.38-.47.51-.2.47,1.62-.25,1.56.15s-1.78,1.59-1.13,1.51c-1.72.9-.75.11-.91,0a1.3,1.3,0,0,0-.73-.13C7.69,19.44,6.84,20.75,6,22.07L6,22.18c.16,0,.35-.08.59-.15l-.61.2-.17.27a35.66,35.66,0,0,0-2,3.47l-.23.45a27.85,27.85,0,0,0-2.73,8l-.06.26A2.74,2.74,0,0,0,.74,35a24.45,24.45,0,0,1-.42,2.59l-.06.53A42.85,42.85,0,0,0,.43,48.88q.15,1,.33,2c0,.17.1.36.13.52a3.73,3.73,0,0,1,.71,2.85,4.32,4.32,0,0,0,.1.54c.23.8.48,1.58.76,2.36,0,.15.11.31.17.46s.11.31.17.46.11.31.17.46a42.9,42.9,0,0,0,4.55,8.55l.31.43c.89.29,1,1.13,1.55,2.06l.33.41a43.1,43.1,0,0,0,22.2,14.29l.51.13c.21.23.63.17,1,.24l.51.12.51.11a76.75,76.75,0,0,0,14.7.35l.27,0a42.47,42.47,0,0,0,17.59-7l.26-.19a14.19,14.19,0,0,1,3.09-2.35l.38-.32.37-.33.3-.27a24.36,24.36,0,0,0,2.32-2l.37-.35a5.26,5.26,0,0,0,1.51-.92,1,1,0,0,1-.52-.06,18.5,18.5,0,0,1,1.59-2.29c-.12,0,.07-.24.1-.35s-.25.34-.75,1c1-1.55-.43.14.32-1-1.75,1.4-.62-1-2.58.59,1.49-1.29,2.18-1.24,2.87-1.19.14,0,.55-.78.77-.93.18,0-.37,1-.26,1.1s.52-.34.87-.65a11.61,11.61,0,0,1,2.24-4l.15-.24c.12-.23.23-.46.34-.7s.15-.32.22-.47c.06-.48,0-.9.43-1l.21-.48A59.53,59.53,0,0,0,84.7,51.1l.09-.47a60.26,60.26,0,0,0,.69-6.12A2.14,2.14,0,0,1,84.92,43.94ZM12.16,14.29c1.65-.76.13.63,1.29.25-1.26.82-.38-.25-1.44.31a3,3,0,0,1,.48-.49C12.35,14.35,11.47,14.81,12.16,14.29Zm-4,8.19c-.78.3.43-.61-.37-.32C9.07,21.59,8.2,22.32,8.15,22.48Zm-.38-.37c-.69.31-.56.06-.88.13C7.74,21.81,7.55,22.1,7.77,22.11ZM6,22.36c.42-.19.58-.21.58-.11C5.94,22.6,5.75,22.56,6,22.36ZM65,78.3c.43-.54.19,0,.35,0C64.81,78.82,65,78.5,65,78.3Zm2.35-3.23c-.51.63-.79.62.22-.67.13-.06-.22.4-.51.79C67,75.35,67.41,74.79,67.32,75.07ZM69.84,73c.54-.68.58,0,.28-.12a.6.6,0,0,0-.18.24C69.51,73.68,69.75,73.14,69.84,73Zm.08.57c.65-1,.78-.66,1-.71C70.36,73.43,70.35,73.15,69.92,73.56Zm1.58,1c.14-.23.39-.58.71-1a.76.76,0,0,0,.08.11C71.82,74.31,71.5,74.7,71.5,74.56Zm1-4.85c.51-.55.52-.26.8-.43C72.72,70,72.75,69.65,72.53,69.71Zm1.6-.87c-.31.34-.47.42-.51.32C74.08,68.57,74.3,68.55,74.13,68.84Z"/><path class="cls-1" d="M85.42,39.77l.15.11c0-.18,0-.36,0-.54s0-.37,0-.53c-.07-.66-.15-1.33-.24-2,0-.34-.11-.68-.16-1-1.15-.93-1,1-1.94.46a17.88,17.88,0,0,1-1.63-3.66c.36-1,1.11-1.2,1.76-1.56a2.59,2.59,0,0,0,.61-.43.84.84,0,0,0,0-.17c-1.12-2-1.12-5-3.83-5.91a1.8,1.8,0,0,0,.2-2c-.8-.62-1.49-1-1.82-.36L76.31,18.6c-.21.35-.67.45-1,1A24.63,24.63,0,0,1,80,28.13l.09.25a39.84,39.84,0,0,1,2.31,8.85c.17,1.2.29,2.4.35,3.6l0,.51a23.33,23.33,0,0,1,.28,2.84,7.7,7.7,0,0,0,1-1.28,3.74,3.74,0,0,0,1.52,0c0-1,0-1.93,0-2.88Z"/><path class="cls-1" d="M18,11.63a39.53,39.53,0,0,1,8.1-5l.25-.13C28.05,4,30.88,5.7,33.65,4c.37-.48,1.21-.6,1.09-1.44,2,1.16,4.14-.41,6.47-.1h0a4.1,4.1,0,0,1,1.37.43h.5a38.71,38.71,0,0,1,5.72.44l.51.08A38.76,38.76,0,0,1,64,8.58c.09-.34.71.57.65-.2a1.67,1.67,0,0,1,0,.66,17.25,17.25,0,0,1,2.64,2.23l.4.32a40.32,40.32,0,0,1,4.1,3.74l.37.4,1.25,1.47,0-.12c1.08.51,1.76-.94,2.81-.92,0-.1-.06-.2-.1-.31-.59-.73-1.19-1.44-1.83-2.12-.28.16-.89-.29-.86.56-.54-1.16.22-.66.25-1.19-.68-.7-1.37-1.38-2.09-2-.08.47-.16.95-.43.93-.43,0-1.57-1.89-1.74-1.17-.57-1.87.17-.84.41-1A.57.57,0,0,0,70,9.68c-.36-.29-.72-.58-1.09-.86-.13-.11-.27-.21-.41-.31-1-.66-2-1.25-3.07-1.81,0,.1,0,.2,0,.32,0-.12,0-.23,0-.34l-.22-.12c.07.38,0,.53-.11.53a1.69,1.69,0,0,1-.12-.65c-3.76-2-7.58-3.47-11.44-5.11L53,1.2A42.85,42.85,0,0,0,43,0a3.06,3.06,0,0,1,.15.54c0,.1.25,0,.83-.36-.68,1.54,1.5,1.48,1.44,2.8A6.81,6.81,0,0,1,42.83,1,6.44,6.44,0,0,0,41.6,0h-.13C40,.1,38.3.34,37.1.43l-.27,0a22.88,22.88,0,0,1-3,1c0,.07,0,.18-.06.33a27.17,27.17,0,0,1-3.39,2.14c-1.35,0-1.11-1-2-1.25a19.62,19.62,0,0,0-5,1.8l-.25.16c.46.74-3.77,4.16-2.37,4.31l-3.3,2.44C17.68,11.38,17.78,11.52,18,11.63Zm50.76-1.28c.31.75.47,1.23.32,1.17a10.75,10.75,0,0,1-.5-1.13ZM64.91,7.41c.26.91-.09.72-.21.95C64.54,7.63,64.86,7.76,64.91,7.41ZM49.29,1.34c.51-.22.67-.19,1.14-.38C50.39,1,48.59,1.8,49.29,1.34ZM47.17,2.62l-.05-.17C47.93,1.94,48,2.23,47.17,2.62Z"/><path class="cls-1" d="M68.28,51.73a27,27,0,0,0,1.5-8.13c0-.17,0-.34,0-.5C68.94,37.3,68,31,63.85,26c-.11-.15-.22-.28-.33-.41a27.29,27.29,0,0,0-3.92-3.83l-.4-.3-.43-.3a37.66,37.66,0,0,0-8.46-3.76l-.1,0a20.65,20.65,0,0,0-11.09-1.19h0a2,2,0,0,0-.66.1h0a26.83,26.83,0,0,0-15.2,8.2l-.19.24a31.75,31.75,0,0,0-3.85,5.43l-.25.46A26.78,26.78,0,0,0,16,45.31a2.51,2.51,0,0,0,0,.27c1.93,5.85,3.68,12.05,8.2,16.75.16.15.29.28.42.39.5.46,1,.89,1.54,1.31l.42.3c3.82,2.11,7.13,4.22,11,4.93a4.7,4.7,0,0,0,.51.12l.52.08c2.41-.66,5.3,1.51,7.64.09l.27,0a26.78,26.78,0,0,0,6-1.59l.24-.09c6.47-3.78,13.22-7.75,15.17-15.61ZM67.88,45a25.12,25.12,0,0,1-1.71,7.23c-.07.16-.12.33-.19.48C63.32,58.33,59,64.11,52.72,66l-.41.1a25.56,25.56,0,0,1-5.92,1.59c-.63.09-1.26.16-1.89.2h-.27c-6.64.09-12.91-1.6-17.6-5.93a1.66,1.66,0,0,0-.24-.18c-.32-.27-.63-.56-.93-.85l-.37-.36c-4.25-4.41-7.62-10-7.25-16.11,0-.14,0-.27-.07-.45a24.9,24.9,0,0,1,2.17-11.47,4.19,4.19,0,0,1,.24-.47c2.13-1.94.74-5.62,4.19-6.27l.2-.19a25.05,25.05,0,0,1,14-7.54h0c3.84-.27,7.64-.81,11.43.68l.1,0a15.71,15.71,0,0,1,6.9,3.37l.42.31c.42.31.84.62,1.25,1l.41.34a24.75,24.75,0,0,1,2.15,2.07l.37.42c3.82,5.08,7.31,11.47,6.23,18.21C67.91,44.63,67.9,44.8,67.88,45Z"/></g></g></svg>